<?xml version="1.0" encoding="UTF-8" standalone="no"?>
<!DOCTYPE svg PUBLIC "-//W3C//DTD SVG 1.1//EN"
 "http://www.w3.org/Graphics/SVG/1.1/DTD/svg11.dtd">
<!-- Generated by graphviz version 2.43.0 (0)
 -->
<!-- Title: PromptReferences Pages: 1 -->
<svg width="610pt" height="761pt"
 viewBox="0.00 0.00 610.42 761.46" xmlns="http://www.w3.org/2000/svg" xmlns:xlink="http://www.w3.org/1999/xlink">
<g id="graph0" class="graph" transform="scale(1 1) rotate(0) translate(4 757.46)">
<title>PromptReferences</title>
<!-- bump&#45;semver&#45;version -->
<g id="node1" class="node">
<title>bump&#45;semver&#45;version</title>
<ellipse fill="white" stroke="black" cx="50.91" cy="-627.72" rx="46.84" ry="46.84"/>
<text text-anchor="middle" x="50.91" y="-639.02" font-family="Arial" font-size="14.00">bump&#45;</text>
<text text-anchor="middle" x="50.91" y="-624.02" font-family="Arial" font-size="14.00">semver&#45;</text>
<text text-anchor="middle" x="50.91" y="-609.02" font-family="Arial" font-size="14.00">version</text>
</g>
<!-- commit -->
<g id="node2" class="node">
<title>commit</title>
<ellipse fill="white" stroke="black" cx="446.7" cy="-418.72" rx="40.09" ry="40.09"/>
<text text-anchor="middle" x="446.7" y="-415.02" font-family="Arial" font-size="14.00">commit</text>
</g>
<!-- bump&#45;semver&#45;version&#45;&gt;commit -->
<g id="edge1" class="edge">
<title>bump&#45;semver&#45;version&#45;&gt;commit</title>
<path fill="none" stroke="#1e90ff" d="M87.03,-657.89C149.76,-707.97 282.55,-796.37 368.98,-728.72 409.46,-697.04 431.55,-548.61 440.66,-469.19"/>
<polygon fill="#1e90ff" stroke="#1e90ff" points="444.17,-469.25 441.8,-458.92 437.21,-468.47 444.17,-469.25"/>
</g>
<!-- create&#45;simple&#45;source&#45;map -->
<g id="node5" class="node">
<title>create&#45;simple&#45;source&#45;map</title>
<ellipse fill="white" stroke="black" cx="320.9" cy="-557.72" rx="48.17" ry="48.17"/>
<text text-anchor="middle" x="320.9" y="-576.52" font-family="Arial" font-size="14.00">create&#45;</text>
<text text-anchor="middle" x="320.9" y="-561.52" font-family="Arial" font-size="14.00">simple&#45;</text>
<text text-anchor="middle" x="320.9" y="-546.52" font-family="Arial" font-size="14.00">source&#45;</text>
<text text-anchor="middle" x="320.9" y="-531.52" font-family="Arial" font-size="14.00">map</text>
</g>
<!-- bump&#45;semver&#45;version&#45;&gt;create&#45;simple&#45;source&#45;map -->
<g id="edge2" class="edge">
<title>bump&#45;semver&#45;version&#45;&gt;create&#45;simple&#45;source&#45;map</title>
<path fill="none" stroke="#228b22" d="M97.95,-628.62C136.11,-628.05 191.27,-624.14 236.82,-608.72 249.09,-604.56 261.45,-598.34 272.75,-591.64"/>
<polygon fill="#228b22" stroke="#228b22" points="274.89,-594.44 281.56,-586.21 271.21,-588.48 274.89,-594.44"/>
</g>
<!-- read&#45;source&#45;map -->
<g id="node10" class="node">
<title>read&#45;source&#45;map</title>
<ellipse fill="white" stroke="black" cx="187.32" cy="-555.72" rx="43.68" ry="43.68"/>
<text text-anchor="middle" x="187.32" y="-567.02" font-family="Arial" font-size="14.00">read&#45;</text>
<text text-anchor="middle" x="187.32" y="-552.02" font-family="Arial" font-size="14.00">source&#45;</text>
<text text-anchor="middle" x="187.32" y="-537.02" font-family="Arial" font-size="14.00">map</text>
</g>
<!-- bump&#45;semver&#45;version&#45;&gt;read&#45;source&#45;map -->
<g id="edge3" class="edge">
<title>bump&#45;semver&#45;version&#45;&gt;read&#45;source&#45;map</title>
<path fill="none" stroke="#228b22" d="M92.6,-605.92C107.19,-598.11 123.77,-589.23 138.88,-581.13"/>
<polygon fill="#228b22" stroke="#228b22" points="140.9,-584.02 148.07,-576.21 137.6,-577.85 140.9,-584.02"/>
</g>
<!-- create&#45;mr -->
<g id="node3" class="node">
<title>create&#45;mr</title>
<ellipse fill="white" stroke="black" cx="320.9" cy="-41.72" rx="41.94" ry="41.94"/>
<text text-anchor="middle" x="320.9" y="-45.52" font-family="Arial" font-size="14.00">create&#45;</text>
<text text-anchor="middle" x="320.9" y="-30.52" font-family="Arial" font-size="14.00">mr</text>
</g>
<!-- create&#45;pr -->
<g id="node4" class="node">
<title>create&#45;pr</title>
<ellipse fill="white" stroke="black" cx="446.7" cy="-111.72" rx="41.94" ry="41.94"/>
<text text-anchor="middle" x="446.7" y="-115.52" font-family="Arial" font-size="14.00">create&#45;</text>
<text text-anchor="middle" x="446.7" y="-100.52" font-family="Arial" font-size="14.00">pr</text>
</g>
<!-- create&#45;mr&#45;&gt;create&#45;pr -->
<g id="edge4" class="edge">
<title>create&#45;mr&#45;&gt;create&#45;pr</title>
<path fill="none" stroke="#228b22" d="M357.71,-61.97C371.18,-69.58 386.68,-78.34 400.87,-86.37"/>
<polygon fill="#228b22" stroke="#228b22" points="399.55,-89.64 409.98,-91.52 402.99,-83.55 399.55,-89.64"/>
</g>
<!-- squash -->
<g id="node13" class="node">
<title>squash</title>
<ellipse fill="white" stroke="black" cx="563.42" cy="-111.72" rx="38.99" ry="38.99"/>
<text text-anchor="middle" x="563.42" y="-108.02" font-family="Arial" font-size="14.00">squash</text>
</g>
<!-- create&#45;pr&#45;&gt;squash -->
<g id="edge5" class="edge">
<title>create&#45;pr&#45;&gt;squash</title>
<path fill="none" stroke="#1e90ff" d="M488.47,-111.72C496.71,-111.72 505.45,-111.72 513.93,-111.72"/>
<polygon fill="#1e90ff" stroke="#1e90ff" points="514.09,-115.22 524.09,-111.72 514.09,-108.22 514.09,-115.22"/>
</g>
<!-- create&#45;simple&#45;source&#45;map&#45;&gt;commit -->
<g id="edge6" class="edge">
<title>create&#45;simple&#45;source&#45;map&#45;&gt;commit</title>
<path fill="none" stroke="#1e90ff" d="M353.46,-522.28C371.5,-502.03 394.11,-476.64 412.43,-456.08"/>
<polygon fill="#1e90ff" stroke="#1e90ff" points="415.19,-458.25 419.22,-448.45 409.96,-453.59 415.19,-458.25"/>
</g>
<!-- debug -->
<g id="node6" class="node">
<title>debug</title>
<ellipse fill="white" stroke="black" cx="320.9" cy="-418.72" rx="35.19" ry="35.19"/>
<text text-anchor="middle" x="320.9" y="-415.02" font-family="Arial" font-size="14.00">debug</text>
</g>
<!-- debug&#45;&gt;commit -->
<g id="edge7" class="edge">
<title>debug&#45;&gt;commit</title>
<path fill="none" stroke="#1e90ff" d="M356.06,-418.72C368.38,-418.72 382.55,-418.72 395.93,-418.72"/>
<polygon fill="#1e90ff" stroke="#1e90ff" points="395.96,-422.22 405.96,-418.72 395.96,-415.22 395.96,-422.22"/>
</g>
<!-- fix&#45;pr -->
<g id="node7" class="node">
<title>fix&#45;pr</title>
<ellipse fill="white" stroke="black" cx="187.32" cy="-181.72" rx="26.74" ry="26.74"/>
<text text-anchor="middle" x="187.32" y="-185.52" font-family="Arial" font-size="14.00">fix&#45;</text>
<text text-anchor="middle" x="187.32" y="-170.52" font-family="Arial" font-size="14.00">pr</text>
</g>
<!-- fix&#45;pr&#45;&gt;commit -->
<g id="edge8" class="edge">
<title>fix&#45;pr&#45;&gt;commit</title>
<path fill="none" stroke="#1e90ff" d="M210.48,-196.12C227.28,-206.78 251.1,-221.37 272.82,-232.72 314.31,-254.41 334.71,-243.83 368.98,-275.72 396.99,-301.78 416.88,-340.44 429.37,-370.99"/>
<polygon fill="#1e90ff" stroke="#1e90ff" points="426.24,-372.58 433.17,-380.59 432.75,-370.01 426.24,-372.58"/>
</g>
<!-- fix&#45;pr&#45;&gt;create&#45;pr -->
<g id="edge9" class="edge">
<title>fix&#45;pr&#45;&gt;create&#45;pr</title>
<path fill="none" stroke="#228b22" d="M209.27,-165.52C225.63,-153.78 249.45,-138.63 272.82,-130.72 312.39,-117.33 359.68,-112.86 394.79,-111.59"/>
<polygon fill="#228b22" stroke="#228b22" points="394.92,-115.08 404.81,-111.3 394.72,-108.09 394.92,-115.08"/>
</g>
<!-- review&#45;pr -->
<g id="node11" class="node">
<title>review&#45;pr</title>
<ellipse fill="white" stroke="black" cx="320.9" cy="-181.72" rx="42.35" ry="42.35"/>
<text text-anchor="middle" x="320.9" y="-185.52" font-family="Arial" font-size="14.00">review&#45;</text>
<text text-anchor="middle" x="320.9" y="-170.52" font-family="Arial" font-size="14.00">pr</text>
</g>
<!-- fix&#45;pr&#45;&gt;review&#45;pr -->
<g id="edge10" class="edge">
<title>fix&#45;pr&#45;&gt;review&#45;pr</title>
<path fill="none" stroke="#228b22" d="M213.69,-176.26C229.25,-175.11 249.75,-174.73 268.57,-175.12"/>
<polygon fill="#228b22" stroke="#228b22" points="268.72,-178.62 278.82,-175.41 268.93,-171.63 268.72,-178.62"/>
</g>
<!-- improve&#45;prompt -->
<g id="node8" class="node">
<title>improve&#45;prompt</title>
<ellipse fill="white" stroke="black" cx="187.32" cy="-366.72" rx="49.49" ry="49.49"/>
<text text-anchor="middle" x="187.32" y="-370.52" font-family="Arial" font-size="14.00">improve&#45;</text>
<text text-anchor="middle" x="187.32" y="-355.52" font-family="Arial" font-size="14.00">prompt</text>
</g>
<!-- improve&#45;prompt&#45;&gt;commit -->
<g id="edge11" class="edge">
<title>improve&#45;prompt&#45;&gt;commit</title>
<path fill="none" stroke="#1e90ff" d="M236.87,-362.74C273.83,-361.16 325.57,-362.12 368.98,-374.72 381.2,-378.27 393.55,-384.12 404.66,-390.43"/>
<polygon fill="#1e90ff" stroke="#1e90ff" points="402.89,-393.45 413.28,-395.54 406.46,-387.43 402.89,-393.45"/>
</g>
<!-- improve&#45;prompt&#45;&gt;debug -->
<g id="edge12" class="edge">
<title>improve&#45;prompt&#45;&gt;debug</title>
<path fill="none" stroke="#228b22" d="M233.6,-384.61C248.1,-390.34 264.07,-396.66 278.29,-402.28"/>
<polygon fill="#228b22" stroke="#228b22" points="277.23,-405.62 287.82,-406.04 279.8,-399.11 277.23,-405.62"/>
</g>
<!-- optimize&#45;prompt -->
<g id="node9" class="node">
<title>optimize&#45;prompt</title>
<ellipse fill="white" stroke="black" cx="50.91" cy="-328.72" rx="50.82" ry="50.82"/>
<text text-anchor="middle" x="50.91" y="-332.52" font-family="Arial" font-size="14.00">optimize&#45;</text>
<text text-anchor="middle" x="50.91" y="-317.52" font-family="Arial" font-size="14.00">prompt</text>
</g>
<!-- optimize&#45;prompt&#45;&gt;commit -->
<g id="edge13" class="edge">
<title>optimize&#45;prompt&#45;&gt;commit</title>
<path fill="none" stroke="#1e90ff" d="M100.19,-315.44C112.37,-312.66 125.5,-310.13 137.82,-308.72 181.53,-303.7 193.51,-300.95 236.82,-308.72 298.48,-319.78 314.41,-326.95 368.98,-357.72 382.59,-365.39 396.31,-375.41 408.3,-385.1"/>
<polygon fill="#1e90ff" stroke="#1e90ff" points="406.38,-388.04 416.31,-391.72 410.84,-382.65 406.38,-388.04"/>
</g>
<!-- optimize&#45;prompt&#45;&gt;improve&#45;prompt -->
<g id="edge14" class="edge">
<title>optimize&#45;prompt&#45;&gt;improve&#45;prompt</title>
<path fill="none" stroke="#228b22" d="M100.06,-342.33C109.66,-345.05 119.83,-347.92 129.69,-350.71"/>
<polygon fill="#228b22" stroke="#228b22" points="128.84,-354.1 139.41,-353.46 130.74,-347.37 128.84,-354.1"/>
</g>
<!-- optimize&#45;prompt&#45;&gt;optimize&#45;prompt -->
<g id="edge15" class="edge">
<title>optimize&#45;prompt&#45;&gt;optimize&#45;prompt</title>
<path fill="none" stroke="#228b22" d="M25.43,-372.79C25.81,-386.68 34.31,-397.63 50.91,-397.63 63.23,-397.63 71.09,-391.6 74.48,-382.81"/>
<polygon fill="#228b22" stroke="#228b22" points="77.96,-383.27 76.4,-372.79 71.08,-381.96 77.96,-383.27"/>
</g>
<!-- read&#45;source&#45;map&#45;&gt;create&#45;simple&#45;source&#45;map -->
<g id="edge16" class="edge">
<title>read&#45;source&#45;map&#45;&gt;create&#45;simple&#45;source&#45;map</title>
<path fill="none" stroke="#228b22" d="M231.41,-556.37C241.3,-556.52 251.97,-556.69 262.37,-556.84"/>
<polygon fill="#228b22" stroke="#228b22" points="262.58,-560.35 272.63,-557 262.68,-553.35 262.58,-560.35"/>
</g>
<!-- review&#45;pr&#45;&gt;commit -->
<g id="edge17" class="edge">
<title>review&#45;pr&#45;&gt;commit</title>
<path fill="none" stroke="#1e90ff" d="M350.53,-212.45C357.08,-220.34 363.67,-229.06 368.98,-237.72 395.02,-280.19 416.31,-333.07 429.8,-370.68"/>
<polygon fill="#1e90ff" stroke="#1e90ff" points="426.59,-372.12 433.22,-380.38 433.19,-369.78 426.59,-372.12"/>
</g>
<!-- review&#45;pr&#45;&gt;create&#45;pr -->
<g id="edge18" class="edge">
<title>review&#45;pr&#45;&gt;create&#45;pr</title>
<path fill="none" stroke="#228b22" d="M358.38,-161.1C371.72,-153.55 386.96,-144.93 400.94,-137.03"/>
<polygon fill="#228b22" stroke="#228b22" points="402.93,-139.92 409.92,-131.95 399.49,-133.83 402.93,-139.92"/>
</g>
<!-- review&#45;pr&#45;&gt;fix&#45;pr -->
<g id="edge19" class="edge">
<title>review&#45;pr&#45;&gt;fix&#45;pr</title>
<path fill="none" stroke="#228b22" d="M278.82,-188.03C261.17,-188.69 240.74,-188.61 223.76,-187.79"/>
<polygon fill="#228b22" stroke="#228b22" points="223.88,-184.29 213.69,-187.18 223.46,-191.27 223.88,-184.29"/>
</g>
<!-- ship -->
<g id="node12" class="node">
<title>ship</title>
<ellipse fill="white" stroke="black" cx="50.91" cy="-481.72" rx="26.8" ry="26.8"/>
<text text-anchor="middle" x="50.91" y="-478.02" font-family="Arial" font-size="14.00">ship</text>
</g>
<!-- ship&#45;&gt;commit -->
<g id="edge20" class="edge">
<title>ship&#45;&gt;commit</title>
<path fill="none" stroke="#1e90ff" d="M77.67,-484.08C132.57,-488.28 264.63,-493.89 368.98,-462.72 381.17,-459.08 393.51,-453.19 404.62,-446.88"/>
<polygon fill="#1e90ff" stroke="#1e90ff" points="406.42,-449.88 413.24,-441.77 402.85,-443.86 406.42,-449.88"/>
</g>
<!-- ship&#45;&gt;debug -->
<g id="edge21" class="edge">
<title>ship&#45;&gt;debug</title>
<path fill="none" stroke="#228b22" d="M77.12,-475.79C122.88,-465.04 220.07,-442.19 276.62,-428.89"/>
<polygon fill="#228b22" stroke="#228b22" points="277.75,-432.22 286.68,-426.53 276.15,-425.41 277.75,-432.22"/>
</g>
<!-- ship&#45;&gt;read&#45;source&#45;map -->
<g id="edge22" class="edge">
<title>ship&#45;&gt;read&#45;source&#45;map</title>
<path fill="none" stroke="#228b22" d="M74.71,-494.27C92.49,-504.06 117.76,-517.97 139.76,-530.09"/>
<polygon fill="#228b22" stroke="#228b22" points="138.19,-533.22 148.64,-534.98 141.57,-527.09 138.19,-533.22"/>
</g>
<!-- suggest&#45;better&#45;function&#45;names -->
<g id="node14" class="node">
<title>suggest&#45;better&#45;function&#45;names</title>
<ellipse fill="white" stroke="black" cx="320.9" cy="-671.72" rx="48.17" ry="48.17"/>
<text text-anchor="middle" x="320.9" y="-690.52" font-family="Arial" font-size="14.00">suggest&#45;</text>
<text text-anchor="middle" x="320.9" y="-675.52" font-family="Arial" font-size="14.00">better&#45;</text>
<text text-anchor="middle" x="320.9" y="-660.52" font-family="Arial" font-size="14.00">function&#45;</text>
<text text-anchor="middle" x="320.9" y="-645.52" font-family="Arial" font-size="14.00">names</text>
</g>
<!-- suggest&#45;better&#45;function&#45;names&#45;&gt;commit -->
<g id="edge23" class="edge">
<title>suggest&#45;better&#45;function&#45;names&#45;&gt;commit</title>
<path fill="none" stroke="#1e90ff" d="M353.87,-636.51C359.32,-629.57 364.62,-622.13 368.98,-614.72 396.89,-567.29 418.51,-507.84 431.58,-466.93"/>
<polygon fill="#1e90ff" stroke="#1e90ff" points="434.98,-467.79 434.64,-457.2 428.3,-465.69 434.98,-467.79"/>
</g>
</g>
</svg>
