<?xml version="1.0" encoding="UTF-8" standalone="no"?>
<!DOCTYPE svg PUBLIC "-//W3C//DTD SVG 1.1//EN"
 "http://www.w3.org/Graphics/SVG/1.1/DTD/svg11.dtd">
<!-- Generated by graphviz version 2.43.0 (0)
 -->
<!-- Title: PromptReferences Pages: 1 -->
<svg width="617pt" height="1010pt"
 viewBox="0.00 0.00 617.49 1010.34" xmlns="http://www.w3.org/2000/svg" xmlns:xlink="http://www.w3.org/1999/xlink">
<g id="graph0" class="graph" transform="scale(1 1) rotate(0) translate(4 1006.34)">
<title>PromptReferences</title>
<!-- bump&#45;semver&#45;version -->
<g id="node1" class="node">
<title>bump&#45;semver&#45;version</title>
<ellipse fill="white" stroke="black" cx="188.74" cy="-550.72" rx="46.84" ry="46.84"/>
<text text-anchor="middle" x="188.74" y="-562.02" font-family="Arial" font-size="14.00">bump&#45;</text>
<text text-anchor="middle" x="188.74" y="-547.02" font-family="Arial" font-size="14.00">semver&#45;</text>
<text text-anchor="middle" x="188.74" y="-532.02" font-family="Arial" font-size="14.00">version</text>
</g>
<!-- commit -->
<g id="node2" class="node">
<title>commit</title>
<ellipse fill="white" stroke="black" cx="453.78" cy="-531.72" rx="40.09" ry="40.09"/>
<text text-anchor="middle" x="453.78" y="-528.02" font-family="Arial" font-size="14.00">commit</text>
</g>
<!-- bump&#45;semver&#45;version&#45;&gt;commit -->
<g id="edge1" class="edge">
<title>bump&#45;semver&#45;version&#45;&gt;commit</title>
<path fill="none" stroke="#1e90ff" d="M229.8,-572.9C243.48,-579.33 259.13,-585.48 274.23,-588.72 318.48,-598.21 333.09,-602.93 376.06,-588.72 390.52,-583.93 404.48,-575.25 416.43,-566.08"/>
<polygon fill="#1e90ff" stroke="#1e90ff" points="418.77,-568.69 424.37,-559.69 414.38,-563.23 418.77,-568.69"/>
</g>
<!-- create&#45;mr -->
<g id="node3" class="node">
<title>create&#45;mr</title>
<ellipse fill="white" stroke="black" cx="325.14" cy="-41.72" rx="41.94" ry="41.94"/>
<text text-anchor="middle" x="325.14" y="-45.52" font-family="Arial" font-size="14.00">create&#45;</text>
<text text-anchor="middle" x="325.14" y="-30.52" font-family="Arial" font-size="14.00">mr</text>
</g>
<!-- create&#45;pr -->
<g id="node4" class="node">
<title>create&#45;pr</title>
<ellipse fill="white" stroke="black" cx="453.78" cy="-183.72" rx="41.94" ry="41.94"/>
<text text-anchor="middle" x="453.78" y="-187.52" font-family="Arial" font-size="14.00">create&#45;</text>
<text text-anchor="middle" x="453.78" y="-172.52" font-family="Arial" font-size="14.00">pr</text>
</g>
<!-- create&#45;mr&#45;&gt;create&#45;pr -->
<g id="edge2" class="edge">
<title>create&#45;mr&#45;&gt;create&#45;pr</title>
<path fill="none" stroke="#228b22" d="M355.29,-70.76C362.2,-77.85 369.47,-85.48 376.06,-92.72 390.85,-109 406.6,-127.47 419.96,-143.5"/>
<polygon fill="#228b22" stroke="#228b22" points="417.63,-146.18 426.71,-151.64 423.02,-141.71 417.63,-146.18"/>
</g>
<!-- squash -->
<g id="node18" class="node">
<title>squash</title>
<ellipse fill="white" stroke="black" cx="570.49" cy="-183.72" rx="38.99" ry="38.99"/>
<text text-anchor="middle" x="570.49" y="-180.02" font-family="Arial" font-size="14.00">squash</text>
</g>
<!-- create&#45;pr&#45;&gt;squash -->
<g id="edge3" class="edge">
<title>create&#45;pr&#45;&gt;squash</title>
<path fill="none" stroke="#1e90ff" d="M495.54,-183.72C503.78,-183.72 512.52,-183.72 521,-183.72"/>
<polygon fill="#1e90ff" stroke="#1e90ff" points="521.16,-187.22 531.16,-183.72 521.16,-180.22 521.16,-187.22"/>
</g>
<!-- create&#45;source&#45;map -->
<g id="node5" class="node">
<title>create&#45;source&#45;map</title>
<ellipse fill="white" stroke="black" cx="325.14" cy="-679.72" rx="43.68" ry="43.68"/>
<text text-anchor="middle" x="325.14" y="-691.02" font-family="Arial" font-size="14.00">create&#45;</text>
<text text-anchor="middle" x="325.14" y="-676.02" font-family="Arial" font-size="14.00">source&#45;</text>
<text text-anchor="middle" x="325.14" y="-661.02" font-family="Arial" font-size="14.00">map</text>
</g>
<!-- create&#45;source&#45;map&#45;&gt;commit -->
<g id="edge4" class="edge">
<title>create&#45;source&#45;map&#45;&gt;commit</title>
<path fill="none" stroke="#1e90ff" d="M354.41,-646.92C361.49,-638.7 369.06,-629.89 376.06,-621.72 390.63,-604.7 406.72,-585.83 420.39,-569.79"/>
<polygon fill="#1e90ff" stroke="#1e90ff" points="423.07,-572.04 426.89,-562.16 417.74,-567.51 423.07,-572.04"/>
</g>
<!-- debug -->
<g id="node6" class="node">
<title>debug</title>
<ellipse fill="white" stroke="black" cx="325.14" cy="-852.72" rx="35.19" ry="35.19"/>
<text text-anchor="middle" x="325.14" y="-849.02" font-family="Arial" font-size="14.00">debug</text>
</g>
<!-- debug&#45;&gt;commit -->
<g id="edge5" class="edge">
<title>debug&#45;&gt;commit</title>
<path fill="none" stroke="#1e90ff" d="M353.04,-831.22C361.43,-823.34 370.05,-813.85 376.06,-803.72 417.84,-733.18 437.76,-638.84 446.56,-581.82"/>
<polygon fill="#1e90ff" stroke="#1e90ff" points="450.07,-582.03 448.08,-571.62 443.15,-581 450.07,-582.03"/>
</g>
<!-- enhance&#45;legacy&#45;agent -->
<g id="node7" class="node">
<title>enhance&#45;legacy&#45;agent</title>
<ellipse fill="white" stroke="black" cx="51.62" cy="-950.72" rx="51.74" ry="51.74"/>
<text text-anchor="middle" x="51.62" y="-962.02" font-family="Arial" font-size="14.00">enhance&#45;</text>
<text text-anchor="middle" x="51.62" y="-947.02" font-family="Arial" font-size="14.00">legacy&#45;</text>
<text text-anchor="middle" x="51.62" y="-932.02" font-family="Arial" font-size="14.00">agent</text>
</g>
<!-- fix&#45;mr -->
<g id="node8" class="node">
<title>fix&#45;mr</title>
<ellipse fill="white" stroke="black" cx="188.74" cy="-99.72" rx="26.74" ry="26.74"/>
<text text-anchor="middle" x="188.74" y="-103.52" font-family="Arial" font-size="14.00">fix&#45;</text>
<text text-anchor="middle" x="188.74" y="-88.52" font-family="Arial" font-size="14.00">mr</text>
</g>
<!-- fix&#45;pr -->
<g id="node9" class="node">
<title>fix&#45;pr</title>
<ellipse fill="white" stroke="black" cx="325.14" cy="-128.72" rx="26.74" ry="26.74"/>
<text text-anchor="middle" x="325.14" y="-132.52" font-family="Arial" font-size="14.00">fix&#45;</text>
<text text-anchor="middle" x="325.14" y="-117.52" font-family="Arial" font-size="14.00">pr</text>
</g>
<!-- fix&#45;mr&#45;&gt;fix&#45;pr -->
<g id="edge6" class="edge">
<title>fix&#45;mr&#45;&gt;fix&#45;pr</title>
<path fill="none" stroke="#228b22" d="M215.33,-105.24C236.07,-109.72 265.53,-116.07 288.56,-121.04"/>
<polygon fill="#228b22" stroke="#228b22" points="288.13,-124.53 298.64,-123.22 289.6,-117.69 288.13,-124.53"/>
</g>
<!-- fix&#45;pr&#45;&gt;commit -->
<g id="edge7" class="edge">
<title>fix&#45;pr&#45;&gt;commit</title>
<path fill="none" stroke="#1e90ff" d="M342.18,-149.78C353.15,-165.12 367.25,-186.78 376.06,-207.72 415.03,-300.41 436.46,-416.72 446.19,-481.76"/>
<polygon fill="#1e90ff" stroke="#1e90ff" points="442.74,-482.36 447.66,-491.75 449.67,-481.35 442.74,-482.36"/>
</g>
<!-- fix&#45;pr&#45;&gt;create&#45;pr -->
<g id="edge8" class="edge">
<title>fix&#45;pr&#45;&gt;create&#45;pr</title>
<path fill="none" stroke="#228b22" d="M349.96,-139.06C365.65,-145.88 386.73,-155.03 405.72,-163.28"/>
<polygon fill="#228b22" stroke="#228b22" points="404.56,-166.59 415.12,-167.37 407.35,-160.17 404.56,-166.59"/>
</g>
<!-- improve&#45;prompt -->
<g id="node10" class="node">
<title>improve&#45;prompt</title>
<ellipse fill="white" stroke="black" cx="188.74" cy="-828.72" rx="49.49" ry="49.49"/>
<text text-anchor="middle" x="188.74" y="-832.52" font-family="Arial" font-size="14.00">improve&#45;</text>
<text text-anchor="middle" x="188.74" y="-817.52" font-family="Arial" font-size="14.00">prompt</text>
</g>
<!-- improve&#45;prompt&#45;&gt;commit -->
<g id="edge9" class="edge">
<title>improve&#45;prompt&#45;&gt;commit</title>
<path fill="none" stroke="#1e90ff" d="M237.44,-817.75C285.86,-805.75 356.41,-785.55 376.06,-765.72 425.14,-716.18 442.82,-634.76 449.19,-582.21"/>
<polygon fill="#1e90ff" stroke="#1e90ff" points="452.69,-582.43 450.32,-572.1 445.73,-581.65 452.69,-582.43"/>
</g>
<!-- improve&#45;prompt&#45;&gt;debug -->
<g id="edge10" class="edge">
<title>improve&#45;prompt&#45;&gt;debug</title>
<path fill="none" stroke="#228b22" d="M237.5,-837.25C251.45,-839.74 266.62,-842.45 280.32,-844.89"/>
<polygon fill="#228b22" stroke="#228b22" points="280,-848.39 290.45,-846.7 281.23,-841.5 280,-848.39"/>
</g>
<!-- optimize&#45;prompt -->
<g id="node11" class="node">
<title>optimize&#45;prompt</title>
<ellipse fill="white" stroke="black" cx="51.62" cy="-811.72" rx="50.82" ry="50.82"/>
<text text-anchor="middle" x="51.62" y="-815.52" font-family="Arial" font-size="14.00">optimize&#45;</text>
<text text-anchor="middle" x="51.62" y="-800.52" font-family="Arial" font-size="14.00">prompt</text>
</g>
<!-- optimize&#45;prompt&#45;&gt;commit -->
<g id="edge11" class="edge">
<title>optimize&#45;prompt&#45;&gt;commit</title>
<path fill="none" stroke="#1e90ff" d="M97.05,-787.74C110.32,-781.39 125.09,-775.1 139.24,-770.72 190.15,-754.94 334.7,-766.34 376.06,-732.72 421.59,-695.7 440.13,-628.41 447.66,-581.95"/>
<polygon fill="#1e90ff" stroke="#1e90ff" points="451.16,-582.2 449.19,-571.79 444.24,-581.16 451.16,-582.2"/>
</g>
<!-- optimize&#45;prompt&#45;&gt;improve&#45;prompt -->
<g id="edge12" class="edge">
<title>optimize&#45;prompt&#45;&gt;improve&#45;prompt</title>
<path fill="none" stroke="#228b22" d="M102.16,-817.95C111.03,-819.07 120.34,-820.24 129.42,-821.38"/>
<polygon fill="#228b22" stroke="#228b22" points="129.19,-824.88 139.55,-822.66 130.06,-817.94 129.19,-824.88"/>
</g>
<!-- optimize&#45;prompt&#45;&gt;optimize&#45;prompt -->
<g id="edge13" class="edge">
<title>optimize&#45;prompt&#45;&gt;optimize&#45;prompt</title>
<path fill="none" stroke="#228b22" d="M26.13,-855.79C26.52,-869.68 35.02,-880.63 51.62,-880.63 63.94,-880.63 71.8,-874.6 75.19,-865.81"/>
<polygon fill="#228b22" stroke="#228b22" points="78.66,-866.27 77.1,-855.79 71.79,-864.96 78.66,-866.27"/>
</g>
<!-- plan&#45;shipping -->
<g id="node12" class="node">
<title>plan&#45;shipping</title>
<ellipse fill="white" stroke="black" cx="51.62" cy="-679.72" rx="47.25" ry="47.25"/>
<text text-anchor="middle" x="51.62" y="-683.52" font-family="Arial" font-size="14.00">plan&#45;</text>
<text text-anchor="middle" x="51.62" y="-668.52" font-family="Arial" font-size="14.00">shipping</text>
</g>
<!-- read&#45;source&#45;map -->
<g id="node13" class="node">
<title>read&#45;source&#45;map</title>
<ellipse fill="white" stroke="black" cx="188.74" cy="-679.72" rx="43.68" ry="43.68"/>
<text text-anchor="middle" x="188.74" y="-691.02" font-family="Arial" font-size="14.00">read&#45;</text>
<text text-anchor="middle" x="188.74" y="-676.02" font-family="Arial" font-size="14.00">source&#45;</text>
<text text-anchor="middle" x="188.74" y="-661.02" font-family="Arial" font-size="14.00">map</text>
</g>
<!-- plan&#45;shipping&#45;&gt;read&#45;source&#45;map -->
<g id="edge14" class="edge">
<title>plan&#45;shipping&#45;&gt;read&#45;source&#45;map</title>
<path fill="none" stroke="#228b22" d="M99.12,-679.72C110.57,-679.72 122.92,-679.72 134.66,-679.72"/>
<polygon fill="#228b22" stroke="#228b22" points="134.78,-683.22 144.78,-679.72 134.78,-676.22 134.78,-683.22"/>
</g>
<!-- read&#45;source&#45;map&#45;&gt;create&#45;source&#45;map -->
<g id="edge15" class="edge">
<title>read&#45;source&#45;map&#45;&gt;create&#45;source&#45;map</title>
<path fill="none" stroke="#228b22" d="M232.63,-679.72C244.88,-679.72 258.37,-679.72 271.14,-679.72"/>
<polygon fill="#228b22" stroke="#228b22" points="271.19,-683.22 281.19,-679.72 271.19,-676.22 271.19,-683.22"/>
</g>
<!-- review&#45;mr -->
<g id="node14" class="node">
<title>review&#45;mr</title>
<ellipse fill="white" stroke="black" cx="51.62" cy="-143.72" rx="42.35" ry="42.35"/>
<text text-anchor="middle" x="51.62" y="-147.52" font-family="Arial" font-size="14.00">review&#45;</text>
<text text-anchor="middle" x="51.62" y="-132.52" font-family="Arial" font-size="14.00">mr</text>
</g>
<!-- review&#45;mr&#45;&gt;fix&#45;mr -->
<g id="edge16" class="edge">
<title>review&#45;mr&#45;&gt;fix&#45;mr</title>
<path fill="none" stroke="#228b22" d="M92.06,-130.87C111.48,-124.55 134.66,-117 153.34,-110.92"/>
<polygon fill="#228b22" stroke="#228b22" points="154.5,-114.22 162.93,-107.8 152.33,-107.57 154.5,-114.22"/>
</g>
<!-- review&#45;pr -->
<g id="node15" class="node">
<title>review&#45;pr</title>
<ellipse fill="white" stroke="black" cx="188.74" cy="-186.72" rx="42.35" ry="42.35"/>
<text text-anchor="middle" x="188.74" y="-190.52" font-family="Arial" font-size="14.00">review&#45;</text>
<text text-anchor="middle" x="188.74" y="-175.52" font-family="Arial" font-size="14.00">pr</text>
</g>
<!-- review&#45;mr&#45;&gt;review&#45;pr -->
<g id="edge17" class="edge">
<title>review&#45;mr&#45;&gt;review&#45;pr</title>
<path fill="none" stroke="#228b22" d="M92.43,-156.39C106.86,-160.98 123.34,-166.22 138.48,-171.05"/>
<polygon fill="#228b22" stroke="#228b22" points="137.62,-174.44 148.21,-174.14 139.74,-167.77 137.62,-174.44"/>
</g>
<!-- review&#45;pr&#45;&gt;commit -->
<g id="edge18" class="edge">
<title>review&#45;pr&#45;&gt;commit</title>
<path fill="none" stroke="#1e90ff" d="M230.19,-196.45C272.49,-208.68 337.91,-233.73 376.06,-278.72 425.38,-336.89 442.99,-426.13 449.28,-481.6"/>
<polygon fill="#1e90ff" stroke="#1e90ff" points="445.8,-481.97 450.33,-491.55 452.77,-481.24 445.8,-481.97"/>
</g>
<!-- review&#45;pr&#45;&gt;create&#45;pr -->
<g id="edge19" class="edge">
<title>review&#45;pr&#45;&gt;create&#45;pr</title>
<path fill="none" stroke="#228b22" d="M231.41,-186.24C277.53,-185.72 351.88,-184.87 401.52,-184.3"/>
<polygon fill="#228b22" stroke="#228b22" points="401.76,-187.8 411.72,-184.19 401.68,-180.8 401.76,-187.8"/>
</g>
<!-- review&#45;pr&#45;&gt;fix&#45;pr -->
<g id="edge20" class="edge">
<title>review&#45;pr&#45;&gt;fix&#45;pr</title>
<path fill="none" stroke="#228b22" d="M227.89,-170.25C247.81,-161.66 271.94,-151.24 291.06,-142.99"/>
<polygon fill="#228b22" stroke="#228b22" points="292.48,-146.19 300.28,-139.02 289.71,-139.77 292.48,-146.19"/>
</g>
<!-- ship -->
<g id="node16" class="node">
<title>ship</title>
<ellipse fill="white" stroke="black" cx="188.74" cy="-400.72" rx="26.8" ry="26.8"/>
<text text-anchor="middle" x="188.74" y="-397.02" font-family="Arial" font-size="14.00">ship</text>
</g>
<!-- ship&#45;&gt;commit -->
<g id="edge21" class="edge">
<title>ship&#45;&gt;commit</title>
<path fill="none" stroke="#1e90ff" d="M215.42,-401.28C253.2,-403.18 324.8,-410.94 376.06,-441.72 395.72,-453.53 412.83,-472.17 425.88,-489.43"/>
<polygon fill="#1e90ff" stroke="#1e90ff" points="423.23,-491.74 431.94,-497.76 428.88,-487.62 423.23,-491.74"/>
</g>
<!-- switch&#45;branches -->
<g id="node20" class="node">
<title>switch&#45;branches</title>
<ellipse fill="white" stroke="black" cx="325.14" cy="-338.72" rx="50.82" ry="50.82"/>
<text text-anchor="middle" x="325.14" y="-342.52" font-family="Arial" font-size="14.00">switch&#45;</text>
<text text-anchor="middle" x="325.14" y="-327.52" font-family="Arial" font-size="14.00">branches</text>
</g>
<!-- ship&#45;&gt;switch&#45;branches -->
<g id="edge22" class="edge">
<title>ship&#45;&gt;switch&#45;branches</title>
<path fill="none" stroke="#228b22" d="M213.15,-389.92C228.73,-382.73 249.88,-372.98 269.53,-363.91"/>
<polygon fill="#228b22" stroke="#228b22" points="271.12,-367.03 278.73,-359.67 268.19,-360.68 271.12,-367.03"/>
</g>
<!-- ship&#45;gh&#45;issue -->
<g id="node17" class="node">
<title>ship&#45;gh&#45;issue</title>
<ellipse fill="white" stroke="black" cx="51.62" cy="-427.72" rx="37.45" ry="37.45"/>
<text text-anchor="middle" x="51.62" y="-439.02" font-family="Arial" font-size="14.00">ship&#45;</text>
<text text-anchor="middle" x="51.62" y="-424.02" font-family="Arial" font-size="14.00">gh&#45;</text>
<text text-anchor="middle" x="51.62" y="-409.02" font-family="Arial" font-size="14.00">issue</text>
</g>
<!-- ship&#45;gh&#45;issue&#45;&gt;bump&#45;semver&#45;version -->
<g id="edge23" class="edge">
<title>ship&#45;gh&#45;issue&#45;&gt;bump&#45;semver&#45;version</title>
<path fill="none" stroke="#228b22" d="M79.96,-452.61C99,-469.94 124.74,-493.37 146.29,-512.99"/>
<polygon fill="#228b22" stroke="#228b22" points="143.96,-515.61 153.72,-519.75 148.68,-510.43 143.96,-515.61"/>
</g>
<!-- ship&#45;gh&#45;issue&#45;&gt;commit -->
<g id="edge24" class="edge">
<title>ship&#45;gh&#45;issue&#45;&gt;commit</title>
<path fill="none" stroke="#1e90ff" d="M89.11,-432C168.09,-441.41 349.9,-463.92 376.06,-474.72 390.01,-480.48 403.74,-489.35 415.64,-498.39"/>
<polygon fill="#1e90ff" stroke="#1e90ff" points="413.55,-501.19 423.57,-504.64 417.88,-495.7 413.55,-501.19"/>
</g>
<!-- ship&#45;gh&#45;issue&#45;&gt;create&#45;pr -->
<g id="edge25" class="edge">
<title>ship&#45;gh&#45;issue&#45;&gt;create&#45;pr</title>
<path fill="none" stroke="#228b22" d="M81.96,-405.69C98.59,-393.38 119.87,-377.91 139.24,-364.72 198.03,-324.67 212.79,-314.57 274.23,-278.72 318.5,-252.9 370.33,-225.64 406.7,-206.97"/>
<polygon fill="#228b22" stroke="#228b22" points="408.76,-209.85 416.07,-202.18 405.57,-203.62 408.76,-209.85"/>
</g>
<!-- ship&#45;gh&#45;issue&#45;&gt;ship -->
<g id="edge26" class="edge">
<title>ship&#45;gh&#45;issue&#45;&gt;ship</title>
<path fill="none" stroke="#228b22" d="M88.47,-420.55C108.31,-416.59 132.87,-411.68 152.59,-407.74"/>
<polygon fill="#228b22" stroke="#228b22" points="153.3,-411.17 162.42,-405.78 151.93,-404.31 153.3,-411.17"/>
</g>
<!-- suggest&#45;better&#45;function&#45;names -->
<g id="node19" class="node">
<title>suggest&#45;better&#45;function&#45;names</title>
<ellipse fill="white" stroke="black" cx="325.14" cy="-531.72" rx="48.17" ry="48.17"/>
<text text-anchor="middle" x="325.14" y="-550.52" font-family="Arial" font-size="14.00">suggest&#45;</text>
<text text-anchor="middle" x="325.14" y="-535.52" font-family="Arial" font-size="14.00">better&#45;</text>
<text text-anchor="middle" x="325.14" y="-520.52" font-family="Arial" font-size="14.00">function&#45;</text>
<text text-anchor="middle" x="325.14" y="-505.52" font-family="Arial" font-size="14.00">names</text>
</g>
<!-- suggest&#45;better&#45;function&#45;names&#45;&gt;commit -->
<g id="edge27" class="edge">
<title>suggest&#45;better&#45;function&#45;names&#45;&gt;commit</title>
<path fill="none" stroke="#1e90ff" d="M373.3,-531.72C383.11,-531.72 393.48,-531.72 403.37,-531.72"/>
<polygon fill="#1e90ff" stroke="#1e90ff" points="403.46,-535.22 413.46,-531.72 403.46,-528.22 403.46,-535.22"/>
</g>
<!-- switch&#45;branches&#45;&gt;commit -->
<g id="edge28" class="edge">
<title>switch&#45;branches&#45;&gt;commit</title>
<path fill="none" stroke="#1e90ff" d="M357.5,-378.06C363.82,-386.4 370.29,-395.25 376.06,-403.72 394.62,-431 413.7,-462.82 428.19,-487.91"/>
<polygon fill="#1e90ff" stroke="#1e90ff" points="425.29,-489.89 433.31,-496.82 431.36,-486.41 425.29,-489.89"/>
</g>
<!-- switch&#45;branches&#45;&gt;create&#45;pr -->
<g id="edge29" class="edge">
<title>switch&#45;branches&#45;&gt;create&#45;pr</title>
<path fill="none" stroke="#228b22" d="M358.1,-299.61C377.04,-276.42 400.99,-247.1 420.06,-223.76"/>
<polygon fill="#228b22" stroke="#228b22" points="422.97,-225.73 426.59,-215.77 417.55,-221.3 422.97,-225.73"/>
</g>
</g>
</svg>
