<?xml version="1.0" encoding="UTF-8" standalone="no"?>
<!DOCTYPE svg PUBLIC "-//W3C//DTD SVG 1.1//EN"
 "http://www.w3.org/Graphics/SVG/1.1/DTD/svg11.dtd">
<!-- Generated by graphviz version 2.43.0 (0)
 -->
<!-- Title: PromptReferences Pages: 1 -->
<svg width="737pt" height="918pt"
 viewBox="0.00 0.00 736.93 918.21" xmlns="http://www.w3.org/2000/svg" xmlns:xlink="http://www.w3.org/1999/xlink">
<g id="graph0" class="graph" transform="scale(1 1) rotate(0) translate(4 914.21)">
<title>PromptReferences</title>
<!-- bump&#45;semver&#45;version -->
<g id="node1" class="node">
<title>bump&#45;semver&#45;version</title>
<ellipse fill="white" stroke="black" cx="308.17" cy="-500.83" rx="46.84" ry="46.84"/>
<text text-anchor="middle" x="308.17" y="-512.13" font-family="Arial" font-size="14.00">bump&#45;</text>
<text text-anchor="middle" x="308.17" y="-497.13" font-family="Arial" font-size="14.00">semver&#45;</text>
<text text-anchor="middle" x="308.17" y="-482.13" font-family="Arial" font-size="14.00">version</text>
</g>
<!-- commit -->
<g id="node2" class="node">
<title>commit</title>
<ellipse fill="white" stroke="black" cx="573.21" cy="-588.83" rx="40.09" ry="40.09"/>
<text text-anchor="middle" x="573.21" y="-585.13" font-family="Arial" font-size="14.00">commit</text>
</g>
<!-- bump&#45;semver&#45;version&#45;&gt;commit -->
<g id="edge1" class="edge">
<title>bump&#45;semver&#45;version&#45;&gt;commit</title>
<path fill="none" stroke="#1e90ff" d="M342.82,-532.68C357.39,-544.69 375.3,-557.26 393.67,-564.83 435.04,-581.88 485.92,-587.37 522.77,-588.9"/>
<polygon fill="#1e90ff" stroke="#1e90ff" points="522.66,-592.39 532.77,-589.23 522.9,-585.4 522.66,-592.39"/>
</g>
<!-- create&#45;mr -->
<g id="node3" class="node">
<title>create&#45;mr</title>
<ellipse fill="white" stroke="black" cx="444.58" cy="-68.83" rx="41.94" ry="41.94"/>
<text text-anchor="middle" x="444.58" y="-72.63" font-family="Arial" font-size="14.00">create&#45;</text>
<text text-anchor="middle" x="444.58" y="-57.63" font-family="Arial" font-size="14.00">mr</text>
</g>
<!-- create&#45;pr -->
<g id="node4" class="node">
<title>create&#45;pr</title>
<ellipse fill="white" stroke="black" cx="573.21" cy="-208.83" rx="41.94" ry="41.94"/>
<text text-anchor="middle" x="573.21" y="-212.63" font-family="Arial" font-size="14.00">create&#45;</text>
<text text-anchor="middle" x="573.21" y="-197.63" font-family="Arial" font-size="14.00">pr</text>
</g>
<!-- create&#45;mr&#45;&gt;create&#45;pr -->
<g id="edge2" class="edge">
<title>create&#45;mr&#45;&gt;create&#45;pr</title>
<path fill="none" stroke="#228b22" d="M473.37,-99.56C492.26,-120.44 517.38,-148.21 537.57,-170.53"/>
<polygon fill="#228b22" stroke="#228b22" points="535.19,-173.11 544.49,-178.18 540.38,-168.42 535.19,-173.11"/>
</g>
<!-- squash -->
<g id="node17" class="node">
<title>squash</title>
<ellipse fill="white" stroke="black" cx="689.93" cy="-208.83" rx="38.99" ry="38.99"/>
<text text-anchor="middle" x="689.93" y="-205.13" font-family="Arial" font-size="14.00">squash</text>
</g>
<!-- create&#45;pr&#45;&gt;squash -->
<g id="edge3" class="edge">
<title>create&#45;pr&#45;&gt;squash</title>
<path fill="none" stroke="#1e90ff" d="M614.98,-208.83C623.22,-208.83 631.96,-208.83 640.44,-208.83"/>
<polygon fill="#1e90ff" stroke="#1e90ff" points="640.6,-212.33 650.6,-208.83 640.6,-205.33 640.6,-212.33"/>
</g>
<!-- create&#45;source&#45;map -->
<g id="node5" class="node">
<title>create&#45;source&#45;map</title>
<ellipse fill="white" stroke="black" cx="444.58" cy="-862.83" rx="43.68" ry="43.68"/>
<text text-anchor="middle" x="444.58" y="-874.13" font-family="Arial" font-size="14.00">create&#45;</text>
<text text-anchor="middle" x="444.58" y="-859.13" font-family="Arial" font-size="14.00">source&#45;</text>
<text text-anchor="middle" x="444.58" y="-844.13" font-family="Arial" font-size="14.00">map</text>
</g>
<!-- create&#45;source&#45;map&#45;&gt;commit -->
<g id="edge4" class="edge">
<title>create&#45;source&#45;map&#45;&gt;commit</title>
<path fill="none" stroke="#1e90ff" d="M475.83,-831.93C482.94,-823.59 490.03,-814.25 495.49,-804.83 526.51,-751.4 548.13,-683.33 560.33,-638.03"/>
<polygon fill="#1e90ff" stroke="#1e90ff" points="563.77,-638.72 562.94,-628.16 557,-636.93 563.77,-638.72"/>
</g>
<!-- debug -->
<g id="node6" class="node">
<title>debug</title>
<ellipse fill="white" stroke="black" cx="444.58" cy="-727.83" rx="35.19" ry="35.19"/>
<text text-anchor="middle" x="444.58" y="-724.13" font-family="Arial" font-size="14.00">debug</text>
</g>
<!-- debug&#45;&gt;commit -->
<g id="edge5" class="edge">
<title>debug&#45;&gt;commit</title>
<path fill="none" stroke="#1e90ff" d="M470.64,-704.08C478.73,-696.2 487.63,-687.27 495.49,-678.83 510.77,-662.44 526.97,-643.67 540.52,-627.52"/>
<polygon fill="#1e90ff" stroke="#1e90ff" points="543.22,-629.75 546.95,-619.83 537.85,-625.26 543.22,-629.75"/>
</g>
<!-- fix&#45;mr -->
<g id="node7" class="node">
<title>fix&#45;mr</title>
<ellipse fill="white" stroke="black" cx="171.76" cy="-147.83" rx="26.74" ry="26.74"/>
<text text-anchor="middle" x="171.76" y="-151.63" font-family="Arial" font-size="14.00">fix&#45;</text>
<text text-anchor="middle" x="171.76" y="-136.63" font-family="Arial" font-size="14.00">mr</text>
</g>
<!-- fix&#45;pr -->
<g id="node8" class="node">
<title>fix&#45;pr</title>
<ellipse fill="white" stroke="black" cx="308.17" cy="-147.83" rx="26.74" ry="26.74"/>
<text text-anchor="middle" x="308.17" y="-151.63" font-family="Arial" font-size="14.00">fix&#45;</text>
<text text-anchor="middle" x="308.17" y="-136.63" font-family="Arial" font-size="14.00">pr</text>
</g>
<!-- fix&#45;mr&#45;&gt;fix&#45;pr -->
<g id="edge6" class="edge">
<title>fix&#45;mr&#45;&gt;fix&#45;pr</title>
<path fill="none" stroke="#228b22" d="M198.68,-147.83C219.19,-147.83 248.07,-147.83 270.88,-147.83"/>
<polygon fill="#228b22" stroke="#228b22" points="270.88,-151.33 280.88,-147.83 270.88,-144.33 270.88,-151.33"/>
</g>
<!-- review&#45;mr -->
<g id="node13" class="node">
<title>review&#45;mr</title>
<ellipse fill="white" stroke="black" cx="42.43" cy="-147.83" rx="42.35" ry="42.35"/>
<text text-anchor="middle" x="42.43" y="-151.63" font-family="Arial" font-size="14.00">review&#45;</text>
<text text-anchor="middle" x="42.43" y="-136.63" font-family="Arial" font-size="14.00">mr</text>
</g>
<!-- fix&#45;mr&#45;&gt;review&#45;mr -->
<g id="edge7" class="edge">
<title>fix&#45;mr&#45;&gt;review&#45;mr</title>
<path fill="none" stroke="#228b22" d="M145.43,-153.35C130.87,-154.43 112.04,-154.8 94.53,-154.47"/>
<polygon fill="#228b22" stroke="#228b22" points="94.51,-150.96 84.42,-154.19 94.32,-157.96 94.51,-150.96"/>
</g>
<!-- fix&#45;pr&#45;&gt;commit -->
<g id="edge8" class="edge">
<title>fix&#45;pr&#45;&gt;commit</title>
<path fill="none" stroke="#1e90ff" d="M334.18,-140.47C373.71,-130.52 450.72,-118.24 495.49,-157.83 523.86,-182.92 554.56,-430.22 566.77,-538.5"/>
<polygon fill="#1e90ff" stroke="#1e90ff" points="563.3,-538.98 567.89,-548.53 570.26,-538.2 563.3,-538.98"/>
</g>
<!-- fix&#45;pr&#45;&gt;create&#45;pr -->
<g id="edge9" class="edge">
<title>fix&#45;pr&#45;&gt;create&#45;pr</title>
<path fill="none" stroke="#228b22" d="M317.25,-122.43C328.68,-91.31 352.86,-39.98 393.67,-17.83 433.45,3.75 458,7.51 495.49,-17.83 541.32,-48.81 559.78,-112.16 567.21,-157.41"/>
<polygon fill="#228b22" stroke="#228b22" points="563.76,-157.98 568.71,-167.34 570.68,-156.93 563.76,-157.98"/>
</g>
<!-- review&#45;pr -->
<g id="node14" class="node">
<title>review&#45;pr</title>
<ellipse fill="white" stroke="black" cx="444.58" cy="-208.83" rx="42.35" ry="42.35"/>
<text text-anchor="middle" x="444.58" y="-212.63" font-family="Arial" font-size="14.00">review&#45;</text>
<text text-anchor="middle" x="444.58" y="-197.63" font-family="Arial" font-size="14.00">pr</text>
</g>
<!-- fix&#45;pr&#45;&gt;review&#45;pr -->
<g id="edge10" class="edge">
<title>fix&#45;pr&#45;&gt;review&#45;pr</title>
<path fill="none" stroke="#228b22" d="M334.46,-153.9C352.69,-160.81 377.77,-171.87 399.3,-182.35"/>
<polygon fill="#228b22" stroke="#228b22" points="397.76,-185.49 408.27,-186.78 400.86,-179.21 397.76,-185.49"/>
</g>
<!-- improve&#45;prompt -->
<g id="node9" class="node">
<title>improve&#45;prompt</title>
<ellipse fill="white" stroke="black" cx="308.17" cy="-713.83" rx="49.49" ry="49.49"/>
<text text-anchor="middle" x="308.17" y="-717.63" font-family="Arial" font-size="14.00">improve&#45;</text>
<text text-anchor="middle" x="308.17" y="-702.63" font-family="Arial" font-size="14.00">prompt</text>
</g>
<!-- improve&#45;prompt&#45;&gt;commit -->
<g id="edge11" class="edge">
<title>improve&#45;prompt&#45;&gt;commit</title>
<path fill="none" stroke="#1e90ff" d="M355.16,-697.15C401.75,-680.01 470.44,-654.02 495.49,-640.83 507.75,-634.38 520.43,-626.39 531.88,-618.63"/>
<polygon fill="#1e90ff" stroke="#1e90ff" points="534.12,-621.33 540.36,-612.76 530.14,-615.57 534.12,-621.33"/>
</g>
<!-- improve&#45;prompt&#45;&gt;debug -->
<g id="edge12" class="edge">
<title>improve&#45;prompt&#45;&gt;debug</title>
<path fill="none" stroke="#228b22" d="M357.7,-718.89C371.23,-720.3 385.85,-721.82 399.13,-723.2"/>
<polygon fill="#228b22" stroke="#228b22" points="399.14,-726.72 409.45,-724.28 399.86,-719.76 399.14,-726.72"/>
</g>
<!-- optimize&#45;prompt -->
<g id="node10" class="node">
<title>optimize&#45;prompt</title>
<ellipse fill="white" stroke="black" cx="171.76" cy="-720.83" rx="50.82" ry="50.82"/>
<text text-anchor="middle" x="171.76" y="-724.63" font-family="Arial" font-size="14.00">optimize&#45;</text>
<text text-anchor="middle" x="171.76" y="-709.63" font-family="Arial" font-size="14.00">prompt</text>
</g>
<!-- optimize&#45;prompt&#45;&gt;commit -->
<g id="edge13" class="edge">
<title>optimize&#45;prompt&#45;&gt;commit</title>
<path fill="none" stroke="#1e90ff" d="M213.11,-750.8C226.86,-759.32 242.79,-767.47 258.68,-771.83 360.18,-799.69 407.86,-830.12 495.49,-771.83 539.58,-742.51 558.38,-682.45 566.37,-639.12"/>
<polygon fill="#1e90ff" stroke="#1e90ff" points="569.86,-639.49 568.09,-629.04 562.96,-638.31 569.86,-639.49"/>
</g>
<!-- optimize&#45;prompt&#45;&gt;improve&#45;prompt -->
<g id="edge14" class="edge">
<title>optimize&#45;prompt&#45;&gt;improve&#45;prompt</title>
<path fill="none" stroke="#228b22" d="M222.81,-718.23C231.09,-717.8 239.74,-717.35 248.21,-716.9"/>
<polygon fill="#228b22" stroke="#228b22" points="248.62,-720.39 258.42,-716.37 248.25,-713.4 248.62,-720.39"/>
</g>
<!-- optimize&#45;prompt&#45;&gt;optimize&#45;prompt -->
<g id="edge15" class="edge">
<title>optimize&#45;prompt&#45;&gt;optimize&#45;prompt</title>
<path fill="none" stroke="#228b22" d="M147.82,-765.9C148.53,-779.31 156.51,-789.75 171.76,-789.75 182.96,-789.75 190.24,-784.12 193.6,-775.82"/>
<polygon fill="#228b22" stroke="#228b22" points="197.06,-776.41 195.71,-765.9 190.21,-774.96 197.06,-776.41"/>
</g>
<!-- plan&#45;shipping -->
<g id="node11" class="node">
<title>plan&#45;shipping</title>
<ellipse fill="white" stroke="black" cx="171.76" cy="-862.83" rx="47.25" ry="47.25"/>
<text text-anchor="middle" x="171.76" y="-866.63" font-family="Arial" font-size="14.00">plan&#45;</text>
<text text-anchor="middle" x="171.76" y="-851.63" font-family="Arial" font-size="14.00">shipping</text>
</g>
<!-- read&#45;source&#45;map -->
<g id="node12" class="node">
<title>read&#45;source&#45;map</title>
<ellipse fill="white" stroke="black" cx="308.17" cy="-862.83" rx="43.68" ry="43.68"/>
<text text-anchor="middle" x="308.17" y="-874.13" font-family="Arial" font-size="14.00">read&#45;</text>
<text text-anchor="middle" x="308.17" y="-859.13" font-family="Arial" font-size="14.00">source&#45;</text>
<text text-anchor="middle" x="308.17" y="-844.13" font-family="Arial" font-size="14.00">map</text>
</g>
<!-- plan&#45;shipping&#45;&gt;read&#45;source&#45;map -->
<g id="edge16" class="edge">
<title>plan&#45;shipping&#45;&gt;read&#45;source&#45;map</title>
<path fill="none" stroke="#228b22" d="M219.4,-862.83C230.54,-862.83 242.52,-862.83 253.94,-862.83"/>
<polygon fill="#228b22" stroke="#228b22" points="254.23,-866.33 264.23,-862.83 254.23,-859.33 254.23,-866.33"/>
</g>
<!-- read&#45;source&#45;map&#45;&gt;create&#45;source&#45;map -->
<g id="edge17" class="edge">
<title>read&#45;source&#45;map&#45;&gt;create&#45;source&#45;map</title>
<path fill="none" stroke="#228b22" d="M352.07,-862.83C364.32,-862.83 377.81,-862.83 390.58,-862.83"/>
<polygon fill="#228b22" stroke="#228b22" points="390.63,-866.33 400.63,-862.83 390.63,-859.33 390.63,-866.33"/>
</g>
<!-- review&#45;mr&#45;&gt;fix&#45;mr -->
<g id="edge18" class="edge">
<title>review&#45;mr&#45;&gt;fix&#45;mr</title>
<path fill="none" stroke="#228b22" d="M84.42,-141.48C100.72,-140.89 119.31,-140.96 135.05,-141.7"/>
<polygon fill="#228b22" stroke="#228b22" points="135.24,-145.22 145.43,-142.32 135.66,-138.23 135.24,-145.22"/>
</g>
<!-- review&#45;mr&#45;&gt;review&#45;pr -->
<g id="edge19" class="edge">
<title>review&#45;mr&#45;&gt;review&#45;pr</title>
<path fill="none" stroke="#228b22" d="M79.83,-168.03C92.46,-174.14 106.94,-180.19 120.85,-183.83 214.06,-208.26 327.18,-211.18 391.73,-210.45"/>
<polygon fill="#228b22" stroke="#228b22" points="392.1,-213.94 402.05,-210.29 392,-206.94 392.1,-213.94"/>
</g>
<!-- review&#45;pr&#45;&gt;commit -->
<g id="edge20" class="edge">
<title>review&#45;pr&#45;&gt;commit</title>
<path fill="none" stroke="#1e90ff" d="M468.13,-244.18C477.57,-260.11 488.05,-279.44 495.49,-297.83 528.58,-379.62 551.4,-480.12 563.1,-539.07"/>
<polygon fill="#1e90ff" stroke="#1e90ff" points="559.73,-540.08 565.09,-549.22 566.6,-538.73 559.73,-540.08"/>
</g>
<!-- review&#45;pr&#45;&gt;create&#45;pr -->
<g id="edge21" class="edge">
<title>review&#45;pr&#45;&gt;create&#45;pr</title>
<path fill="none" stroke="#228b22" d="M487.05,-208.83C497.87,-208.83 509.67,-208.83 520.93,-208.83"/>
<polygon fill="#228b22" stroke="#228b22" points="521.09,-212.33 531.09,-208.83 521.09,-205.33 521.09,-212.33"/>
</g>
<!-- review&#45;pr&#45;&gt;fix&#45;pr -->
<g id="edge22" class="edge">
<title>review&#45;pr&#45;&gt;fix&#45;pr</title>
<path fill="none" stroke="#228b22" d="M403.61,-196.92C383.19,-188.48 358.74,-177.23 339.83,-167.52"/>
<polygon fill="#228b22" stroke="#228b22" points="341.25,-164.31 330.77,-162.75 337.99,-170.5 341.25,-164.31"/>
</g>
<!-- ship -->
<g id="node15" class="node">
<title>ship</title>
<ellipse fill="white" stroke="black" cx="308.17" cy="-383.83" rx="26.8" ry="26.8"/>
<text text-anchor="middle" x="308.17" y="-380.13" font-family="Arial" font-size="14.00">ship</text>
</g>
<!-- ship&#45;&gt;commit -->
<g id="edge23" class="edge">
<title>ship&#45;&gt;commit</title>
<path fill="none" stroke="#1e90ff" d="M326.83,-403.14C336.76,-414.66 348.89,-429.91 357.67,-444.83 378.9,-480.9 362.87,-503.5 393.67,-531.83 394.93,-532.99 472,-557.36 524.46,-573.85"/>
<polygon fill="#1e90ff" stroke="#1e90ff" points="523.68,-577.28 534.27,-576.94 525.78,-570.6 523.68,-577.28"/>
</g>
<!-- switch&#45;branches -->
<g id="node19" class="node">
<title>switch&#45;branches</title>
<ellipse fill="white" stroke="black" cx="444.58" cy="-357.83" rx="50.82" ry="50.82"/>
<text text-anchor="middle" x="444.58" y="-361.63" font-family="Arial" font-size="14.00">switch&#45;</text>
<text text-anchor="middle" x="444.58" y="-346.63" font-family="Arial" font-size="14.00">branches</text>
</g>
<!-- ship&#45;&gt;switch&#45;branches -->
<g id="edge24" class="edge">
<title>ship&#45;&gt;switch&#45;branches</title>
<path fill="none" stroke="#228b22" d="M334.46,-378.94C348.57,-376.21 366.79,-372.69 384.28,-369.31"/>
<polygon fill="#228b22" stroke="#228b22" points="385.31,-372.67 394.46,-367.34 383.98,-365.8 385.31,-372.67"/>
</g>
<!-- ship&#45;gh&#45;issue -->
<g id="node16" class="node">
<title>ship&#45;gh&#45;issue</title>
<ellipse fill="white" stroke="black" cx="171.76" cy="-383.83" rx="37.45" ry="37.45"/>
<text text-anchor="middle" x="171.76" y="-395.13" font-family="Arial" font-size="14.00">ship&#45;</text>
<text text-anchor="middle" x="171.76" y="-380.13" font-family="Arial" font-size="14.00">gh&#45;</text>
<text text-anchor="middle" x="171.76" y="-365.13" font-family="Arial" font-size="14.00">issue</text>
</g>
<!-- ship&#45;gh&#45;issue&#45;&gt;bump&#45;semver&#45;version -->
<g id="edge25" class="edge">
<title>ship&#45;gh&#45;issue&#45;&gt;bump&#45;semver&#45;version</title>
<path fill="none" stroke="#228b22" d="M200.61,-408.08C219.02,-424.1 243.52,-445.42 264.38,-463.58"/>
<polygon fill="#228b22" stroke="#228b22" points="262.33,-466.44 272.17,-470.37 266.93,-461.16 262.33,-466.44"/>
</g>
<!-- ship&#45;gh&#45;issue&#45;&gt;commit -->
<g id="edge26" class="edge">
<title>ship&#45;gh&#45;issue&#45;&gt;commit</title>
<path fill="none" stroke="#1e90ff" d="M181.14,-420.41C192.13,-460.01 215.34,-522.16 258.68,-556.83 334.67,-617.64 456.42,-609.4 523.66,-598.7"/>
<polygon fill="#1e90ff" stroke="#1e90ff" points="524.29,-602.15 533.57,-597.04 523.13,-595.24 524.29,-602.15"/>
</g>
<!-- ship&#45;gh&#45;issue&#45;&gt;create&#45;pr -->
<g id="edge27" class="edge">
<title>ship&#45;gh&#45;issue&#45;&gt;create&#45;pr</title>
<path fill="none" stroke="#228b22" d="M206.5,-369.32C222.29,-362.63 241.38,-354.67 258.68,-347.83 261.94,-346.54 492.37,-261.43 495.49,-259.83 507.42,-253.76 519.74,-246.21 530.93,-238.79"/>
<polygon fill="#228b22" stroke="#228b22" points="532.92,-241.67 539.24,-233.18 529,-235.87 532.92,-241.67"/>
</g>
<!-- ship&#45;gh&#45;issue&#45;&gt;review&#45;pr -->
<g id="edge28" class="edge">
<title>ship&#45;gh&#45;issue&#45;&gt;review&#45;pr</title>
<path fill="none" stroke="#228b22" d="M189.05,-350.4C203.74,-323.58 227.77,-286.89 258.68,-264.83 298.49,-236.43 352.93,-222.21 392.43,-215.24"/>
<polygon fill="#228b22" stroke="#228b22" points="393.09,-218.68 402.38,-213.58 391.94,-211.77 393.09,-218.68"/>
</g>
<!-- ship&#45;gh&#45;issue&#45;&gt;ship -->
<g id="edge29" class="edge">
<title>ship&#45;gh&#45;issue&#45;&gt;ship</title>
<path fill="none" stroke="#228b22" d="M209.49,-383.83C228.64,-383.83 251.98,-383.83 271.04,-383.83"/>
<polygon fill="#228b22" stroke="#228b22" points="271.14,-387.33 281.14,-383.83 271.14,-380.33 271.14,-387.33"/>
</g>
<!-- suggest&#45;better&#45;function&#45;names -->
<g id="node18" class="node">
<title>suggest&#45;better&#45;function&#45;names</title>
<ellipse fill="white" stroke="black" cx="444.58" cy="-474.83" rx="48.17" ry="48.17"/>
<text text-anchor="middle" x="444.58" y="-493.63" font-family="Arial" font-size="14.00">suggest&#45;</text>
<text text-anchor="middle" x="444.58" y="-478.63" font-family="Arial" font-size="14.00">better&#45;</text>
<text text-anchor="middle" x="444.58" y="-463.63" font-family="Arial" font-size="14.00">function&#45;</text>
<text text-anchor="middle" x="444.58" y="-448.63" font-family="Arial" font-size="14.00">names</text>
</g>
<!-- suggest&#45;better&#45;function&#45;names&#45;&gt;commit -->
<g id="edge30" class="edge">
<title>suggest&#45;better&#45;function&#45;names&#45;&gt;commit</title>
<path fill="none" stroke="#1e90ff" d="M480.86,-506.59C497.74,-521.79 517.95,-539.98 535.07,-555.39"/>
<polygon fill="#1e90ff" stroke="#1e90ff" points="532.92,-558.17 542.69,-562.26 537.6,-552.96 532.92,-558.17"/>
</g>
<!-- switch&#45;branches&#45;&gt;commit -->
<g id="edge31" class="edge">
<title>switch&#45;branches&#45;&gt;commit</title>
<path fill="none" stroke="#1e90ff" d="M479.43,-395.39C485.15,-402.58 490.76,-410.25 495.49,-417.83 520.13,-457.32 541.19,-506.08 554.98,-541.41"/>
<polygon fill="#1e90ff" stroke="#1e90ff" points="551.81,-542.92 558.67,-551 558.34,-540.41 551.81,-542.92"/>
</g>
<!-- switch&#45;branches&#45;&gt;create&#45;pr -->
<g id="edge32" class="edge">
<title>switch&#45;branches&#45;&gt;create&#45;pr</title>
<path fill="none" stroke="#228b22" d="M478.19,-319.46C496.73,-297.65 519.9,-270.39 538.6,-248.39"/>
<polygon fill="#228b22" stroke="#228b22" points="541.46,-250.43 545.27,-240.54 536.12,-245.89 541.46,-250.43"/>
</g>
</g>
</svg>
