<?xml version="1.0" encoding="UTF-8" standalone="no"?>
<!DOCTYPE svg PUBLIC "-//W3C//DTD SVG 1.1//EN"
 "http://www.w3.org/Graphics/SVG/1.1/DTD/svg11.dtd">
<!-- Generated by graphviz version 2.43.0 (0)
 -->
<!-- Title: PromptReferences Pages: 1 -->
<svg width="610pt" height="691pt"
 viewBox="0.00 0.00 610.42 690.80" xmlns="http://www.w3.org/2000/svg" xmlns:xlink="http://www.w3.org/1999/xlink">
<g id="graph0" class="graph" transform="scale(1 1) rotate(0) translate(4 686.8)">
<title>PromptReferences</title>
<!-- bump&#45;semver&#45;version -->
<g id="node1" class="node">
<title>bump&#45;semver&#45;version</title>
<ellipse fill="white" stroke="black" cx="50.91" cy="-520.72" rx="46.84" ry="46.84"/>
<text text-anchor="middle" x="50.91" y="-532.02" font-family="Arial" font-size="14.00">bump&#45;</text>
<text text-anchor="middle" x="50.91" y="-517.02" font-family="Arial" font-size="14.00">semver&#45;</text>
<text text-anchor="middle" x="50.91" y="-502.02" font-family="Arial" font-size="14.00">version</text>
</g>
<!-- commit -->
<g id="node2" class="node">
<title>commit</title>
<ellipse fill="white" stroke="black" cx="446.7" cy="-313.72" rx="40.09" ry="40.09"/>
<text text-anchor="middle" x="446.7" y="-310.02" font-family="Arial" font-size="14.00">commit</text>
</g>
<!-- bump&#45;semver&#45;version&#45;&gt;commit -->
<g id="edge1" class="edge">
<title>bump&#45;semver&#45;version&#45;&gt;commit</title>
<path fill="none" stroke="#1e90ff" d="M95.82,-533.66C162.3,-550.37 289.17,-570.6 368.98,-509.72 414.36,-475.11 432.93,-409.77 440.51,-364.09"/>
<polygon fill="#1e90ff" stroke="#1e90ff" points="443.98,-364.49 442.04,-354.08 437.07,-363.43 443.98,-364.49"/>
</g>
<!-- create&#45;simple&#45;source&#45;map -->
<g id="node4" class="node">
<title>create&#45;simple&#45;source&#45;map</title>
<ellipse fill="white" stroke="black" cx="320.9" cy="-452.72" rx="48.17" ry="48.17"/>
<text text-anchor="middle" x="320.9" y="-471.52" font-family="Arial" font-size="14.00">create&#45;</text>
<text text-anchor="middle" x="320.9" y="-456.52" font-family="Arial" font-size="14.00">simple&#45;</text>
<text text-anchor="middle" x="320.9" y="-441.52" font-family="Arial" font-size="14.00">source&#45;</text>
<text text-anchor="middle" x="320.9" y="-426.52" font-family="Arial" font-size="14.00">map</text>
</g>
<!-- bump&#45;semver&#45;version&#45;&gt;create&#45;simple&#45;source&#45;map -->
<g id="edge2" class="edge">
<title>bump&#45;semver&#45;version&#45;&gt;create&#45;simple&#45;source&#45;map</title>
<path fill="none" stroke="#228b22" d="M97.88,-521.41C136,-520.71 191.14,-516.74 236.82,-501.72 248.87,-497.76 261.06,-491.85 272.26,-485.5"/>
<polygon fill="#228b22" stroke="#228b22" points="274.17,-488.43 281,-480.33 270.61,-482.4 274.17,-488.43"/>
</g>
<!-- read&#45;source&#45;map -->
<g id="node9" class="node">
<title>read&#45;source&#45;map</title>
<ellipse fill="white" stroke="black" cx="187.32" cy="-448.72" rx="43.68" ry="43.68"/>
<text text-anchor="middle" x="187.32" y="-460.02" font-family="Arial" font-size="14.00">read&#45;</text>
<text text-anchor="middle" x="187.32" y="-445.02" font-family="Arial" font-size="14.00">source&#45;</text>
<text text-anchor="middle" x="187.32" y="-430.02" font-family="Arial" font-size="14.00">map</text>
</g>
<!-- bump&#45;semver&#45;version&#45;&gt;read&#45;source&#45;map -->
<g id="edge3" class="edge">
<title>bump&#45;semver&#45;version&#45;&gt;read&#45;source&#45;map</title>
<path fill="none" stroke="#228b22" d="M92.6,-498.92C107.19,-491.11 123.77,-482.23 138.88,-474.13"/>
<polygon fill="#228b22" stroke="#228b22" points="140.9,-477.02 148.07,-469.21 137.6,-470.85 140.9,-477.02"/>
</g>
<!-- create&#45;pr -->
<g id="node3" class="node">
<title>create&#45;pr</title>
<ellipse fill="white" stroke="black" cx="446.7" cy="-41.72" rx="41.94" ry="41.94"/>
<text text-anchor="middle" x="446.7" y="-45.52" font-family="Arial" font-size="14.00">create&#45;</text>
<text text-anchor="middle" x="446.7" y="-30.52" font-family="Arial" font-size="14.00">pr</text>
</g>
<!-- squash -->
<g id="node12" class="node">
<title>squash</title>
<ellipse fill="white" stroke="black" cx="563.42" cy="-41.72" rx="38.99" ry="38.99"/>
<text text-anchor="middle" x="563.42" y="-38.02" font-family="Arial" font-size="14.00">squash</text>
</g>
<!-- create&#45;pr&#45;&gt;squash -->
<g id="edge4" class="edge">
<title>create&#45;pr&#45;&gt;squash</title>
<path fill="none" stroke="#1e90ff" d="M488.47,-41.72C496.71,-41.72 505.45,-41.72 513.93,-41.72"/>
<polygon fill="#1e90ff" stroke="#1e90ff" points="514.09,-45.22 524.09,-41.72 514.09,-38.22 514.09,-45.22"/>
</g>
<!-- create&#45;simple&#45;source&#45;map&#45;&gt;commit -->
<g id="edge5" class="edge">
<title>create&#45;simple&#45;source&#45;map&#45;&gt;commit</title>
<path fill="none" stroke="#1e90ff" d="M353.46,-417.28C371.5,-397.03 394.11,-371.64 412.43,-351.08"/>
<polygon fill="#1e90ff" stroke="#1e90ff" points="415.19,-353.25 419.22,-343.45 409.96,-348.59 415.19,-353.25"/>
</g>
<!-- debug -->
<g id="node5" class="node">
<title>debug</title>
<ellipse fill="white" stroke="black" cx="320.9" cy="-313.72" rx="35.19" ry="35.19"/>
<text text-anchor="middle" x="320.9" y="-310.02" font-family="Arial" font-size="14.00">debug</text>
</g>
<!-- debug&#45;&gt;commit -->
<g id="edge6" class="edge">
<title>debug&#45;&gt;commit</title>
<path fill="none" stroke="#1e90ff" d="M356.06,-313.72C368.38,-313.72 382.55,-313.72 395.93,-313.72"/>
<polygon fill="#1e90ff" stroke="#1e90ff" points="395.96,-317.22 405.96,-313.72 395.96,-310.22 395.96,-317.22"/>
</g>
<!-- fix&#45;pr -->
<g id="node6" class="node">
<title>fix&#45;pr</title>
<ellipse fill="white" stroke="black" cx="187.32" cy="-76.72" rx="26.74" ry="26.74"/>
<text text-anchor="middle" x="187.32" y="-80.52" font-family="Arial" font-size="14.00">fix&#45;</text>
<text text-anchor="middle" x="187.32" y="-65.52" font-family="Arial" font-size="14.00">pr</text>
</g>
<!-- fix&#45;pr&#45;&gt;commit -->
<g id="edge7" class="edge">
<title>fix&#45;pr&#45;&gt;commit</title>
<path fill="none" stroke="#1e90ff" d="M210.48,-91.12C227.28,-101.78 251.1,-116.37 272.82,-127.72 314.31,-149.41 334.71,-138.83 368.98,-170.72 396.99,-196.78 416.88,-235.44 429.37,-265.99"/>
<polygon fill="#1e90ff" stroke="#1e90ff" points="426.24,-267.58 433.17,-275.59 432.75,-265.01 426.24,-267.58"/>
</g>
<!-- fix&#45;pr&#45;&gt;create&#45;pr -->
<g id="edge8" class="edge">
<title>fix&#45;pr&#45;&gt;create&#45;pr</title>
<path fill="none" stroke="#228b22" d="M208.7,-60.03C224.95,-47.86 248.88,-32.38 272.82,-25.72 313.52,-14.39 361.48,-20.26 396.55,-27.9"/>
<polygon fill="#228b22" stroke="#228b22" points="396.01,-31.36 406.54,-30.19 397.57,-24.54 396.01,-31.36"/>
</g>
<!-- review&#45;pr -->
<g id="node10" class="node">
<title>review&#45;pr</title>
<ellipse fill="white" stroke="black" cx="320.9" cy="-76.72" rx="42.35" ry="42.35"/>
<text text-anchor="middle" x="320.9" y="-80.52" font-family="Arial" font-size="14.00">review&#45;</text>
<text text-anchor="middle" x="320.9" y="-65.52" font-family="Arial" font-size="14.00">pr</text>
</g>
<!-- fix&#45;pr&#45;&gt;review&#45;pr -->
<g id="edge9" class="edge">
<title>fix&#45;pr&#45;&gt;review&#45;pr</title>
<path fill="none" stroke="#228b22" d="M213.69,-71.26C229.25,-70.11 249.75,-69.73 268.57,-70.12"/>
<polygon fill="#228b22" stroke="#228b22" points="268.72,-73.62 278.82,-70.41 268.93,-66.63 268.72,-73.62"/>
</g>
<!-- improve&#45;prompt -->
<g id="node7" class="node">
<title>improve&#45;prompt</title>
<ellipse fill="white" stroke="black" cx="187.32" cy="-261.72" rx="49.49" ry="49.49"/>
<text text-anchor="middle" x="187.32" y="-265.52" font-family="Arial" font-size="14.00">improve&#45;</text>
<text text-anchor="middle" x="187.32" y="-250.52" font-family="Arial" font-size="14.00">prompt</text>
</g>
<!-- improve&#45;prompt&#45;&gt;commit -->
<g id="edge10" class="edge">
<title>improve&#45;prompt&#45;&gt;commit</title>
<path fill="none" stroke="#1e90ff" d="M236.87,-257.74C273.83,-256.16 325.57,-257.12 368.98,-269.72 381.2,-273.27 393.55,-279.12 404.66,-285.43"/>
<polygon fill="#1e90ff" stroke="#1e90ff" points="402.89,-288.45 413.28,-290.54 406.46,-282.43 402.89,-288.45"/>
</g>
<!-- improve&#45;prompt&#45;&gt;debug -->
<g id="edge11" class="edge">
<title>improve&#45;prompt&#45;&gt;debug</title>
<path fill="none" stroke="#228b22" d="M233.6,-279.61C248.1,-285.34 264.07,-291.66 278.29,-297.28"/>
<polygon fill="#228b22" stroke="#228b22" points="277.23,-300.62 287.82,-301.04 279.8,-294.11 277.23,-300.62"/>
</g>
<!-- optimize&#45;prompt -->
<g id="node8" class="node">
<title>optimize&#45;prompt</title>
<ellipse fill="white" stroke="black" cx="50.91" cy="-223.72" rx="50.82" ry="50.82"/>
<text text-anchor="middle" x="50.91" y="-227.52" font-family="Arial" font-size="14.00">optimize&#45;</text>
<text text-anchor="middle" x="50.91" y="-212.52" font-family="Arial" font-size="14.00">prompt</text>
</g>
<!-- optimize&#45;prompt&#45;&gt;commit -->
<g id="edge12" class="edge">
<title>optimize&#45;prompt&#45;&gt;commit</title>
<path fill="none" stroke="#1e90ff" d="M100.19,-210.44C112.37,-207.66 125.5,-205.13 137.82,-203.72 181.53,-198.7 193.51,-195.95 236.82,-203.72 298.48,-214.78 314.41,-221.95 368.98,-252.72 382.59,-260.39 396.31,-270.41 408.3,-280.1"/>
<polygon fill="#1e90ff" stroke="#1e90ff" points="406.38,-283.04 416.31,-286.72 410.84,-277.65 406.38,-283.04"/>
</g>
<!-- optimize&#45;prompt&#45;&gt;improve&#45;prompt -->
<g id="edge13" class="edge">
<title>optimize&#45;prompt&#45;&gt;improve&#45;prompt</title>
<path fill="none" stroke="#228b22" d="M100.06,-237.33C109.66,-240.05 119.83,-242.92 129.69,-245.71"/>
<polygon fill="#228b22" stroke="#228b22" points="128.84,-249.1 139.41,-248.46 130.74,-242.37 128.84,-249.1"/>
</g>
<!-- optimize&#45;prompt&#45;&gt;optimize&#45;prompt -->
<g id="edge14" class="edge">
<title>optimize&#45;prompt&#45;&gt;optimize&#45;prompt</title>
<path fill="none" stroke="#228b22" d="M25.43,-267.79C25.81,-281.68 34.31,-292.63 50.91,-292.63 63.23,-292.63 71.09,-286.6 74.48,-277.81"/>
<polygon fill="#228b22" stroke="#228b22" points="77.96,-278.27 76.4,-267.79 71.08,-276.96 77.96,-278.27"/>
</g>
<!-- read&#45;source&#45;map&#45;&gt;create&#45;simple&#45;source&#45;map -->
<g id="edge15" class="edge">
<title>read&#45;source&#45;map&#45;&gt;create&#45;simple&#45;source&#45;map</title>
<path fill="none" stroke="#228b22" d="M231.41,-450.03C241.3,-450.33 251.97,-450.65 262.37,-450.97"/>
<polygon fill="#228b22" stroke="#228b22" points="262.53,-454.48 272.63,-451.28 262.74,-447.48 262.53,-454.48"/>
</g>
<!-- review&#45;pr&#45;&gt;commit -->
<g id="edge16" class="edge">
<title>review&#45;pr&#45;&gt;commit</title>
<path fill="none" stroke="#1e90ff" d="M350.53,-107.45C357.08,-115.34 363.67,-124.06 368.98,-132.72 395.02,-175.19 416.31,-228.07 429.8,-265.68"/>
<polygon fill="#1e90ff" stroke="#1e90ff" points="426.59,-267.12 433.22,-275.38 433.19,-264.78 426.59,-267.12"/>
</g>
<!-- review&#45;pr&#45;&gt;create&#45;pr -->
<g id="edge17" class="edge">
<title>review&#45;pr&#45;&gt;create&#45;pr</title>
<path fill="none" stroke="#228b22" d="M362.1,-65.36C373.02,-62.27 384.97,-58.89 396.34,-55.68"/>
<polygon fill="#228b22" stroke="#228b22" points="397.46,-58.99 406.13,-52.91 395.56,-52.26 397.46,-58.99"/>
</g>
<!-- review&#45;pr&#45;&gt;fix&#45;pr -->
<g id="edge18" class="edge">
<title>review&#45;pr&#45;&gt;fix&#45;pr</title>
<path fill="none" stroke="#228b22" d="M278.82,-83.03C261.17,-83.69 240.74,-83.61 223.76,-82.79"/>
<polygon fill="#228b22" stroke="#228b22" points="223.88,-79.29 213.69,-82.18 223.46,-86.27 223.88,-79.29"/>
</g>
<!-- ship -->
<g id="node11" class="node">
<title>ship</title>
<ellipse fill="white" stroke="black" cx="50.91" cy="-376.72" rx="26.8" ry="26.8"/>
<text text-anchor="middle" x="50.91" y="-373.02" font-family="Arial" font-size="14.00">ship</text>
</g>
<!-- ship&#45;&gt;commit -->
<g id="edge19" class="edge">
<title>ship&#45;&gt;commit</title>
<path fill="none" stroke="#1e90ff" d="M77.67,-379.08C132.57,-383.28 264.63,-388.89 368.98,-357.72 381.17,-354.08 393.51,-348.19 404.62,-341.88"/>
<polygon fill="#1e90ff" stroke="#1e90ff" points="406.42,-344.88 413.24,-336.77 402.85,-338.86 406.42,-344.88"/>
</g>
<!-- ship&#45;&gt;debug -->
<g id="edge20" class="edge">
<title>ship&#45;&gt;debug</title>
<path fill="none" stroke="#228b22" d="M77.12,-370.79C122.88,-360.04 220.07,-337.19 276.62,-323.89"/>
<polygon fill="#228b22" stroke="#228b22" points="277.75,-327.22 286.68,-321.53 276.15,-320.41 277.75,-327.22"/>
</g>
<!-- ship&#45;&gt;read&#45;source&#45;map -->
<g id="edge21" class="edge">
<title>ship&#45;&gt;read&#45;source&#45;map</title>
<path fill="none" stroke="#228b22" d="M74.71,-388.93C92.42,-398.42 117.57,-411.89 139.52,-423.65"/>
<polygon fill="#228b22" stroke="#228b22" points="137.91,-426.76 148.38,-428.39 141.22,-420.59 137.91,-426.76"/>
</g>
<!-- suggest&#45;better&#45;function&#45;names -->
<g id="node13" class="node">
<title>suggest&#45;better&#45;function&#45;names</title>
<ellipse fill="white" stroke="black" cx="320.9" cy="-634.72" rx="48.17" ry="48.17"/>
<text text-anchor="middle" x="320.9" y="-653.52" font-family="Arial" font-size="14.00">suggest&#45;</text>
<text text-anchor="middle" x="320.9" y="-638.52" font-family="Arial" font-size="14.00">better&#45;</text>
<text text-anchor="middle" x="320.9" y="-623.52" font-family="Arial" font-size="14.00">function&#45;</text>
<text text-anchor="middle" x="320.9" y="-608.52" font-family="Arial" font-size="14.00">names</text>
</g>
<!-- suggest&#45;better&#45;function&#45;names&#45;&gt;commit -->
<g id="edge22" class="edge">
<title>suggest&#45;better&#45;function&#45;names&#45;&gt;commit</title>
<path fill="none" stroke="#1e90ff" d="M352.85,-598.46C358.78,-590.35 364.53,-581.52 368.98,-572.72 403.72,-504.13 425.43,-417.18 436.55,-363.51"/>
<polygon fill="#1e90ff" stroke="#1e90ff" points="440.01,-364.05 438.57,-353.56 433.15,-362.66 440.01,-364.05"/>
</g>
</g>
</svg>
