<?xml version="1.0" encoding="UTF-8" standalone="no"?>
<!DOCTYPE svg PUBLIC "-//W3C//DTD SVG 1.1//EN"
 "http://www.w3.org/Graphics/SVG/1.1/DTD/svg11.dtd">
<!-- Generated by graphviz version 2.43.0 (0)
 -->
<!-- Title: PromptReferences Pages: 1 -->
<svg width="610pt" height="474pt"
 viewBox="0.00 0.00 610.42 474.12" xmlns="http://www.w3.org/2000/svg" xmlns:xlink="http://www.w3.org/1999/xlink">
<g id="graph0" class="graph" transform="scale(1 1) rotate(0) translate(4 470.12)">
<title>PromptReferences</title>
<!-- commit -->
<g id="node1" class="node">
<title>commit</title>
<ellipse fill="white" stroke="black" cx="446.7" cy="-232.72" rx="40.09" ry="40.09"/>
<text text-anchor="middle" x="446.7" y="-229.02" font-family="Arial" font-size="14.00">commit</text>
</g>
<!-- create&#45;pr -->
<g id="node2" class="node">
<title>create&#45;pr</title>
<ellipse fill="white" stroke="black" cx="446.7" cy="-41.72" rx="41.94" ry="41.94"/>
<text text-anchor="middle" x="446.7" y="-45.52" font-family="Arial" font-size="14.00">create&#45;</text>
<text text-anchor="middle" x="446.7" y="-30.52" font-family="Arial" font-size="14.00">pr</text>
</g>
<!-- squash -->
<g id="node11" class="node">
<title>squash</title>
<ellipse fill="white" stroke="black" cx="563.42" cy="-41.72" rx="38.99" ry="38.99"/>
<text text-anchor="middle" x="563.42" y="-38.02" font-family="Arial" font-size="14.00">squash</text>
</g>
<!-- create&#45;pr&#45;&gt;squash -->
<g id="edge1" class="edge">
<title>create&#45;pr&#45;&gt;squash</title>
<path fill="none" stroke="black" d="M488.47,-41.72C496.71,-41.72 505.45,-41.72 513.93,-41.72"/>
<polygon fill="black" stroke="black" points="514.09,-45.22 524.09,-41.72 514.09,-38.22 514.09,-45.22"/>
</g>
<!-- create&#45;simple&#45;source&#45;map -->
<g id="node3" class="node">
<title>create&#45;simple&#45;source&#45;map</title>
<ellipse fill="white" stroke="black" cx="320.9" cy="-401.72" rx="48.17" ry="48.17"/>
<text text-anchor="middle" x="320.9" y="-420.52" font-family="Arial" font-size="14.00">create&#45;</text>
<text text-anchor="middle" x="320.9" y="-405.52" font-family="Arial" font-size="14.00">simple&#45;</text>
<text text-anchor="middle" x="320.9" y="-390.52" font-family="Arial" font-size="14.00">source&#45;</text>
<text text-anchor="middle" x="320.9" y="-375.52" font-family="Arial" font-size="14.00">map</text>
</g>
<!-- create&#45;simple&#45;source&#45;map&#45;&gt;commit -->
<g id="edge2" class="edge">
<title>create&#45;simple&#45;source&#45;map&#45;&gt;commit</title>
<path fill="none" stroke="black" d="M350.95,-363.81C356.95,-355.88 363.21,-347.55 368.98,-339.72 385.02,-317.99 402.59,-293.54 416.87,-273.49"/>
<polygon fill="black" stroke="black" points="419.82,-275.37 422.77,-265.19 414.12,-271.31 419.82,-275.37"/>
</g>
<!-- debug -->
<g id="node4" class="node">
<title>debug</title>
<ellipse fill="white" stroke="black" cx="320.9" cy="-295.72" rx="35.19" ry="35.19"/>
<text text-anchor="middle" x="320.9" y="-292.02" font-family="Arial" font-size="14.00">debug</text>
</g>
<!-- debug&#45;&gt;commit -->
<g id="edge3" class="edge">
<title>debug&#45;&gt;commit</title>
<path fill="none" stroke="black" d="M352.5,-280.15C367.11,-272.71 384.87,-263.68 400.95,-255.49"/>
<polygon fill="black" stroke="black" points="402.87,-258.45 410.19,-250.79 399.69,-252.21 402.87,-258.45"/>
</g>
<!-- fix&#45;pr -->
<g id="node5" class="node">
<title>fix&#45;pr</title>
<ellipse fill="white" stroke="black" cx="187.32" cy="-76.72" rx="26.74" ry="26.74"/>
<text text-anchor="middle" x="187.32" y="-80.52" font-family="Arial" font-size="14.00">fix&#45;</text>
<text text-anchor="middle" x="187.32" y="-65.52" font-family="Arial" font-size="14.00">pr</text>
</g>
<!-- fix&#45;pr&#45;&gt;commit -->
<g id="edge4" class="edge">
<title>fix&#45;pr&#45;&gt;commit</title>
<path fill="none" stroke="black" d="M210.48,-91.12C227.28,-101.78 251.1,-116.37 272.82,-127.72 314.31,-149.41 329.07,-146.24 368.98,-170.72 382.64,-179.09 396.55,-189.62 408.72,-199.61"/>
<polygon fill="black" stroke="black" points="406.52,-202.34 416.44,-206.07 411.02,-196.97 406.52,-202.34"/>
</g>
<!-- fix&#45;pr&#45;&gt;create&#45;pr -->
<g id="edge5" class="edge">
<title>fix&#45;pr&#45;&gt;create&#45;pr</title>
<path fill="none" stroke="black" d="M208.7,-60.03C224.95,-47.86 248.88,-32.38 272.82,-25.72 313.52,-14.39 361.48,-20.26 396.55,-27.9"/>
<polygon fill="black" stroke="black" points="396.01,-31.36 406.54,-30.19 397.57,-24.54 396.01,-31.36"/>
</g>
<!-- review&#45;pr -->
<g id="node9" class="node">
<title>review&#45;pr</title>
<ellipse fill="white" stroke="black" cx="320.9" cy="-76.72" rx="42.35" ry="42.35"/>
<text text-anchor="middle" x="320.9" y="-80.52" font-family="Arial" font-size="14.00">review&#45;</text>
<text text-anchor="middle" x="320.9" y="-65.52" font-family="Arial" font-size="14.00">pr</text>
</g>
<!-- fix&#45;pr&#45;&gt;review&#45;pr -->
<g id="edge6" class="edge">
<title>fix&#45;pr&#45;&gt;review&#45;pr</title>
<path fill="none" stroke="black" d="M213.69,-71.26C229.25,-70.11 249.75,-69.73 268.57,-70.12"/>
<polygon fill="black" stroke="black" points="268.72,-73.62 278.82,-70.41 268.93,-66.63 268.72,-73.62"/>
</g>
<!-- improve&#45;prompt -->
<g id="node6" class="node">
<title>improve&#45;prompt</title>
<ellipse fill="white" stroke="black" cx="187.32" cy="-261.72" rx="49.49" ry="49.49"/>
<text text-anchor="middle" x="187.32" y="-265.52" font-family="Arial" font-size="14.00">improve&#45;</text>
<text text-anchor="middle" x="187.32" y="-250.52" font-family="Arial" font-size="14.00">prompt</text>
</g>
<!-- improve&#45;prompt&#45;&gt;commit -->
<g id="edge7" class="edge">
<title>improve&#45;prompt&#45;&gt;commit</title>
<path fill="none" stroke="black" d="M236.57,-255.94C248.42,-254.54 261.08,-253.06 272.82,-251.72 314.42,-246.97 361.67,-241.79 396.25,-238.04"/>
<polygon fill="black" stroke="black" points="396.99,-241.48 406.56,-236.93 396.24,-234.52 396.99,-241.48"/>
</g>
<!-- improve&#45;prompt&#45;&gt;debug -->
<g id="edge8" class="edge">
<title>improve&#45;prompt&#45;&gt;debug</title>
<path fill="none" stroke="black" d="M235.45,-273.9C248.97,-277.39 263.63,-281.18 276.88,-284.6"/>
<polygon fill="black" stroke="black" points="276.14,-288.03 286.7,-287.14 277.9,-281.25 276.14,-288.03"/>
</g>
<!-- optimize&#45;prompt -->
<g id="node7" class="node">
<title>optimize&#45;prompt</title>
<ellipse fill="white" stroke="black" cx="50.91" cy="-223.72" rx="50.82" ry="50.82"/>
<text text-anchor="middle" x="50.91" y="-227.52" font-family="Arial" font-size="14.00">optimize&#45;</text>
<text text-anchor="middle" x="50.91" y="-212.52" font-family="Arial" font-size="14.00">prompt</text>
</g>
<!-- optimize&#45;prompt&#45;&gt;commit -->
<g id="edge9" class="edge">
<title>optimize&#45;prompt&#45;&gt;commit</title>
<path fill="none" stroke="black" d="M100.19,-210.44C112.37,-207.66 125.5,-205.13 137.82,-203.72 229.34,-193.21 336.48,-209.81 397.19,-221.91"/>
<polygon fill="black" stroke="black" points="396.76,-225.39 407.25,-223.96 398.15,-218.53 396.76,-225.39"/>
</g>
<!-- optimize&#45;prompt&#45;&gt;improve&#45;prompt -->
<g id="edge10" class="edge">
<title>optimize&#45;prompt&#45;&gt;improve&#45;prompt</title>
<path fill="none" stroke="black" d="M100.06,-237.33C109.66,-240.05 119.83,-242.92 129.69,-245.71"/>
<polygon fill="black" stroke="black" points="128.84,-249.1 139.41,-248.46 130.74,-242.37 128.84,-249.1"/>
</g>
<!-- optimize&#45;prompt&#45;&gt;optimize&#45;prompt -->
<g id="edge11" class="edge">
<title>optimize&#45;prompt&#45;&gt;optimize&#45;prompt</title>
<path fill="none" stroke="black" d="M25.43,-267.79C25.81,-281.68 34.31,-292.63 50.91,-292.63 63.23,-292.63 71.09,-286.6 74.48,-277.81"/>
<polygon fill="black" stroke="black" points="77.96,-278.27 76.4,-267.79 71.08,-276.96 77.96,-278.27"/>
</g>
<!-- read&#45;source&#45;map -->
<g id="node8" class="node">
<title>read&#45;source&#45;map</title>
<ellipse fill="white" stroke="black" cx="187.32" cy="-410.72" rx="43.68" ry="43.68"/>
<text text-anchor="middle" x="187.32" y="-422.02" font-family="Arial" font-size="14.00">read&#45;</text>
<text text-anchor="middle" x="187.32" y="-407.02" font-family="Arial" font-size="14.00">source&#45;</text>
<text text-anchor="middle" x="187.32" y="-392.02" font-family="Arial" font-size="14.00">map</text>
</g>
<!-- read&#45;source&#45;map&#45;&gt;create&#45;simple&#45;source&#45;map -->
<g id="edge12" class="edge">
<title>read&#45;source&#45;map&#45;&gt;create&#45;simple&#45;source&#45;map</title>
<path fill="none" stroke="black" d="M231.41,-407.77C241.3,-407.1 251.97,-406.37 262.37,-405.65"/>
<polygon fill="black" stroke="black" points="262.89,-409.13 272.63,-404.95 262.41,-402.14 262.89,-409.13"/>
</g>
<!-- review&#45;pr&#45;&gt;commit -->
<g id="edge13" class="edge">
<title>review&#45;pr&#45;&gt;commit</title>
<path fill="none" stroke="black" d="M349.04,-108.5C355.64,-116.36 362.62,-124.8 368.98,-132.72 384.67,-152.25 401.67,-174.3 415.67,-192.73"/>
<polygon fill="black" stroke="black" points="413.04,-195.06 421.87,-200.91 418.62,-190.83 413.04,-195.06"/>
</g>
<!-- review&#45;pr&#45;&gt;create&#45;pr -->
<g id="edge14" class="edge">
<title>review&#45;pr&#45;&gt;create&#45;pr</title>
<path fill="none" stroke="black" d="M362.1,-65.36C373.02,-62.27 384.97,-58.89 396.34,-55.68"/>
<polygon fill="black" stroke="black" points="397.46,-58.99 406.13,-52.91 395.56,-52.26 397.46,-58.99"/>
</g>
<!-- review&#45;pr&#45;&gt;fix&#45;pr -->
<g id="edge15" class="edge">
<title>review&#45;pr&#45;&gt;fix&#45;pr</title>
<path fill="none" stroke="black" d="M278.82,-83.03C261.17,-83.69 240.74,-83.61 223.76,-82.79"/>
<polygon fill="black" stroke="black" points="223.88,-79.29 213.69,-82.18 223.46,-86.27 223.88,-79.29"/>
</g>
<!-- ship -->
<g id="node10" class="node">
<title>ship</title>
<ellipse fill="white" stroke="black" cx="50.91" cy="-410.72" rx="26.8" ry="26.8"/>
<text text-anchor="middle" x="50.91" y="-407.02" font-family="Arial" font-size="14.00">ship</text>
</g>
<!-- ship&#45;&gt;commit -->
<g id="edge16" class="edge">
<title>ship&#45;&gt;commit</title>
<path fill="none" stroke="black" d="M71.89,-427.54C88.39,-440.26 113.04,-456.69 137.82,-463.72 162.69,-470.77 367.52,-459.81 368.98,-458.72 423.48,-418.09 439.64,-336.71 444.21,-283.51"/>
<polygon fill="black" stroke="black" points="447.72,-283.49 444.98,-273.26 440.74,-282.97 447.72,-283.49"/>
</g>
<!-- ship&#45;&gt;debug -->
<g id="edge17" class="edge">
<title>ship&#45;&gt;debug</title>
<path fill="none" stroke="black" d="M73.05,-395.81C89.99,-384.33 114.68,-368.63 137.82,-357.72 162.87,-345.91 231.87,-323.39 277.37,-308.98"/>
<polygon fill="black" stroke="black" points="278.5,-312.3 286.98,-305.95 276.39,-305.62 278.5,-312.3"/>
</g>
<!-- ship&#45;&gt;read&#45;source&#45;map -->
<g id="edge18" class="edge">
<title>ship&#45;&gt;read&#45;source&#45;map</title>
<path fill="none" stroke="black" d="M77.83,-410.72C93.54,-410.72 114.17,-410.72 133.22,-410.72"/>
<polygon fill="black" stroke="black" points="133.3,-414.22 143.3,-410.72 133.3,-407.22 133.3,-414.22"/>
</g>
</g>
</svg>
