<?xml version="1.0" encoding="UTF-8" standalone="no"?>
<!DOCTYPE svg PUBLIC "-//W3C//DTD SVG 1.1//EN"
 "http://www.w3.org/Graphics/SVG/1.1/DTD/svg11.dtd">
<!-- Generated by graphviz version 2.43.0 (0)
 -->
<!-- Title: PromptReferences Pages: 1 -->
<svg width="731pt" height="913pt"
 viewBox="0.00 0.00 731.27 913.39" xmlns="http://www.w3.org/2000/svg" xmlns:xlink="http://www.w3.org/1999/xlink">
<g id="graph0" class="graph" transform="scale(1 1) rotate(0) translate(4 909.39)">
<title>PromptReferences</title>
<!-- bump&#45;semver&#45;version -->
<g id="node1" class="node">
<title>bump&#45;semver&#45;version</title>
<ellipse fill="white" stroke="black" cx="441.75" cy="-858.72" rx="46.84" ry="46.84"/>
<text text-anchor="middle" x="441.75" y="-870.02" font-family="Arial" font-size="14.00">bump&#45;</text>
<text text-anchor="middle" x="441.75" y="-855.02" font-family="Arial" font-size="14.00">semver&#45;</text>
<text text-anchor="middle" x="441.75" y="-840.02" font-family="Arial" font-size="14.00">version</text>
</g>
<!-- commit -->
<g id="node2" class="node">
<title>commit</title>
<ellipse fill="white" stroke="black" cx="567.56" cy="-532.72" rx="40.09" ry="40.09"/>
<text text-anchor="middle" x="567.56" y="-529.02" font-family="Arial" font-size="14.00">commit</text>
</g>
<!-- bump&#45;semver&#45;version&#45;&gt;commit -->
<g id="edge1" class="edge">
<title>bump&#45;semver&#45;version&#45;&gt;commit</title>
<path fill="none" stroke="#1e90ff" d="M474.6,-825.43C480.26,-818.32 485.67,-810.57 489.84,-802.72 527.8,-731.2 548.8,-638.78 558.87,-582.71"/>
<polygon fill="#1e90ff" stroke="#1e90ff" points="562.35,-583.14 560.62,-572.68 555.45,-581.93 562.35,-583.14"/>
</g>
<!-- create&#45;mr -->
<g id="node3" class="node">
<title>create&#45;mr</title>
<ellipse fill="white" stroke="black" cx="441.75" cy="-41.72" rx="41.94" ry="41.94"/>
<text text-anchor="middle" x="441.75" y="-45.52" font-family="Arial" font-size="14.00">create&#45;</text>
<text text-anchor="middle" x="441.75" y="-30.52" font-family="Arial" font-size="14.00">mr</text>
</g>
<!-- create&#45;pr -->
<g id="node4" class="node">
<title>create&#45;pr</title>
<ellipse fill="white" stroke="black" cx="567.56" cy="-165.72" rx="41.94" ry="41.94"/>
<text text-anchor="middle" x="567.56" y="-169.52" font-family="Arial" font-size="14.00">create&#45;</text>
<text text-anchor="middle" x="567.56" y="-154.52" font-family="Arial" font-size="14.00">pr</text>
</g>
<!-- create&#45;mr&#45;&gt;create&#45;pr -->
<g id="edge2" class="edge">
<title>create&#45;mr&#45;&gt;create&#45;pr</title>
<path fill="none" stroke="#228b22" d="M471.78,-70.79C489.19,-88.23 511.5,-110.57 530.09,-129.2"/>
<polygon fill="#228b22" stroke="#228b22" points="527.74,-131.8 537.28,-136.4 532.7,-126.85 527.74,-131.8"/>
</g>
<!-- squash -->
<g id="node17" class="node">
<title>squash</title>
<ellipse fill="white" stroke="black" cx="684.27" cy="-165.72" rx="38.99" ry="38.99"/>
<text text-anchor="middle" x="684.27" y="-162.02" font-family="Arial" font-size="14.00">squash</text>
</g>
<!-- create&#45;pr&#45;&gt;squash -->
<g id="edge3" class="edge">
<title>create&#45;pr&#45;&gt;squash</title>
<path fill="none" stroke="#1e90ff" d="M609.32,-165.72C617.57,-165.72 626.31,-165.72 634.78,-165.72"/>
<polygon fill="#1e90ff" stroke="#1e90ff" points="634.94,-169.22 644.94,-165.72 634.94,-162.22 634.94,-169.22"/>
</g>
<!-- create&#45;source&#45;map -->
<g id="node5" class="node">
<title>create&#45;source&#45;map</title>
<ellipse fill="white" stroke="black" cx="441.75" cy="-749.72" rx="43.68" ry="43.68"/>
<text text-anchor="middle" x="441.75" y="-761.02" font-family="Arial" font-size="14.00">create&#45;</text>
<text text-anchor="middle" x="441.75" y="-746.02" font-family="Arial" font-size="14.00">source&#45;</text>
<text text-anchor="middle" x="441.75" y="-731.02" font-family="Arial" font-size="14.00">map</text>
</g>
<!-- create&#45;source&#45;map&#45;&gt;commit -->
<g id="edge4" class="edge">
<title>create&#45;source&#45;map&#45;&gt;commit</title>
<path fill="none" stroke="#1e90ff" d="M472.96,-718.7C478.95,-711.76 484.9,-704.23 489.84,-696.72 514.13,-659.79 534.89,-613.95 548.66,-580.13"/>
<polygon fill="#1e90ff" stroke="#1e90ff" points="552.05,-581.07 552.53,-570.49 545.56,-578.46 552.05,-581.07"/>
</g>
<!-- debug -->
<g id="node6" class="node">
<title>debug</title>
<ellipse fill="white" stroke="black" cx="441.75" cy="-652.72" rx="35.19" ry="35.19"/>
<text text-anchor="middle" x="441.75" y="-649.02" font-family="Arial" font-size="14.00">debug</text>
</g>
<!-- debug&#45;&gt;commit -->
<g id="edge5" class="edge">
<title>debug&#45;&gt;commit</title>
<path fill="none" stroke="#1e90ff" d="M467.51,-628.72C485.61,-611.18 510.43,-587.12 530.7,-567.47"/>
<polygon fill="#1e90ff" stroke="#1e90ff" points="533.2,-569.93 537.94,-560.46 528.32,-564.9 533.2,-569.93"/>
</g>
<!-- fix&#45;mr -->
<g id="node7" class="node">
<title>fix&#45;mr</title>
<ellipse fill="white" stroke="black" cx="171.76" cy="-164.72" rx="26.74" ry="26.74"/>
<text text-anchor="middle" x="171.76" y="-168.52" font-family="Arial" font-size="14.00">fix&#45;</text>
<text text-anchor="middle" x="171.76" y="-153.52" font-family="Arial" font-size="14.00">mr</text>
</g>
<!-- fix&#45;pr -->
<g id="node8" class="node">
<title>fix&#45;pr</title>
<ellipse fill="white" stroke="black" cx="308.17" cy="-164.72" rx="26.74" ry="26.74"/>
<text text-anchor="middle" x="308.17" y="-168.52" font-family="Arial" font-size="14.00">fix&#45;</text>
<text text-anchor="middle" x="308.17" y="-153.52" font-family="Arial" font-size="14.00">pr</text>
</g>
<!-- fix&#45;mr&#45;&gt;fix&#45;pr -->
<g id="edge6" class="edge">
<title>fix&#45;mr&#45;&gt;fix&#45;pr</title>
<path fill="none" stroke="#228b22" d="M198.68,-164.72C219.19,-164.72 248.07,-164.72 270.88,-164.72"/>
<polygon fill="#228b22" stroke="#228b22" points="270.88,-168.22 280.88,-164.72 270.88,-161.22 270.88,-168.22"/>
</g>
<!-- review&#45;mr -->
<g id="node13" class="node">
<title>review&#45;mr</title>
<ellipse fill="white" stroke="black" cx="42.43" cy="-164.72" rx="42.35" ry="42.35"/>
<text text-anchor="middle" x="42.43" y="-168.52" font-family="Arial" font-size="14.00">review&#45;</text>
<text text-anchor="middle" x="42.43" y="-153.52" font-family="Arial" font-size="14.00">mr</text>
</g>
<!-- fix&#45;mr&#45;&gt;review&#45;mr -->
<g id="edge7" class="edge">
<title>fix&#45;mr&#45;&gt;review&#45;mr</title>
<path fill="none" stroke="#228b22" d="M145.43,-170.24C130.87,-171.31 112.04,-171.68 94.53,-171.35"/>
<polygon fill="#228b22" stroke="#228b22" points="94.51,-167.85 84.42,-171.07 94.32,-174.85 94.51,-167.85"/>
</g>
<!-- fix&#45;pr&#45;&gt;commit -->
<g id="edge8" class="edge">
<title>fix&#45;pr&#45;&gt;commit</title>
<path fill="none" stroke="#1e90ff" d="M334.09,-156.57C372.32,-145.77 445.65,-132.06 489.84,-168.72 537.4,-208.18 556.72,-392.06 563.45,-482.38"/>
<polygon fill="#1e90ff" stroke="#1e90ff" points="559.96,-482.68 564.17,-492.4 566.94,-482.17 559.96,-482.68"/>
</g>
<!-- fix&#45;pr&#45;&gt;create&#45;pr -->
<g id="edge9" class="edge">
<title>fix&#45;pr&#45;&gt;create&#45;pr</title>
<path fill="none" stroke="#228b22" d="M333.03,-154.16C349.65,-147.39 372.56,-139.24 393.67,-135.72 435.83,-128.69 447.84,-127.8 489.84,-135.72 499.85,-137.61 510.23,-140.77 520,-144.35"/>
<polygon fill="#228b22" stroke="#228b22" points="518.94,-147.69 529.53,-148.03 521.47,-141.16 518.94,-147.69"/>
</g>
<!-- review&#45;pr -->
<g id="node14" class="node">
<title>review&#45;pr</title>
<ellipse fill="white" stroke="black" cx="441.75" cy="-219.72" rx="42.35" ry="42.35"/>
<text text-anchor="middle" x="441.75" y="-223.52" font-family="Arial" font-size="14.00">review&#45;</text>
<text text-anchor="middle" x="441.75" y="-208.52" font-family="Arial" font-size="14.00">pr</text>
</g>
<!-- fix&#45;pr&#45;&gt;review&#45;pr -->
<g id="edge10" class="edge">
<title>fix&#45;pr&#45;&gt;review&#45;pr</title>
<path fill="none" stroke="#228b22" d="M334.86,-169.97C352.03,-175.9 375.1,-185.22 395.32,-194.28"/>
<polygon fill="#228b22" stroke="#228b22" points="394.13,-197.58 404.68,-198.55 397.04,-191.21 394.13,-197.58"/>
</g>
<!-- improve&#45;prompt -->
<g id="node9" class="node">
<title>improve&#45;prompt</title>
<ellipse fill="white" stroke="black" cx="308.17" cy="-628.72" rx="49.49" ry="49.49"/>
<text text-anchor="middle" x="308.17" y="-632.52" font-family="Arial" font-size="14.00">improve&#45;</text>
<text text-anchor="middle" x="308.17" y="-617.52" font-family="Arial" font-size="14.00">prompt</text>
</g>
<!-- improve&#45;prompt&#45;&gt;commit -->
<g id="edge11" class="edge">
<title>improve&#45;prompt&#45;&gt;commit</title>
<path fill="none" stroke="#1e90ff" d="M355.54,-613.56C392.23,-601.32 444.64,-583.3 489.84,-565.72 500.08,-561.74 510.98,-557.22 521.26,-552.83"/>
<polygon fill="#1e90ff" stroke="#1e90ff" points="522.68,-556.03 530.48,-548.86 519.91,-549.6 522.68,-556.03"/>
</g>
<!-- improve&#45;prompt&#45;&gt;debug -->
<g id="edge12" class="edge">
<title>improve&#45;prompt&#45;&gt;debug</title>
<path fill="none" stroke="#228b22" d="M357.05,-637.45C370.15,-639.84 384.28,-642.42 397.14,-644.76"/>
<polygon fill="#228b22" stroke="#228b22" points="396.66,-648.23 407.12,-646.59 397.91,-641.35 396.66,-648.23"/>
</g>
<!-- optimize&#45;prompt -->
<g id="node10" class="node">
<title>optimize&#45;prompt</title>
<ellipse fill="white" stroke="black" cx="171.76" cy="-583.72" rx="50.82" ry="50.82"/>
<text text-anchor="middle" x="171.76" y="-587.52" font-family="Arial" font-size="14.00">optimize&#45;</text>
<text text-anchor="middle" x="171.76" y="-572.52" font-family="Arial" font-size="14.00">prompt</text>
</g>
<!-- optimize&#45;prompt&#45;&gt;commit -->
<g id="edge13" class="edge">
<title>optimize&#45;prompt&#45;&gt;commit</title>
<path fill="none" stroke="#1e90ff" d="M222.25,-575.99C234.17,-574.2 246.87,-572.34 258.68,-570.72 349.72,-558.22 456.17,-545.5 517.05,-538.41"/>
<polygon fill="#1e90ff" stroke="#1e90ff" points="517.62,-541.86 527.15,-537.23 516.81,-534.91 517.62,-541.86"/>
</g>
<!-- optimize&#45;prompt&#45;&gt;improve&#45;prompt -->
<g id="edge14" class="edge">
<title>optimize&#45;prompt&#45;&gt;improve&#45;prompt</title>
<path fill="none" stroke="#228b22" d="M220.15,-599.58C230.23,-602.96 240.97,-606.55 251.33,-610.02"/>
<polygon fill="#228b22" stroke="#228b22" points="250.52,-613.44 261.12,-613.3 252.75,-606.81 250.52,-613.44"/>
</g>
<!-- optimize&#45;prompt&#45;&gt;optimize&#45;prompt -->
<g id="edge15" class="edge">
<title>optimize&#45;prompt&#45;&gt;optimize&#45;prompt</title>
<path fill="none" stroke="#228b22" d="M147.82,-628.79C148.53,-642.2 156.51,-652.63 171.76,-652.63 182.96,-652.63 190.24,-647 193.6,-638.7"/>
<polygon fill="#228b22" stroke="#228b22" points="197.06,-639.3 195.71,-628.79 190.21,-637.84 197.06,-639.3"/>
</g>
<!-- plan&#45;shipping -->
<g id="node11" class="node">
<title>plan&#45;shipping</title>
<ellipse fill="white" stroke="black" cx="171.76" cy="-749.72" rx="47.25" ry="47.25"/>
<text text-anchor="middle" x="171.76" y="-753.52" font-family="Arial" font-size="14.00">plan&#45;</text>
<text text-anchor="middle" x="171.76" y="-738.52" font-family="Arial" font-size="14.00">shipping</text>
</g>
<!-- read&#45;source&#45;map -->
<g id="node12" class="node">
<title>read&#45;source&#45;map</title>
<ellipse fill="white" stroke="black" cx="308.17" cy="-749.72" rx="43.68" ry="43.68"/>
<text text-anchor="middle" x="308.17" y="-761.02" font-family="Arial" font-size="14.00">read&#45;</text>
<text text-anchor="middle" x="308.17" y="-746.02" font-family="Arial" font-size="14.00">source&#45;</text>
<text text-anchor="middle" x="308.17" y="-731.02" font-family="Arial" font-size="14.00">map</text>
</g>
<!-- plan&#45;shipping&#45;&gt;read&#45;source&#45;map -->
<g id="edge16" class="edge">
<title>plan&#45;shipping&#45;&gt;read&#45;source&#45;map</title>
<path fill="none" stroke="#228b22" d="M219.4,-749.72C230.54,-749.72 242.52,-749.72 253.94,-749.72"/>
<polygon fill="#228b22" stroke="#228b22" points="254.23,-753.22 264.23,-749.72 254.23,-746.22 254.23,-753.22"/>
</g>
<!-- read&#45;source&#45;map&#45;&gt;create&#45;source&#45;map -->
<g id="edge17" class="edge">
<title>read&#45;source&#45;map&#45;&gt;create&#45;source&#45;map</title>
<path fill="none" stroke="#228b22" d="M352.26,-749.72C363.5,-749.72 375.76,-749.72 387.47,-749.72"/>
<polygon fill="#228b22" stroke="#228b22" points="387.57,-753.22 397.57,-749.72 387.57,-746.22 387.57,-753.22"/>
</g>
<!-- review&#45;mr&#45;&gt;fix&#45;mr -->
<g id="edge18" class="edge">
<title>review&#45;mr&#45;&gt;fix&#45;mr</title>
<path fill="none" stroke="#228b22" d="M84.42,-158.37C100.72,-157.77 119.31,-157.85 135.05,-158.58"/>
<polygon fill="#228b22" stroke="#228b22" points="135.24,-162.1 145.43,-159.2 135.66,-155.11 135.24,-162.1"/>
</g>
<!-- review&#45;mr&#45;&gt;review&#45;pr -->
<g id="edge19" class="edge">
<title>review&#45;mr&#45;&gt;review&#45;pr</title>
<path fill="none" stroke="#228b22" d="M79.79,-185.06C92.42,-191.18 106.91,-197.2 120.85,-200.72 213.21,-224.04 325.13,-224.66 389.13,-222.52"/>
<polygon fill="#228b22" stroke="#228b22" points="389.49,-226.01 399.36,-222.14 389.23,-219.01 389.49,-226.01"/>
</g>
<!-- review&#45;pr&#45;&gt;commit -->
<g id="edge20" class="edge">
<title>review&#45;pr&#45;&gt;commit</title>
<path fill="none" stroke="#1e90ff" d="M463.78,-256.32C472.44,-272.16 482.2,-291.07 489.84,-308.72 515.38,-367.77 538.37,-438.34 552.38,-484.28"/>
<polygon fill="#1e90ff" stroke="#1e90ff" points="549.07,-485.42 555.31,-493.98 555.77,-483.39 549.07,-485.42"/>
</g>
<!-- review&#45;pr&#45;&gt;create&#45;pr -->
<g id="edge21" class="edge">
<title>review&#45;pr&#45;&gt;create&#45;pr</title>
<path fill="none" stroke="#228b22" d="M480.91,-203.08C493.03,-197.79 506.57,-191.88 519.25,-186.35"/>
<polygon fill="#228b22" stroke="#228b22" points="520.97,-189.42 528.74,-182.21 518.18,-183 520.97,-189.42"/>
</g>
<!-- review&#45;pr&#45;&gt;fix&#45;pr -->
<g id="edge22" class="edge">
<title>review&#45;pr&#45;&gt;fix&#45;pr</title>
<path fill="none" stroke="#228b22" d="M400.55,-209.19C381.31,-201.9 358.6,-192.27 340.64,-183.73"/>
<polygon fill="#228b22" stroke="#228b22" points="341.72,-180.36 331.2,-179.12 338.65,-186.65 341.72,-180.36"/>
</g>
<!-- ship -->
<g id="node15" class="node">
<title>ship</title>
<ellipse fill="white" stroke="black" cx="441.75" cy="-344.72" rx="26.8" ry="26.8"/>
<text text-anchor="middle" x="441.75" y="-341.02" font-family="Arial" font-size="14.00">ship</text>
</g>
<!-- ship&#45;&gt;commit -->
<g id="edge23" class="edge">
<title>ship&#45;&gt;commit</title>
<path fill="none" stroke="#1e90ff" d="M465.13,-358.67C473.6,-364.71 482.87,-372.33 489.84,-380.72 515.84,-412.05 536.07,-453.68 549.22,-485.44"/>
<polygon fill="#1e90ff" stroke="#1e90ff" points="546.07,-487 553.07,-494.96 552.56,-484.38 546.07,-487"/>
</g>
<!-- ship&#45;gh&#45;issue -->
<g id="node16" class="node">
<title>ship&#45;gh&#45;issue</title>
<ellipse fill="white" stroke="black" cx="308.17" cy="-344.72" rx="37.45" ry="37.45"/>
<text text-anchor="middle" x="308.17" y="-356.02" font-family="Arial" font-size="14.00">ship&#45;</text>
<text text-anchor="middle" x="308.17" y="-341.02" font-family="Arial" font-size="14.00">gh&#45;</text>
<text text-anchor="middle" x="308.17" y="-326.02" font-family="Arial" font-size="14.00">issue</text>
</g>
<!-- ship&#45;gh&#45;issue&#45;&gt;commit -->
<g id="edge24" class="edge">
<title>ship&#45;gh&#45;issue&#45;&gt;commit</title>
<path fill="none" stroke="#1e90ff" d="M319.81,-380.5C331.98,-415.11 355.35,-466.36 393.67,-494.72 429.35,-521.12 479.79,-529.83 516.99,-532.4"/>
<polygon fill="#1e90ff" stroke="#1e90ff" points="516.93,-535.9 527.11,-532.97 517.32,-528.91 516.93,-535.9"/>
</g>
<!-- ship&#45;gh&#45;issue&#45;&gt;create&#45;pr -->
<g id="edge25" class="edge">
<title>ship&#45;gh&#45;issue&#45;&gt;create&#45;pr</title>
<path fill="none" stroke="#228b22" d="M342.8,-330.15C358.26,-323.52 376.85,-315.62 393.67,-308.72 436.18,-291.27 453.48,-298.83 489.84,-270.72 510.7,-254.59 528.5,-231.32 541.69,-210.78"/>
<polygon fill="#228b22" stroke="#228b22" points="544.73,-212.51 547.05,-202.18 538.79,-208.81 544.73,-212.51"/>
</g>
<!-- ship&#45;gh&#45;issue&#45;&gt;ship -->
<g id="edge26" class="edge">
<title>ship&#45;gh&#45;issue&#45;&gt;ship</title>
<path fill="none" stroke="#228b22" d="M345.83,-344.72C364.13,-344.72 386.21,-344.72 404.47,-344.72"/>
<polygon fill="#228b22" stroke="#228b22" points="404.72,-348.22 414.72,-344.72 404.72,-341.22 404.72,-348.22"/>
</g>
<!-- suggest&#45;better&#45;function&#45;names -->
<g id="node18" class="node">
<title>suggest&#45;better&#45;function&#45;names</title>
<ellipse fill="white" stroke="black" cx="441.75" cy="-437.72" rx="48.17" ry="48.17"/>
<text text-anchor="middle" x="441.75" y="-456.52" font-family="Arial" font-size="14.00">suggest&#45;</text>
<text text-anchor="middle" x="441.75" y="-441.52" font-family="Arial" font-size="14.00">better&#45;</text>
<text text-anchor="middle" x="441.75" y="-426.52" font-family="Arial" font-size="14.00">function&#45;</text>
<text text-anchor="middle" x="441.75" y="-411.52" font-family="Arial" font-size="14.00">names</text>
</g>
<!-- suggest&#45;better&#45;function&#45;names&#45;&gt;commit -->
<g id="edge27" class="edge">
<title>suggest&#45;better&#45;function&#45;names&#45;&gt;commit</title>
<path fill="none" stroke="#1e90ff" d="M480.57,-466.74C495.33,-478.06 512.26,-491.05 527.16,-502.49"/>
<polygon fill="#1e90ff" stroke="#1e90ff" points="525.15,-505.36 535.21,-508.67 529.41,-499.8 525.15,-505.36"/>
</g>
</g>
</svg>
