<?xml version="1.0" encoding="UTF-8" standalone="no"?>
<!DOCTYPE svg PUBLIC "-//W3C//DTD SVG 1.1//EN"
 "http://www.w3.org/Graphics/SVG/1.1/DTD/svg11.dtd">
<!-- Generated by graphviz version 2.43.0 (0)
 -->
<!-- Title: PromptReferences Pages: 1 -->
<svg width="610pt" height="680pt"
 viewBox="0.00 0.00 610.42 680.39" xmlns="http://www.w3.org/2000/svg" xmlns:xlink="http://www.w3.org/1999/xlink">
<g id="graph0" class="graph" transform="scale(1 1) rotate(0) translate(4 676.39)">
<title>PromptReferences</title>
<!-- bump&#45;semver&#45;version -->
<g id="node1" class="node">
<title>bump&#45;semver&#45;version</title>
<ellipse fill="white" stroke="black" cx="50.91" cy="-625.72" rx="46.84" ry="46.84"/>
<text text-anchor="middle" x="50.91" y="-637.02" font-family="Arial" font-size="14.00">bump&#45;</text>
<text text-anchor="middle" x="50.91" y="-622.02" font-family="Arial" font-size="14.00">semver&#45;</text>
<text text-anchor="middle" x="50.91" y="-607.02" font-family="Arial" font-size="14.00">version</text>
</g>
<!-- commit -->
<g id="node2" class="node">
<title>commit</title>
<ellipse fill="white" stroke="black" cx="446.7" cy="-386.72" rx="40.09" ry="40.09"/>
<text text-anchor="middle" x="446.7" y="-383.02" font-family="Arial" font-size="14.00">commit</text>
</g>
<!-- bump&#45;semver&#45;version&#45;&gt;commit -->
<g id="edge1" class="edge">
<title>bump&#45;semver&#45;version&#45;&gt;commit</title>
<path fill="none" stroke="#1e90ff" d="M95.92,-639.07C162.81,-656.42 290.56,-677.6 368.98,-614.72 422.44,-571.86 438.89,-490.29 443.81,-437.23"/>
<polygon fill="#1e90ff" stroke="#1e90ff" points="447.32,-437.27 444.65,-427.02 440.34,-436.7 447.32,-437.27"/>
</g>
<!-- create&#45;simple&#45;source&#45;map -->
<g id="node5" class="node">
<title>create&#45;simple&#45;source&#45;map</title>
<ellipse fill="white" stroke="black" cx="320.9" cy="-557.72" rx="48.17" ry="48.17"/>
<text text-anchor="middle" x="320.9" y="-576.52" font-family="Arial" font-size="14.00">create&#45;</text>
<text text-anchor="middle" x="320.9" y="-561.52" font-family="Arial" font-size="14.00">simple&#45;</text>
<text text-anchor="middle" x="320.9" y="-546.52" font-family="Arial" font-size="14.00">source&#45;</text>
<text text-anchor="middle" x="320.9" y="-531.52" font-family="Arial" font-size="14.00">map</text>
</g>
<!-- bump&#45;semver&#45;version&#45;&gt;create&#45;simple&#45;source&#45;map -->
<g id="edge2" class="edge">
<title>bump&#45;semver&#45;version&#45;&gt;create&#45;simple&#45;source&#45;map</title>
<path fill="none" stroke="#228b22" d="M97.88,-626.41C136,-625.71 191.14,-621.74 236.82,-606.72 248.87,-602.76 261.06,-596.85 272.26,-590.5"/>
<polygon fill="#228b22" stroke="#228b22" points="274.17,-593.43 281,-585.33 270.61,-587.4 274.17,-593.43"/>
</g>
<!-- read&#45;source&#45;map -->
<g id="node10" class="node">
<title>read&#45;source&#45;map</title>
<ellipse fill="white" stroke="black" cx="187.32" cy="-553.72" rx="43.68" ry="43.68"/>
<text text-anchor="middle" x="187.32" y="-565.02" font-family="Arial" font-size="14.00">read&#45;</text>
<text text-anchor="middle" x="187.32" y="-550.02" font-family="Arial" font-size="14.00">source&#45;</text>
<text text-anchor="middle" x="187.32" y="-535.02" font-family="Arial" font-size="14.00">map</text>
</g>
<!-- bump&#45;semver&#45;version&#45;&gt;read&#45;source&#45;map -->
<g id="edge3" class="edge">
<title>bump&#45;semver&#45;version&#45;&gt;read&#45;source&#45;map</title>
<path fill="none" stroke="#228b22" d="M92.6,-603.92C107.19,-596.11 123.77,-587.23 138.88,-579.13"/>
<polygon fill="#228b22" stroke="#228b22" points="140.9,-582.02 148.07,-574.21 137.6,-575.85 140.9,-582.02"/>
</g>
<!-- create&#45;mr -->
<g id="node3" class="node">
<title>create&#45;mr</title>
<ellipse fill="white" stroke="black" cx="320.9" cy="-41.72" rx="41.94" ry="41.94"/>
<text text-anchor="middle" x="320.9" y="-45.52" font-family="Arial" font-size="14.00">create&#45;</text>
<text text-anchor="middle" x="320.9" y="-30.52" font-family="Arial" font-size="14.00">mr</text>
</g>
<!-- create&#45;pr -->
<g id="node4" class="node">
<title>create&#45;pr</title>
<ellipse fill="white" stroke="black" cx="446.7" cy="-111.72" rx="41.94" ry="41.94"/>
<text text-anchor="middle" x="446.7" y="-115.52" font-family="Arial" font-size="14.00">create&#45;</text>
<text text-anchor="middle" x="446.7" y="-100.52" font-family="Arial" font-size="14.00">pr</text>
</g>
<!-- create&#45;mr&#45;&gt;create&#45;pr -->
<g id="edge4" class="edge">
<title>create&#45;mr&#45;&gt;create&#45;pr</title>
<path fill="none" stroke="#228b22" d="M357.71,-61.97C371.18,-69.58 386.68,-78.34 400.87,-86.37"/>
<polygon fill="#228b22" stroke="#228b22" points="399.55,-89.64 409.98,-91.52 402.99,-83.55 399.55,-89.64"/>
</g>
<!-- squash -->
<g id="node13" class="node">
<title>squash</title>
<ellipse fill="white" stroke="black" cx="563.42" cy="-76.72" rx="38.99" ry="38.99"/>
<text text-anchor="middle" x="563.42" y="-73.02" font-family="Arial" font-size="14.00">squash</text>
</g>
<!-- create&#45;mr&#45;&gt;squash -->
<g id="edge5" class="edge">
<title>create&#45;mr&#45;&gt;squash</title>
<path fill="none" stroke="#1e90ff" d="M362.78,-45.24C396.58,-48.43 445.79,-53.7 488.42,-60.72 497.19,-62.16 506.48,-63.96 515.41,-65.82"/>
<polygon fill="#1e90ff" stroke="#1e90ff" points="514.78,-69.27 525.29,-67.94 516.25,-62.42 514.78,-69.27"/>
</g>
<!-- create&#45;pr&#45;&gt;squash -->
<g id="edge6" class="edge">
<title>create&#45;pr&#45;&gt;squash</title>
<path fill="none" stroke="#1e90ff" d="M486.86,-99.77C496.21,-96.92 506.27,-93.85 515.91,-90.91"/>
<polygon fill="#1e90ff" stroke="#1e90ff" points="517.21,-94.17 525.76,-87.91 515.17,-87.48 517.21,-94.17"/>
</g>
<!-- create&#45;simple&#45;source&#45;map&#45;&gt;commit -->
<g id="edge7" class="edge">
<title>create&#45;simple&#45;source&#45;map&#45;&gt;commit</title>
<path fill="none" stroke="#1e90ff" d="M351,-519.85C357,-511.92 363.24,-503.57 368.98,-495.72 385.12,-473.65 402.7,-448.74 416.95,-428.31"/>
<polygon fill="#1e90ff" stroke="#1e90ff" points="420,-430.06 422.85,-419.85 414.26,-426.06 420,-430.06"/>
</g>
<!-- debug -->
<g id="node6" class="node">
<title>debug</title>
<ellipse fill="white" stroke="black" cx="320.9" cy="-418.72" rx="35.19" ry="35.19"/>
<text text-anchor="middle" x="320.9" y="-415.02" font-family="Arial" font-size="14.00">debug</text>
</g>
<!-- debug&#45;&gt;commit -->
<g id="edge8" class="edge">
<title>debug&#45;&gt;commit</title>
<path fill="none" stroke="#1e90ff" d="M355.08,-410.14C368.23,-406.74 383.61,-402.77 397.92,-399.07"/>
<polygon fill="#1e90ff" stroke="#1e90ff" points="398.81,-402.46 407.62,-396.56 397.06,-395.68 398.81,-402.46"/>
</g>
<!-- fix&#45;pr -->
<g id="node7" class="node">
<title>fix&#45;pr</title>
<ellipse fill="white" stroke="black" cx="187.32" cy="-181.72" rx="26.74" ry="26.74"/>
<text text-anchor="middle" x="187.32" y="-185.52" font-family="Arial" font-size="14.00">fix&#45;</text>
<text text-anchor="middle" x="187.32" y="-170.52" font-family="Arial" font-size="14.00">pr</text>
</g>
<!-- fix&#45;pr&#45;&gt;commit -->
<g id="edge9" class="edge">
<title>fix&#45;pr&#45;&gt;commit</title>
<path fill="none" stroke="#1e90ff" d="M210.48,-196.12C227.28,-206.78 251.1,-221.37 272.82,-232.72 314.31,-254.41 332.97,-245.8 368.98,-275.72 390.84,-293.88 409.21,-319.74 422.49,-341.94"/>
<polygon fill="#1e90ff" stroke="#1e90ff" points="419.63,-343.99 427.68,-350.88 425.68,-340.47 419.63,-343.99"/>
</g>
<!-- fix&#45;pr&#45;&gt;create&#45;pr -->
<g id="edge10" class="edge">
<title>fix&#45;pr&#45;&gt;create&#45;pr</title>
<path fill="none" stroke="#228b22" d="M209.27,-165.52C225.63,-153.78 249.45,-138.63 272.82,-130.72 312.39,-117.33 359.68,-112.86 394.79,-111.59"/>
<polygon fill="#228b22" stroke="#228b22" points="394.92,-115.08 404.81,-111.3 394.72,-108.09 394.92,-115.08"/>
</g>
<!-- review&#45;pr -->
<g id="node11" class="node">
<title>review&#45;pr</title>
<ellipse fill="white" stroke="black" cx="320.9" cy="-181.72" rx="42.35" ry="42.35"/>
<text text-anchor="middle" x="320.9" y="-185.52" font-family="Arial" font-size="14.00">review&#45;</text>
<text text-anchor="middle" x="320.9" y="-170.52" font-family="Arial" font-size="14.00">pr</text>
</g>
<!-- fix&#45;pr&#45;&gt;review&#45;pr -->
<g id="edge11" class="edge">
<title>fix&#45;pr&#45;&gt;review&#45;pr</title>
<path fill="none" stroke="#228b22" d="M213.69,-176.26C229.25,-175.11 249.75,-174.73 268.57,-175.12"/>
<polygon fill="#228b22" stroke="#228b22" points="268.72,-178.62 278.82,-175.41 268.93,-171.63 268.72,-178.62"/>
</g>
<!-- improve&#45;prompt -->
<g id="node8" class="node">
<title>improve&#45;prompt</title>
<ellipse fill="white" stroke="black" cx="187.32" cy="-366.72" rx="49.49" ry="49.49"/>
<text text-anchor="middle" x="187.32" y="-370.52" font-family="Arial" font-size="14.00">improve&#45;</text>
<text text-anchor="middle" x="187.32" y="-355.52" font-family="Arial" font-size="14.00">prompt</text>
</g>
<!-- improve&#45;prompt&#45;&gt;commit -->
<g id="edge12" class="edge">
<title>improve&#45;prompt&#45;&gt;commit</title>
<path fill="none" stroke="#1e90ff" d="M237.12,-367.42C273.53,-368.29 324.47,-370.27 368.98,-374.72 377.95,-375.62 387.47,-376.86 396.63,-378.22"/>
<polygon fill="#1e90ff" stroke="#1e90ff" points="396.37,-381.72 406.78,-379.77 397.43,-374.8 396.37,-381.72"/>
</g>
<!-- improve&#45;prompt&#45;&gt;debug -->
<g id="edge13" class="edge">
<title>improve&#45;prompt&#45;&gt;debug</title>
<path fill="none" stroke="#228b22" d="M233.6,-384.61C248.1,-390.34 264.07,-396.66 278.29,-402.28"/>
<polygon fill="#228b22" stroke="#228b22" points="277.23,-405.62 287.82,-406.04 279.8,-399.11 277.23,-405.62"/>
</g>
<!-- optimize&#45;prompt -->
<g id="node9" class="node">
<title>optimize&#45;prompt</title>
<ellipse fill="white" stroke="black" cx="50.91" cy="-328.72" rx="50.82" ry="50.82"/>
<text text-anchor="middle" x="50.91" y="-332.52" font-family="Arial" font-size="14.00">optimize&#45;</text>
<text text-anchor="middle" x="50.91" y="-317.52" font-family="Arial" font-size="14.00">prompt</text>
</g>
<!-- optimize&#45;prompt&#45;&gt;commit -->
<g id="edge14" class="edge">
<title>optimize&#45;prompt&#45;&gt;commit</title>
<path fill="none" stroke="#1e90ff" d="M100.19,-315.44C112.37,-312.66 125.5,-310.13 137.82,-308.72 181.53,-303.7 193.52,-300.9 236.82,-308.72 295.66,-319.35 359.55,-345.55 400.96,-364.66"/>
<polygon fill="#1e90ff" stroke="#1e90ff" points="399.68,-367.92 410.22,-368.99 402.64,-361.58 399.68,-367.92"/>
</g>
<!-- optimize&#45;prompt&#45;&gt;improve&#45;prompt -->
<g id="edge15" class="edge">
<title>optimize&#45;prompt&#45;&gt;improve&#45;prompt</title>
<path fill="none" stroke="#228b22" d="M100.06,-342.33C109.66,-345.05 119.83,-347.92 129.69,-350.71"/>
<polygon fill="#228b22" stroke="#228b22" points="128.84,-354.1 139.41,-353.46 130.74,-347.37 128.84,-354.1"/>
</g>
<!-- optimize&#45;prompt&#45;&gt;optimize&#45;prompt -->
<g id="edge16" class="edge">
<title>optimize&#45;prompt&#45;&gt;optimize&#45;prompt</title>
<path fill="none" stroke="#228b22" d="M25.43,-372.79C25.81,-386.68 34.31,-397.63 50.91,-397.63 63.23,-397.63 71.09,-391.6 74.48,-382.81"/>
<polygon fill="#228b22" stroke="#228b22" points="77.96,-383.27 76.4,-372.79 71.08,-381.96 77.96,-383.27"/>
</g>
<!-- read&#45;source&#45;map&#45;&gt;create&#45;simple&#45;source&#45;map -->
<g id="edge17" class="edge">
<title>read&#45;source&#45;map&#45;&gt;create&#45;simple&#45;source&#45;map</title>
<path fill="none" stroke="#228b22" d="M231.41,-555.03C241.3,-555.33 251.97,-555.65 262.37,-555.97"/>
<polygon fill="#228b22" stroke="#228b22" points="262.53,-559.48 272.63,-556.28 262.74,-552.48 262.53,-559.48"/>
</g>
<!-- review&#45;pr&#45;&gt;commit -->
<g id="edge18" class="edge">
<title>review&#45;pr&#45;&gt;commit</title>
<path fill="none" stroke="#1e90ff" d="M350.08,-212.74C356.64,-220.62 363.35,-229.26 368.98,-237.72 390.81,-270.5 411,-310.27 425.19,-340.47"/>
<polygon fill="#1e90ff" stroke="#1e90ff" points="422.19,-342.33 429.58,-349.92 428.54,-339.38 422.19,-342.33"/>
</g>
<!-- review&#45;pr&#45;&gt;create&#45;pr -->
<g id="edge19" class="edge">
<title>review&#45;pr&#45;&gt;create&#45;pr</title>
<path fill="none" stroke="#228b22" d="M358.38,-161.1C371.72,-153.55 386.96,-144.93 400.94,-137.03"/>
<polygon fill="#228b22" stroke="#228b22" points="402.93,-139.92 409.92,-131.95 399.49,-133.83 402.93,-139.92"/>
</g>
<!-- review&#45;pr&#45;&gt;fix&#45;pr -->
<g id="edge20" class="edge">
<title>review&#45;pr&#45;&gt;fix&#45;pr</title>
<path fill="none" stroke="#228b22" d="M278.82,-188.03C261.17,-188.69 240.74,-188.61 223.76,-187.79"/>
<polygon fill="#228b22" stroke="#228b22" points="223.88,-184.29 213.69,-187.18 223.46,-191.27 223.88,-184.29"/>
</g>
<!-- ship -->
<g id="node12" class="node">
<title>ship</title>
<ellipse fill="white" stroke="black" cx="50.91" cy="-481.72" rx="26.8" ry="26.8"/>
<text text-anchor="middle" x="50.91" y="-478.02" font-family="Arial" font-size="14.00">ship</text>
</g>
<!-- ship&#45;&gt;commit -->
<g id="edge21" class="edge">
<title>ship&#45;&gt;commit</title>
<path fill="none" stroke="#1e90ff" d="M77.59,-486.03C133.46,-494.21 269.05,-507.38 368.98,-462.72 386.89,-454.72 402.98,-440.56 415.74,-426.62"/>
<polygon fill="#1e90ff" stroke="#1e90ff" points="418.51,-428.76 422.48,-418.93 413.25,-424.15 418.51,-428.76"/>
</g>
<!-- ship&#45;&gt;debug -->
<g id="edge22" class="edge">
<title>ship&#45;&gt;debug</title>
<path fill="none" stroke="#228b22" d="M77.12,-475.79C122.88,-465.04 220.07,-442.19 276.62,-428.89"/>
<polygon fill="#228b22" stroke="#228b22" points="277.75,-432.22 286.68,-426.53 276.15,-425.41 277.75,-432.22"/>
</g>
<!-- ship&#45;&gt;read&#45;source&#45;map -->
<g id="edge23" class="edge">
<title>ship&#45;&gt;read&#45;source&#45;map</title>
<path fill="none" stroke="#228b22" d="M74.71,-493.93C92.42,-503.42 117.57,-516.89 139.52,-528.65"/>
<polygon fill="#228b22" stroke="#228b22" points="137.91,-531.76 148.38,-533.39 141.22,-525.59 137.91,-531.76"/>
</g>
</g>
</svg>
