<?xml version="1.0" encoding="UTF-8" standalone="no"?>
<!DOCTYPE svg PUBLIC "-//W3C//DTD SVG 1.1//EN"
 "http://www.w3.org/Graphics/SVG/1.1/DTD/svg11.dtd">
<!-- Generated by graphviz version 2.43.0 (0)
 -->
<!-- Title: PromptReferences Pages: 1 -->
<svg width="610pt" height="691pt"
 viewBox="0.00 0.00 610.42 690.80" xmlns="http://www.w3.org/2000/svg" xmlns:xlink="http://www.w3.org/1999/xlink">
<g id="graph0" class="graph" transform="scale(1 1) rotate(0) translate(4 686.8)">
<title>PromptReferences</title>
<!-- bump&#45;semver&#45;version -->
<g id="node1" class="node">
<title>bump&#45;semver&#45;version</title>
<ellipse fill="white" stroke="black" cx="50.91" cy="-625.72" rx="46.84" ry="46.84"/>
<text text-anchor="middle" x="50.91" y="-637.02" font-family="Arial" font-size="14.00">bump&#45;</text>
<text text-anchor="middle" x="50.91" y="-622.02" font-family="Arial" font-size="14.00">semver&#45;</text>
<text text-anchor="middle" x="50.91" y="-607.02" font-family="Arial" font-size="14.00">version</text>
</g>
<!-- commit -->
<g id="node2" class="node">
<title>commit</title>
<ellipse fill="white" stroke="black" cx="446.7" cy="-313.72" rx="40.09" ry="40.09"/>
<text text-anchor="middle" x="446.7" y="-310.02" font-family="Arial" font-size="14.00">commit</text>
</g>
<!-- bump&#45;semver&#45;version&#45;&gt;commit -->
<g id="edge1" class="edge">
<title>bump&#45;semver&#45;version&#45;&gt;commit</title>
<path fill="none" stroke="#1e90ff" d="M95.82,-533.66C162.3,-550.37 289.17,-570.6 368.98,-509.72 414.36,-475.11 432.93,-409.77 440.51,-364.09"/>
<polygon fill="#1e90ff" stroke="#1e90ff" points="443.98,-364.49 442.04,-354.08 437.07,-363.43 443.98,-364.49"/>
</g>
<!-- create&#45;simple&#45;source&#45;map -->
<g id="node5" class="node">
<title>create&#45;simple&#45;source&#45;map</title>
<ellipse fill="white" stroke="black" cx="320.9" cy="-557.72" rx="48.17" ry="48.17"/>
<text text-anchor="middle" x="320.9" y="-576.52" font-family="Arial" font-size="14.00">create&#45;</text>
<text text-anchor="middle" x="320.9" y="-561.52" font-family="Arial" font-size="14.00">simple&#45;</text>
<text text-anchor="middle" x="320.9" y="-546.52" font-family="Arial" font-size="14.00">source&#45;</text>
<text text-anchor="middle" x="320.9" y="-531.52" font-family="Arial" font-size="14.00">map</text>
</g>
<!-- bump&#45;semver&#45;version&#45;&gt;create&#45;simple&#45;source&#45;map -->
<g id="edge2" class="edge">
<title>bump&#45;semver&#45;version&#45;&gt;create&#45;simple&#45;source&#45;map</title>
<path fill="none" stroke="#228b22" d="M97.88,-626.41C136,-625.71 191.14,-621.74 236.82,-606.72 248.87,-602.76 261.06,-596.85 272.26,-590.5"/>
<polygon fill="#228b22" stroke="#228b22" points="274.17,-593.43 281,-585.33 270.61,-587.4 274.17,-593.43"/>
</g>
<!-- read&#45;source&#45;map -->
<g id="node10" class="node">
<title>read&#45;source&#45;map</title>
<ellipse fill="white" stroke="black" cx="187.32" cy="-553.72" rx="43.68" ry="43.68"/>
<text text-anchor="middle" x="187.32" y="-565.02" font-family="Arial" font-size="14.00">read&#45;</text>
<text text-anchor="middle" x="187.32" y="-550.02" font-family="Arial" font-size="14.00">source&#45;</text>
<text text-anchor="middle" x="187.32" y="-535.02" font-family="Arial" font-size="14.00">map</text>
</g>
<!-- bump&#45;semver&#45;version&#45;&gt;read&#45;source&#45;map -->
<g id="edge3" class="edge">
<title>bump&#45;semver&#45;version&#45;&gt;read&#45;source&#45;map</title>
<path fill="none" stroke="#228b22" d="M92.6,-603.92C107.19,-596.11 123.77,-587.23 138.88,-579.13"/>
<polygon fill="#228b22" stroke="#228b22" points="140.9,-582.02 148.07,-574.21 137.6,-575.85 140.9,-582.02"/>
</g>
<!-- create&#45;mr -->
<g id="node3" class="node">
<title>create&#45;mr</title>
<ellipse fill="white" stroke="black" cx="320.9" cy="-41.72" rx="41.94" ry="41.94"/>
<text text-anchor="middle" x="320.9" y="-45.52" font-family="Arial" font-size="14.00">create&#45;</text>
<text text-anchor="middle" x="320.9" y="-30.52" font-family="Arial" font-size="14.00">mr</text>
</g>
<!-- create&#45;pr -->
<g id="node4" class="node">
<title>create&#45;pr</title>
<ellipse fill="white" stroke="black" cx="446.7" cy="-111.72" rx="41.94" ry="41.94"/>
<text text-anchor="middle" x="446.7" y="-115.52" font-family="Arial" font-size="14.00">create&#45;</text>
<text text-anchor="middle" x="446.7" y="-100.52" font-family="Arial" font-size="14.00">pr</text>
</g>
<!-- create&#45;mr&#45;&gt;create&#45;pr -->
<g id="edge4" class="edge">
<title>create&#45;mr&#45;&gt;create&#45;pr</title>
<path fill="none" stroke="#228b22" d="M357.71,-61.97C371.18,-69.58 386.68,-78.34 400.87,-86.37"/>
<polygon fill="#228b22" stroke="#228b22" points="399.55,-89.64 409.98,-91.52 402.99,-83.55 399.55,-89.64"/>
</g>
<!-- squash -->
<g id="node13" class="node">
<title>squash</title>
<ellipse fill="white" stroke="black" cx="563.42" cy="-76.72" rx="38.99" ry="38.99"/>
<text text-anchor="middle" x="563.42" y="-73.02" font-family="Arial" font-size="14.00">squash</text>
</g>
<!-- create&#45;mr&#45;&gt;squash -->
<g id="edge5" class="edge">
<title>create&#45;mr&#45;&gt;squash</title>
<path fill="none" stroke="#1e90ff" d="M362.78,-45.24C396.58,-48.43 445.79,-53.7 488.42,-60.72 497.19,-62.16 506.48,-63.96 515.41,-65.82"/>
<polygon fill="#1e90ff" stroke="#1e90ff" points="514.78,-69.27 525.29,-67.94 516.25,-62.42 514.78,-69.27"/>
</g>
<!-- create&#45;pr&#45;&gt;squash -->
<g id="edge6" class="edge">
<title>create&#45;pr&#45;&gt;squash</title>
<path fill="none" stroke="#1e90ff" d="M486.86,-99.77C496.21,-96.92 506.27,-93.85 515.91,-90.91"/>
<polygon fill="#1e90ff" stroke="#1e90ff" points="517.21,-94.17 525.76,-87.91 515.17,-87.48 517.21,-94.17"/>
</g>
<!-- create&#45;simple&#45;source&#45;map&#45;&gt;commit -->
<g id="edge7" class="edge">
<title>create&#45;simple&#45;source&#45;map&#45;&gt;commit</title>
<path fill="none" stroke="#1e90ff" d="M353.46,-417.28C371.5,-397.03 394.11,-371.64 412.43,-351.08"/>
<polygon fill="#1e90ff" stroke="#1e90ff" points="415.19,-353.25 419.22,-343.45 409.96,-348.59 415.19,-353.25"/>
</g>
<!-- debug -->
<g id="node6" class="node">
<title>debug</title>
<ellipse fill="white" stroke="black" cx="320.9" cy="-418.72" rx="35.19" ry="35.19"/>
<text text-anchor="middle" x="320.9" y="-415.02" font-family="Arial" font-size="14.00">debug</text>
</g>
<!-- debug&#45;&gt;commit -->
<g id="edge8" class="edge">
<title>debug&#45;&gt;commit</title>
<path fill="none" stroke="#1e90ff" d="M356.06,-313.72C368.38,-313.72 382.55,-313.72 395.93,-313.72"/>
<polygon fill="#1e90ff" stroke="#1e90ff" points="395.96,-317.22 405.96,-313.72 395.96,-310.22 395.96,-317.22"/>
</g>
<!-- fix&#45;pr -->
<g id="node7" class="node">
<title>fix&#45;pr</title>
<ellipse fill="white" stroke="black" cx="187.32" cy="-181.72" rx="26.74" ry="26.74"/>
<text text-anchor="middle" x="187.32" y="-185.52" font-family="Arial" font-size="14.00">fix&#45;</text>
<text text-anchor="middle" x="187.32" y="-170.52" font-family="Arial" font-size="14.00">pr</text>
</g>
<!-- fix&#45;pr&#45;&gt;commit -->
<g id="edge9" class="edge">
<title>fix&#45;pr&#45;&gt;commit</title>
<path fill="none" stroke="#1e90ff" d="M210.48,-91.12C227.28,-101.78 251.1,-116.37 272.82,-127.72 314.31,-149.41 334.71,-138.83 368.98,-170.72 396.99,-196.78 416.88,-235.44 429.37,-265.99"/>
<polygon fill="#1e90ff" stroke="#1e90ff" points="426.24,-267.58 433.17,-275.59 432.75,-265.01 426.24,-267.58"/>
</g>
<!-- fix&#45;pr&#45;&gt;create&#45;pr -->
<g id="edge10" class="edge">
<title>fix&#45;pr&#45;&gt;create&#45;pr</title>
<path fill="none" stroke="#228b22" d="M209.27,-165.52C225.63,-153.78 249.45,-138.63 272.82,-130.72 312.39,-117.33 359.68,-112.86 394.79,-111.59"/>
<polygon fill="#228b22" stroke="#228b22" points="394.92,-115.08 404.81,-111.3 394.72,-108.09 394.92,-115.08"/>
</g>
<!-- review&#45;pr -->
<g id="node11" class="node">
<title>review&#45;pr</title>
<ellipse fill="white" stroke="black" cx="320.9" cy="-181.72" rx="42.35" ry="42.35"/>
<text text-anchor="middle" x="320.9" y="-185.52" font-family="Arial" font-size="14.00">review&#45;</text>
<text text-anchor="middle" x="320.9" y="-170.52" font-family="Arial" font-size="14.00">pr</text>
</g>
<!-- fix&#45;pr&#45;&gt;review&#45;pr -->
<g id="edge11" class="edge">
<title>fix&#45;pr&#45;&gt;review&#45;pr</title>
<path fill="none" stroke="#228b22" d="M213.69,-176.26C229.25,-175.11 249.75,-174.73 268.57,-175.12"/>
<polygon fill="#228b22" stroke="#228b22" points="268.72,-178.62 278.82,-175.41 268.93,-171.63 268.72,-178.62"/>
</g>
<!-- improve&#45;prompt -->
<g id="node8" class="node">
<title>improve&#45;prompt</title>
<ellipse fill="white" stroke="black" cx="187.32" cy="-366.72" rx="49.49" ry="49.49"/>
<text text-anchor="middle" x="187.32" y="-370.52" font-family="Arial" font-size="14.00">improve&#45;</text>
<text text-anchor="middle" x="187.32" y="-355.52" font-family="Arial" font-size="14.00">prompt</text>
</g>
<!-- improve&#45;prompt&#45;&gt;commit -->
<g id="edge12" class="edge">
<title>improve&#45;prompt&#45;&gt;commit</title>
<path fill="none" stroke="#1e90ff" d="M236.87,-257.74C273.83,-256.16 325.57,-257.12 368.98,-269.72 381.2,-273.27 393.55,-279.12 404.66,-285.43"/>
<polygon fill="#1e90ff" stroke="#1e90ff" points="402.89,-288.45 413.28,-290.54 406.46,-282.43 402.89,-288.45"/>
</g>
<!-- improve&#45;prompt&#45;&gt;debug -->
<g id="edge13" class="edge">
<title>improve&#45;prompt&#45;&gt;debug</title>
<path fill="none" stroke="#228b22" d="M233.6,-384.61C248.1,-390.34 264.07,-396.66 278.29,-402.28"/>
<polygon fill="#228b22" stroke="#228b22" points="277.23,-405.62 287.82,-406.04 279.8,-399.11 277.23,-405.62"/>
</g>
<!-- optimize&#45;prompt -->
<g id="node9" class="node">
<title>optimize&#45;prompt</title>
<ellipse fill="white" stroke="black" cx="50.91" cy="-328.72" rx="50.82" ry="50.82"/>
<text text-anchor="middle" x="50.91" y="-332.52" font-family="Arial" font-size="14.00">optimize&#45;</text>
<text text-anchor="middle" x="50.91" y="-317.52" font-family="Arial" font-size="14.00">prompt</text>
</g>
<!-- optimize&#45;prompt&#45;&gt;commit -->
<g id="edge14" class="edge">
<title>optimize&#45;prompt&#45;&gt;commit</title>
<path fill="none" stroke="#1e90ff" d="M100.19,-210.44C112.37,-207.66 125.5,-205.13 137.82,-203.72 181.53,-198.7 193.51,-195.95 236.82,-203.72 298.48,-214.78 314.41,-221.95 368.98,-252.72 382.59,-260.39 396.31,-270.41 408.3,-280.1"/>
<polygon fill="#1e90ff" stroke="#1e90ff" points="406.38,-283.04 416.31,-286.72 410.84,-277.65 406.38,-283.04"/>
</g>
<!-- optimize&#45;prompt&#45;&gt;improve&#45;prompt -->
<g id="edge15" class="edge">
<title>optimize&#45;prompt&#45;&gt;improve&#45;prompt</title>
<path fill="none" stroke="#228b22" d="M100.06,-342.33C109.66,-345.05 119.83,-347.92 129.69,-350.71"/>
<polygon fill="#228b22" stroke="#228b22" points="128.84,-354.1 139.41,-353.46 130.74,-347.37 128.84,-354.1"/>
</g>
<!-- optimize&#45;prompt&#45;&gt;optimize&#45;prompt -->
<g id="edge16" class="edge">
<title>optimize&#45;prompt&#45;&gt;optimize&#45;prompt</title>
<path fill="none" stroke="#228b22" d="M25.43,-372.79C25.81,-386.68 34.31,-397.63 50.91,-397.63 63.23,-397.63 71.09,-391.6 74.48,-382.81"/>
<polygon fill="#228b22" stroke="#228b22" points="77.96,-383.27 76.4,-372.79 71.08,-381.96 77.96,-383.27"/>
</g>
<!-- read&#45;source&#45;map&#45;&gt;create&#45;simple&#45;source&#45;map -->
<g id="edge17" class="edge">
<title>read&#45;source&#45;map&#45;&gt;create&#45;simple&#45;source&#45;map</title>
<path fill="none" stroke="#228b22" d="M231.41,-555.03C241.3,-555.33 251.97,-555.65 262.37,-555.97"/>
<polygon fill="#228b22" stroke="#228b22" points="262.53,-559.48 272.63,-556.28 262.74,-552.48 262.53,-559.48"/>
</g>
<!-- review&#45;pr&#45;&gt;commit -->
<g id="edge18" class="edge">
<title>review&#45;pr&#45;&gt;commit</title>
<path fill="none" stroke="#1e90ff" d="M350.53,-107.45C357.08,-115.34 363.67,-124.06 368.98,-132.72 395.02,-175.19 416.31,-228.07 429.8,-265.68"/>
<polygon fill="#1e90ff" stroke="#1e90ff" points="426.59,-267.12 433.22,-275.38 433.19,-264.78 426.59,-267.12"/>
</g>
<!-- review&#45;pr&#45;&gt;create&#45;pr -->
<g id="edge19" class="edge">
<title>review&#45;pr&#45;&gt;create&#45;pr</title>
<path fill="none" stroke="#228b22" d="M358.38,-161.1C371.72,-153.55 386.96,-144.93 400.94,-137.03"/>
<polygon fill="#228b22" stroke="#228b22" points="402.93,-139.92 409.92,-131.95 399.49,-133.83 402.93,-139.92"/>
</g>
<!-- review&#45;pr&#45;&gt;fix&#45;pr -->
<g id="edge20" class="edge">
<title>review&#45;pr&#45;&gt;fix&#45;pr</title>
<path fill="none" stroke="#228b22" d="M278.82,-188.03C261.17,-188.69 240.74,-188.61 223.76,-187.79"/>
<polygon fill="#228b22" stroke="#228b22" points="223.88,-184.29 213.69,-187.18 223.46,-191.27 223.88,-184.29"/>
</g>
<!-- ship -->
<g id="node12" class="node">
<title>ship</title>
<ellipse fill="white" stroke="black" cx="50.91" cy="-481.72" rx="26.8" ry="26.8"/>
<text text-anchor="middle" x="50.91" y="-478.02" font-family="Arial" font-size="14.00">ship</text>
</g>
<!-- ship&#45;&gt;commit -->
<g id="edge21" class="edge">
<title>ship&#45;&gt;commit</title>
<path fill="none" stroke="#1e90ff" d="M77.67,-379.08C132.57,-383.28 264.63,-388.89 368.98,-357.72 381.17,-354.08 393.51,-348.19 404.62,-341.88"/>
<polygon fill="#1e90ff" stroke="#1e90ff" points="406.42,-344.88 413.24,-336.77 402.85,-338.86 406.42,-344.88"/>
</g>
<!-- ship&#45;&gt;debug -->
<g id="edge22" class="edge">
<title>ship&#45;&gt;debug</title>
<path fill="none" stroke="#228b22" d="M77.12,-475.79C122.88,-465.04 220.07,-442.19 276.62,-428.89"/>
<polygon fill="#228b22" stroke="#228b22" points="277.75,-432.22 286.68,-426.53 276.15,-425.41 277.75,-432.22"/>
</g>
<!-- ship&#45;&gt;read&#45;source&#45;map -->
<g id="edge23" class="edge">
<title>ship&#45;&gt;read&#45;source&#45;map</title>
<path fill="none" stroke="#228b22" d="M74.71,-493.93C92.42,-503.42 117.57,-516.89 139.52,-528.65"/>
<polygon fill="#228b22" stroke="#228b22" points="137.91,-531.76 148.38,-533.39 141.22,-525.59 137.91,-531.76"/>
</g>
<!-- suggest&#45;better&#45;function&#45;names -->
<g id="node13" class="node">
<title>suggest&#45;better&#45;function&#45;names</title>
<ellipse fill="white" stroke="black" cx="320.9" cy="-634.72" rx="48.17" ry="48.17"/>
<text text-anchor="middle" x="320.9" y="-653.52" font-family="Arial" font-size="14.00">suggest&#45;</text>
<text text-anchor="middle" x="320.9" y="-638.52" font-family="Arial" font-size="14.00">better&#45;</text>
<text text-anchor="middle" x="320.9" y="-623.52" font-family="Arial" font-size="14.00">function&#45;</text>
<text text-anchor="middle" x="320.9" y="-608.52" font-family="Arial" font-size="14.00">names</text>
</g>
<!-- suggest&#45;better&#45;function&#45;names&#45;&gt;commit -->
<g id="edge22" class="edge">
<title>suggest&#45;better&#45;function&#45;names&#45;&gt;commit</title>
<path fill="none" stroke="#1e90ff" d="M352.85,-598.46C358.78,-590.35 364.53,-581.52 368.98,-572.72 403.72,-504.13 425.43,-417.18 436.55,-363.51"/>
<polygon fill="#1e90ff" stroke="#1e90ff" points="440.01,-364.05 438.57,-353.56 433.15,-362.66 440.01,-364.05"/>
</g>
</g>
</svg>
