<?xml version="1.0" encoding="UTF-8" standalone="no"?>
<!DOCTYPE svg PUBLIC "-//W3C//DTD SVG 1.1//EN"
 "http://www.w3.org/Graphics/SVG/1.1/DTD/svg11.dtd">
<!-- Generated by graphviz version 2.43.0 (0)
 -->
<!-- Title: PromptReferences Pages: 1 -->
<svg width="731pt" height="802pt"
 viewBox="0.00 0.00 731.27 802.39" xmlns="http://www.w3.org/2000/svg" xmlns:xlink="http://www.w3.org/1999/xlink">
<g id="graph0" class="graph" transform="scale(1 1) rotate(0) translate(4 798.39)">
<title>PromptReferences</title>
<!-- bump&#45;semver&#45;version -->
<g id="node1" class="node">
<title>bump&#45;semver&#45;version</title>
<ellipse fill="white" stroke="black" cx="171.76" cy="-747.72" rx="46.84" ry="46.84"/>
<text text-anchor="middle" x="171.76" y="-759.02" font-family="Arial" font-size="14.00">bump&#45;</text>
<text text-anchor="middle" x="171.76" y="-744.02" font-family="Arial" font-size="14.00">semver&#45;</text>
<text text-anchor="middle" x="171.76" y="-729.02" font-family="Arial" font-size="14.00">version</text>
</g>
<!-- commit -->
<g id="node2" class="node">
<title>commit</title>
<ellipse fill="white" stroke="black" cx="567.56" cy="-418.72" rx="40.09" ry="40.09"/>
<text text-anchor="middle" x="567.56" y="-415.02" font-family="Arial" font-size="14.00">commit</text>
</g>
<!-- bump&#45;semver&#45;version&#45;&gt;commit -->
<g id="edge1" class="edge">
<title>bump&#45;semver&#45;version&#45;&gt;commit</title>
<path fill="none" stroke="#1e90ff" d="M217.04,-759.84C284.27,-775.34 412.48,-793.09 489.84,-728.72 529.35,-695.84 551.87,-547.95 561.29,-468.91"/>
<polygon fill="#1e90ff" stroke="#1e90ff" points="564.8,-469.04 562.48,-458.7 557.84,-468.23 564.8,-469.04"/>
</g>
<!-- read&#45;source&#45;map -->
<g id="node12" class="node">
<title>read&#45;source&#45;map</title>
<ellipse fill="white" stroke="black" cx="308.17" cy="-653.72" rx="43.68" ry="43.68"/>
<text text-anchor="middle" x="308.17" y="-665.02" font-family="Arial" font-size="14.00">read&#45;</text>
<text text-anchor="middle" x="308.17" y="-650.02" font-family="Arial" font-size="14.00">source&#45;</text>
<text text-anchor="middle" x="308.17" y="-635.02" font-family="Arial" font-size="14.00">map</text>
</g>
<!-- bump&#45;semver&#45;version&#45;&gt;read&#45;source&#45;map -->
<g id="edge2" class="edge">
<title>bump&#45;semver&#45;version&#45;&gt;read&#45;source&#45;map</title>
<path fill="none" stroke="#228b22" d="M210.56,-721.28C226.83,-709.91 245.96,-696.53 262.88,-684.69"/>
<polygon fill="#228b22" stroke="#228b22" points="265.32,-687.26 271.51,-678.66 261.31,-681.53 265.32,-687.26"/>
</g>
<!-- create&#45;mr -->
<g id="node3" class="node">
<title>create&#45;mr</title>
<ellipse fill="white" stroke="black" cx="441.75" cy="-41.72" rx="41.94" ry="41.94"/>
<text text-anchor="middle" x="441.75" y="-45.52" font-family="Arial" font-size="14.00">create&#45;</text>
<text text-anchor="middle" x="441.75" y="-30.52" font-family="Arial" font-size="14.00">mr</text>
</g>
<!-- create&#45;pr -->
<g id="node4" class="node">
<title>create&#45;pr</title>
<ellipse fill="white" stroke="black" cx="567.56" cy="-143.72" rx="41.94" ry="41.94"/>
<text text-anchor="middle" x="567.56" y="-147.52" font-family="Arial" font-size="14.00">create&#45;</text>
<text text-anchor="middle" x="567.56" y="-132.52" font-family="Arial" font-size="14.00">pr</text>
</g>
<!-- create&#45;mr&#45;&gt;create&#45;pr -->
<g id="edge3" class="edge">
<title>create&#45;mr&#45;&gt;create&#45;pr</title>
<path fill="none" stroke="#228b22" d="M474.64,-67.99C490.52,-81.07 509.89,-97.03 526.74,-110.91"/>
<polygon fill="#228b22" stroke="#228b22" points="524.84,-113.88 534.78,-117.54 529.29,-108.48 524.84,-113.88"/>
</g>
<!-- squash -->
<g id="node16" class="node">
<title>squash</title>
<ellipse fill="white" stroke="black" cx="684.27" cy="-143.72" rx="38.99" ry="38.99"/>
<text text-anchor="middle" x="684.27" y="-140.02" font-family="Arial" font-size="14.00">squash</text>
</g>
<!-- create&#45;pr&#45;&gt;squash -->
<g id="edge4" class="edge">
<title>create&#45;pr&#45;&gt;squash</title>
<path fill="none" stroke="#1e90ff" d="M609.32,-143.72C617.57,-143.72 626.31,-143.72 634.78,-143.72"/>
<polygon fill="#1e90ff" stroke="#1e90ff" points="634.94,-147.22 644.94,-143.72 634.94,-140.22 634.94,-147.22"/>
</g>
<!-- create&#45;simple&#45;source&#45;map -->
<g id="node5" class="node">
<title>create&#45;simple&#45;source&#45;map</title>
<ellipse fill="white" stroke="black" cx="441.75" cy="-671.72" rx="48.17" ry="48.17"/>
<text text-anchor="middle" x="441.75" y="-690.52" font-family="Arial" font-size="14.00">create&#45;</text>
<text text-anchor="middle" x="441.75" y="-675.52" font-family="Arial" font-size="14.00">simple&#45;</text>
<text text-anchor="middle" x="441.75" y="-660.52" font-family="Arial" font-size="14.00">source&#45;</text>
<text text-anchor="middle" x="441.75" y="-645.52" font-family="Arial" font-size="14.00">map</text>
</g>
<!-- create&#45;simple&#45;source&#45;map&#45;&gt;commit -->
<g id="edge5" class="edge">
<title>create&#45;simple&#45;source&#45;map&#45;&gt;commit</title>
<path fill="none" stroke="#1e90ff" d="M474.72,-636.51C480.17,-629.57 485.48,-622.13 489.84,-614.72 517.74,-567.29 539.36,-507.84 552.44,-466.93"/>
<polygon fill="#1e90ff" stroke="#1e90ff" points="555.83,-467.79 555.5,-457.2 549.16,-465.69 555.83,-467.79"/>
</g>
<!-- debug -->
<g id="node6" class="node">
<title>debug</title>
<ellipse fill="white" stroke="black" cx="441.75" cy="-418.72" rx="35.19" ry="35.19"/>
<text text-anchor="middle" x="441.75" y="-415.02" font-family="Arial" font-size="14.00">debug</text>
</g>
<!-- debug&#45;&gt;commit -->
<g id="edge6" class="edge">
<title>debug&#45;&gt;commit</title>
<path fill="none" stroke="#1e90ff" d="M476.91,-418.72C489.23,-418.72 503.4,-418.72 516.78,-418.72"/>
<polygon fill="#1e90ff" stroke="#1e90ff" points="516.82,-422.22 526.82,-418.72 516.82,-415.22 516.82,-422.22"/>
</g>
<!-- fix&#45;mr -->
<g id="node7" class="node">
<title>fix&#45;mr</title>
<ellipse fill="white" stroke="black" cx="171.76" cy="-198.72" rx="26.74" ry="26.74"/>
<text text-anchor="middle" x="171.76" y="-202.52" font-family="Arial" font-size="14.00">fix&#45;</text>
<text text-anchor="middle" x="171.76" y="-187.52" font-family="Arial" font-size="14.00">mr</text>
</g>
<!-- fix&#45;pr -->
<g id="node8" class="node">
<title>fix&#45;pr</title>
<ellipse fill="white" stroke="black" cx="308.17" cy="-198.72" rx="26.74" ry="26.74"/>
<text text-anchor="middle" x="308.17" y="-202.52" font-family="Arial" font-size="14.00">fix&#45;</text>
<text text-anchor="middle" x="308.17" y="-187.52" font-family="Arial" font-size="14.00">pr</text>
</g>
<!-- fix&#45;mr&#45;&gt;fix&#45;pr -->
<g id="edge7" class="edge">
<title>fix&#45;mr&#45;&gt;fix&#45;pr</title>
<path fill="none" stroke="#228b22" d="M198.68,-198.72C219.19,-198.72 248.07,-198.72 270.88,-198.72"/>
<polygon fill="#228b22" stroke="#228b22" points="270.88,-202.22 280.88,-198.72 270.88,-195.22 270.88,-202.22"/>
</g>
<!-- review&#45;mr -->
<g id="node13" class="node">
<title>review&#45;mr</title>
<ellipse fill="white" stroke="black" cx="42.43" cy="-198.72" rx="42.35" ry="42.35"/>
<text text-anchor="middle" x="42.43" y="-202.52" font-family="Arial" font-size="14.00">review&#45;</text>
<text text-anchor="middle" x="42.43" y="-187.52" font-family="Arial" font-size="14.00">mr</text>
</g>
<!-- fix&#45;mr&#45;&gt;review&#45;mr -->
<g id="edge8" class="edge">
<title>fix&#45;mr&#45;&gt;review&#45;mr</title>
<path fill="none" stroke="#228b22" d="M145.43,-204.24C130.87,-205.31 112.04,-205.68 94.53,-205.35"/>
<polygon fill="#228b22" stroke="#228b22" points="94.51,-201.85 84.42,-205.07 94.32,-208.85 94.51,-201.85"/>
</g>
<!-- fix&#45;pr&#45;&gt;commit -->
<g id="edge9" class="edge">
<title>fix&#45;pr&#45;&gt;commit</title>
<path fill="none" stroke="#1e90ff" d="M334.57,-203.88C372.44,-212.71 444.17,-233.96 489.84,-275.72 518.08,-301.54 537.94,-340.2 550.38,-370.82"/>
<polygon fill="#1e90ff" stroke="#1e90ff" points="547.24,-372.42 554.15,-380.45 553.76,-369.87 547.24,-372.42"/>
</g>
<!-- fix&#45;pr&#45;&gt;create&#45;pr -->
<g id="edge10" class="edge">
<title>fix&#45;pr&#45;&gt;create&#45;pr</title>
<path fill="none" stroke="#228b22" d="M335.03,-202.57C370.78,-206.9 436.86,-211.36 489.84,-194.72 502.73,-190.67 515.46,-183.74 526.74,-176.27"/>
<polygon fill="#228b22" stroke="#228b22" points="528.85,-179.07 535.06,-170.5 524.85,-173.32 528.85,-179.07"/>
</g>
<!-- review&#45;pr -->
<g id="node14" class="node">
<title>review&#45;pr</title>
<ellipse fill="white" stroke="black" cx="441.75" cy="-143.72" rx="42.35" ry="42.35"/>
<text text-anchor="middle" x="441.75" y="-147.52" font-family="Arial" font-size="14.00">review&#45;</text>
<text text-anchor="middle" x="441.75" y="-132.52" font-family="Arial" font-size="14.00">pr</text>
</g>
<!-- fix&#45;pr&#45;&gt;review&#45;pr -->
<g id="edge11" class="edge">
<title>fix&#45;pr&#45;&gt;review&#45;pr</title>
<path fill="none" stroke="#228b22" d="M331.2,-184.32C347.49,-176.12 370.34,-166.11 390.96,-157.96"/>
<polygon fill="#228b22" stroke="#228b22" points="392.49,-161.12 400.55,-154.25 389.96,-154.6 392.49,-161.12"/>
</g>
<!-- improve&#45;prompt -->
<g id="node9" class="node">
<title>improve&#45;prompt</title>
<ellipse fill="white" stroke="black" cx="308.17" cy="-366.72" rx="49.49" ry="49.49"/>
<text text-anchor="middle" x="308.17" y="-370.52" font-family="Arial" font-size="14.00">improve&#45;</text>
<text text-anchor="middle" x="308.17" y="-355.52" font-family="Arial" font-size="14.00">prompt</text>
</g>
<!-- improve&#45;prompt&#45;&gt;commit -->
<g id="edge12" class="edge">
<title>improve&#45;prompt&#45;&gt;commit</title>
<path fill="none" stroke="#1e90ff" d="M357.72,-362.74C394.68,-361.16 446.42,-362.12 489.84,-374.72 502.05,-378.27 514.4,-384.12 525.51,-390.43"/>
<polygon fill="#1e90ff" stroke="#1e90ff" points="523.74,-393.45 534.13,-395.54 527.32,-387.43 523.74,-393.45"/>
</g>
<!-- improve&#45;prompt&#45;&gt;debug -->
<g id="edge13" class="edge">
<title>improve&#45;prompt&#45;&gt;debug</title>
<path fill="none" stroke="#228b22" d="M354.46,-384.61C368.95,-390.34 384.92,-396.66 399.15,-402.28"/>
<polygon fill="#228b22" stroke="#228b22" points="398.08,-405.62 408.67,-406.04 400.66,-399.11 398.08,-405.62"/>
</g>
<!-- optimize&#45;prompt -->
<g id="node10" class="node">
<title>optimize&#45;prompt</title>
<ellipse fill="white" stroke="black" cx="171.76" cy="-330.72" rx="50.82" ry="50.82"/>
<text text-anchor="middle" x="171.76" y="-334.52" font-family="Arial" font-size="14.00">optimize&#45;</text>
<text text-anchor="middle" x="171.76" y="-319.52" font-family="Arial" font-size="14.00">prompt</text>
</g>
<!-- optimize&#45;prompt&#45;&gt;commit -->
<g id="edge14" class="edge">
<title>optimize&#45;prompt&#45;&gt;commit</title>
<path fill="none" stroke="#1e90ff" d="M220.97,-316.12C233.16,-313.05 246.3,-310.28 258.68,-308.72 302.33,-303.22 314.39,-300.81 357.67,-308.72 419.45,-320.01 435.11,-327.91 489.84,-358.72 503.37,-366.33 517.06,-376.2 529.06,-385.73"/>
<polygon fill="#1e90ff" stroke="#1e90ff" points="527.1,-388.65 537.07,-392.24 531.52,-383.22 527.1,-388.65"/>
</g>
<!-- optimize&#45;prompt&#45;&gt;improve&#45;prompt -->
<g id="edge15" class="edge">
<title>optimize&#45;prompt&#45;&gt;improve&#45;prompt</title>
<path fill="none" stroke="#228b22" d="M221.29,-343.72C230.67,-346.23 240.57,-348.88 250.19,-351.46"/>
<polygon fill="#228b22" stroke="#228b22" points="249.5,-354.9 260.07,-354.1 251.32,-348.13 249.5,-354.9"/>
</g>
<!-- optimize&#45;prompt&#45;&gt;optimize&#45;prompt -->
<g id="edge16" class="edge">
<title>optimize&#45;prompt&#45;&gt;optimize&#45;prompt</title>
<path fill="none" stroke="#228b22" d="M147.82,-375.79C148.53,-389.2 156.51,-399.63 171.76,-399.63 182.96,-399.63 190.24,-394 193.6,-385.7"/>
<polygon fill="#228b22" stroke="#228b22" points="197.06,-386.3 195.71,-375.79 190.21,-384.84 197.06,-386.3"/>
</g>
<!-- plan&#45;shipping -->
<g id="node11" class="node">
<title>plan&#45;shipping</title>
<ellipse fill="white" stroke="black" cx="171.76" cy="-635.72" rx="47.25" ry="47.25"/>
<text text-anchor="middle" x="171.76" y="-639.52" font-family="Arial" font-size="14.00">plan&#45;</text>
<text text-anchor="middle" x="171.76" y="-624.52" font-family="Arial" font-size="14.00">shipping</text>
</g>
<!-- plan&#45;shipping&#45;&gt;read&#45;source&#45;map -->
<g id="edge17" class="edge">
<title>plan&#45;shipping&#45;&gt;read&#45;source&#45;map</title>
<path fill="none" stroke="#228b22" d="M219.02,-641.91C230.41,-643.44 242.7,-645.09 254.38,-646.65"/>
<polygon fill="#228b22" stroke="#228b22" points="254.07,-650.14 264.45,-648 255,-643.2 254.07,-650.14"/>
</g>
<!-- read&#45;source&#45;map&#45;&gt;create&#45;simple&#45;source&#45;map -->
<g id="edge18" class="edge">
<title>read&#45;source&#45;map&#45;&gt;create&#45;simple&#45;source&#45;map</title>
<path fill="none" stroke="#228b22" d="M351.89,-659.56C362.02,-660.95 372.97,-662.45 383.62,-663.9"/>
<polygon fill="#228b22" stroke="#228b22" points="383.32,-667.39 393.7,-665.28 384.27,-660.46 383.32,-667.39"/>
</g>
<!-- review&#45;mr&#45;&gt;fix&#45;mr -->
<g id="edge19" class="edge">
<title>review&#45;mr&#45;&gt;fix&#45;mr</title>
<path fill="none" stroke="#228b22" d="M84.42,-192.37C100.72,-191.77 119.31,-191.85 135.05,-192.58"/>
<polygon fill="#228b22" stroke="#228b22" points="135.24,-196.1 145.43,-193.2 135.66,-189.11 135.24,-196.1"/>
</g>
<!-- review&#45;mr&#45;&gt;review&#45;pr -->
<g id="edge20" class="edge">
<title>review&#45;mr&#45;&gt;review&#45;pr</title>
<path fill="none" stroke="#228b22" d="M79.79,-178.38C92.42,-172.26 106.91,-166.24 120.85,-162.72 213.21,-139.4 325.13,-138.78 389.13,-140.92"/>
<polygon fill="#228b22" stroke="#228b22" points="389.23,-144.43 399.36,-141.3 389.49,-137.43 389.23,-144.43"/>
</g>
<!-- review&#45;pr&#45;&gt;commit -->
<g id="edge21" class="edge">
<title>review&#45;pr&#45;&gt;commit</title>
<path fill="none" stroke="#1e90ff" d="M462.09,-180.96C470.82,-198.12 481.11,-218.83 489.84,-237.72 510.72,-282.94 532.73,-335.44 547.79,-372.21"/>
<polygon fill="#1e90ff" stroke="#1e90ff" points="544.64,-373.74 551.66,-381.67 551.12,-371.09 544.64,-373.74"/>
</g>
<!-- review&#45;pr&#45;&gt;create&#45;pr -->
<g id="edge22" class="edge">
<title>review&#45;pr&#45;&gt;create&#45;pr</title>
<path fill="none" stroke="#228b22" d="M484.32,-143.72C494.33,-143.72 505.14,-143.72 515.53,-143.72"/>
<polygon fill="#228b22" stroke="#228b22" points="515.73,-147.22 525.73,-143.72 515.73,-140.22 515.73,-147.22"/>
</g>
<!-- review&#45;pr&#45;&gt;fix&#45;pr -->
<g id="edge23" class="edge">
<title>review&#45;pr&#45;&gt;fix&#45;pr</title>
<path fill="none" stroke="#228b22" d="M404.68,-164.89C385.93,-173.62 363.09,-183.15 344.45,-190.03"/>
<polygon fill="#228b22" stroke="#228b22" points="343.09,-186.8 334.86,-193.47 345.45,-193.39 343.09,-186.8"/>
</g>
<!-- ship -->
<g id="node15" class="node">
<title>ship</title>
<ellipse fill="white" stroke="black" cx="171.76" cy="-481.72" rx="26.8" ry="26.8"/>
<text text-anchor="middle" x="171.76" y="-478.02" font-family="Arial" font-size="14.00">ship</text>
</g>
<!-- ship&#45;&gt;commit -->
<g id="edge24" class="edge">
<title>ship&#45;&gt;commit</title>
<path fill="none" stroke="#1e90ff" d="M198.52,-484.08C253.43,-488.28 385.48,-493.89 489.84,-462.72 502.03,-459.08 514.36,-453.19 525.47,-446.88"/>
<polygon fill="#1e90ff" stroke="#1e90ff" points="527.28,-449.88 534.09,-441.77 523.71,-443.86 527.28,-449.88"/>
</g>
<!-- ship&#45;&gt;debug -->
<g id="edge25" class="edge">
<title>ship&#45;&gt;debug</title>
<path fill="none" stroke="#228b22" d="M197.98,-475.79C243.73,-465.04 340.92,-442.19 397.47,-428.89"/>
<polygon fill="#228b22" stroke="#228b22" points="398.6,-432.22 407.54,-426.53 397,-425.41 398.6,-432.22"/>
</g>
<!-- ship&#45;&gt;read&#45;source&#45;map -->
<g id="edge26" class="edge">
<title>ship&#45;&gt;read&#45;source&#45;map</title>
<path fill="none" stroke="#228b22" d="M188.98,-502.47C209.99,-529.35 247.12,-576.87 274.17,-611.49"/>
<polygon fill="#228b22" stroke="#228b22" points="271.56,-613.82 280.47,-619.55 277.07,-609.51 271.56,-613.82"/>
</g>
<!-- suggest&#45;better&#45;function&#45;names -->
<g id="node17" class="node">
<title>suggest&#45;better&#45;function&#45;names</title>
<ellipse fill="white" stroke="black" cx="441.75" cy="-557.72" rx="48.17" ry="48.17"/>
<text text-anchor="middle" x="441.75" y="-576.52" font-family="Arial" font-size="14.00">suggest&#45;</text>
<text text-anchor="middle" x="441.75" y="-561.52" font-family="Arial" font-size="14.00">better&#45;</text>
<text text-anchor="middle" x="441.75" y="-546.52" font-family="Arial" font-size="14.00">function&#45;</text>
<text text-anchor="middle" x="441.75" y="-531.52" font-family="Arial" font-size="14.00">names</text>
</g>
<!-- suggest&#45;better&#45;function&#45;names&#45;&gt;commit -->
<g id="edge27" class="edge">
<title>suggest&#45;better&#45;function&#45;names&#45;&gt;commit</title>
<path fill="none" stroke="#1e90ff" d="M474.32,-522.28C492.36,-502.03 514.97,-476.64 533.28,-456.08"/>
<polygon fill="#1e90ff" stroke="#1e90ff" points="536.04,-458.25 540.08,-448.45 530.81,-453.59 536.04,-458.25"/>
</g>
</g>
</svg>
