<?xml version="1.0" encoding="UTF-8" standalone="no"?>
<!DOCTYPE svg PUBLIC "-//W3C//DTD SVG 1.1//EN"
 "http://www.w3.org/Graphics/SVG/1.1/DTD/svg11.dtd">
<!-- Generated by graphviz version 2.43.0 (0)
 -->
<!-- Title: PromptReferences Pages: 1 -->
<svg width="755pt" height="918pt"
 viewBox="0.00 0.00 755.31 918.21" xmlns="http://www.w3.org/2000/svg" xmlns:xlink="http://www.w3.org/1999/xlink">
<g id="graph0" class="graph" transform="scale(1 1) rotate(0) translate(4 914.21)">
<title>PromptReferences</title>
<!-- bump&#45;semver&#45;version -->
<g id="node1" class="node">
<title>bump&#45;semver&#45;version</title>
<ellipse fill="white" stroke="black" cx="326.56" cy="-500.83" rx="46.84" ry="46.84"/>
<text text-anchor="middle" x="326.56" y="-512.13" font-family="Arial" font-size="14.00">bump&#45;</text>
<text text-anchor="middle" x="326.56" y="-497.13" font-family="Arial" font-size="14.00">semver&#45;</text>
<text text-anchor="middle" x="326.56" y="-482.13" font-family="Arial" font-size="14.00">version</text>
</g>
<!-- commit -->
<g id="node2" class="node">
<title>commit</title>
<ellipse fill="white" stroke="black" cx="591.6" cy="-588.83" rx="40.09" ry="40.09"/>
<text text-anchor="middle" x="591.6" y="-585.13" font-family="Arial" font-size="14.00">commit</text>
</g>
<!-- bump&#45;semver&#45;version&#45;&gt;commit -->
<g id="edge1" class="edge">
<title>bump&#45;semver&#45;version&#45;&gt;commit</title>
<path fill="none" stroke="#1e90ff" d="M361.2,-532.68C375.77,-544.69 393.68,-557.26 412.06,-564.83 453.42,-581.88 504.31,-587.37 541.16,-588.9"/>
<polygon fill="#1e90ff" stroke="#1e90ff" points="541.05,-592.39 551.16,-589.23 541.28,-585.4 541.05,-592.39"/>
</g>
<!-- create&#45;mr -->
<g id="node3" class="node">
<title>create&#45;mr</title>
<ellipse fill="white" stroke="black" cx="462.97" cy="-68.83" rx="41.94" ry="41.94"/>
<text text-anchor="middle" x="462.97" y="-72.63" font-family="Arial" font-size="14.00">create&#45;</text>
<text text-anchor="middle" x="462.97" y="-57.63" font-family="Arial" font-size="14.00">mr</text>
</g>
<!-- create&#45;pr -->
<g id="node4" class="node">
<title>create&#45;pr</title>
<ellipse fill="white" stroke="black" cx="591.6" cy="-208.83" rx="41.94" ry="41.94"/>
<text text-anchor="middle" x="591.6" y="-212.63" font-family="Arial" font-size="14.00">create&#45;</text>
<text text-anchor="middle" x="591.6" y="-197.63" font-family="Arial" font-size="14.00">pr</text>
</g>
<!-- create&#45;mr&#45;&gt;create&#45;pr -->
<g id="edge2" class="edge">
<title>create&#45;mr&#45;&gt;create&#45;pr</title>
<path fill="none" stroke="#228b22" d="M491.76,-99.56C510.64,-120.44 535.77,-148.21 555.96,-170.53"/>
<polygon fill="#228b22" stroke="#228b22" points="553.57,-173.11 562.87,-178.18 558.76,-168.42 553.57,-173.11"/>
</g>
<!-- squash -->
<g id="node18" class="node">
<title>squash</title>
<ellipse fill="white" stroke="black" cx="708.31" cy="-208.83" rx="38.99" ry="38.99"/>
<text text-anchor="middle" x="708.31" y="-205.13" font-family="Arial" font-size="14.00">squash</text>
</g>
<!-- create&#45;pr&#45;&gt;squash -->
<g id="edge3" class="edge">
<title>create&#45;pr&#45;&gt;squash</title>
<path fill="none" stroke="#1e90ff" d="M633.37,-208.83C641.61,-208.83 650.35,-208.83 658.82,-208.83"/>
<polygon fill="#1e90ff" stroke="#1e90ff" points="658.98,-212.33 668.98,-208.83 658.98,-205.33 658.98,-212.33"/>
</g>
<!-- create&#45;source&#45;map -->
<g id="node5" class="node">
<title>create&#45;source&#45;map</title>
<ellipse fill="white" stroke="black" cx="462.97" cy="-862.83" rx="43.68" ry="43.68"/>
<text text-anchor="middle" x="462.97" y="-874.13" font-family="Arial" font-size="14.00">create&#45;</text>
<text text-anchor="middle" x="462.97" y="-859.13" font-family="Arial" font-size="14.00">source&#45;</text>
<text text-anchor="middle" x="462.97" y="-844.13" font-family="Arial" font-size="14.00">map</text>
</g>
<!-- create&#45;source&#45;map&#45;&gt;commit -->
<g id="edge4" class="edge">
<title>create&#45;source&#45;map&#45;&gt;commit</title>
<path fill="none" stroke="#1e90ff" d="M494.22,-831.93C501.32,-823.59 508.41,-814.25 513.88,-804.83 544.9,-751.4 566.51,-683.33 578.72,-638.03"/>
<polygon fill="#1e90ff" stroke="#1e90ff" points="582.15,-638.72 581.33,-628.16 575.39,-636.93 582.15,-638.72"/>
</g>
<!-- debug -->
<g id="node6" class="node">
<title>debug</title>
<ellipse fill="white" stroke="black" cx="462.97" cy="-727.83" rx="35.19" ry="35.19"/>
<text text-anchor="middle" x="462.97" y="-724.13" font-family="Arial" font-size="14.00">debug</text>
</g>
<!-- debug&#45;&gt;commit -->
<g id="edge5" class="edge">
<title>debug&#45;&gt;commit</title>
<path fill="none" stroke="#1e90ff" d="M489.03,-704.08C497.11,-696.2 506.01,-687.27 513.88,-678.83 529.16,-662.44 545.35,-643.67 558.91,-627.52"/>
<polygon fill="#1e90ff" stroke="#1e90ff" points="561.61,-629.75 565.33,-619.83 556.24,-625.26 561.61,-629.75"/>
</g>
<!-- enhance&#45;legacy&#45;agent -->
<g id="node7" class="node">
<title>enhance&#45;legacy&#45;agent</title>
<ellipse fill="white" stroke="black" cx="51.62" cy="-259.83" rx="51.74" ry="51.74"/>
<text text-anchor="middle" x="51.62" y="-271.13" font-family="Arial" font-size="14.00">enhance&#45;</text>
<text text-anchor="middle" x="51.62" y="-256.13" font-family="Arial" font-size="14.00">legacy&#45;</text>
<text text-anchor="middle" x="51.62" y="-241.13" font-family="Arial" font-size="14.00">agent</text>
</g>
<!-- fix&#45;mr -->
<g id="node8" class="node">
<title>fix&#45;mr</title>
<ellipse fill="white" stroke="black" cx="190.15" cy="-147.83" rx="26.74" ry="26.74"/>
<text text-anchor="middle" x="190.15" y="-151.63" font-family="Arial" font-size="14.00">fix&#45;</text>
<text text-anchor="middle" x="190.15" y="-136.63" font-family="Arial" font-size="14.00">mr</text>
</g>
<!-- fix&#45;pr -->
<g id="node9" class="node">
<title>fix&#45;pr</title>
<ellipse fill="white" stroke="black" cx="326.56" cy="-147.83" rx="26.74" ry="26.74"/>
<text text-anchor="middle" x="326.56" y="-151.63" font-family="Arial" font-size="14.00">fix&#45;</text>
<text text-anchor="middle" x="326.56" y="-136.63" font-family="Arial" font-size="14.00">pr</text>
</g>
<!-- fix&#45;mr&#45;&gt;fix&#45;pr -->
<g id="edge6" class="edge">
<title>fix&#45;mr&#45;&gt;fix&#45;pr</title>
<path fill="none" stroke="#228b22" d="M217.06,-147.83C237.57,-147.83 266.45,-147.83 289.26,-147.83"/>
<polygon fill="#228b22" stroke="#228b22" points="289.26,-151.33 299.26,-147.83 289.26,-144.33 289.26,-151.33"/>
</g>
<!-- review&#45;mr -->
<g id="node14" class="node">
<title>review&#45;mr</title>
<ellipse fill="white" stroke="black" cx="51.62" cy="-147.83" rx="42.35" ry="42.35"/>
<text text-anchor="middle" x="51.62" y="-151.63" font-family="Arial" font-size="14.00">review&#45;</text>
<text text-anchor="middle" x="51.62" y="-136.63" font-family="Arial" font-size="14.00">mr</text>
</g>
<!-- fix&#45;mr&#45;&gt;review&#45;mr -->
<g id="edge7" class="edge">
<title>fix&#45;mr&#45;&gt;review&#45;mr</title>
<path fill="none" stroke="#228b22" d="M163.82,-153.22C147.06,-154.46 124.5,-154.86 104.08,-154.4"/>
<polygon fill="#228b22" stroke="#228b22" points="104.05,-150.9 93.95,-154.09 103.84,-157.89 104.05,-150.9"/>
</g>
<!-- fix&#45;pr&#45;&gt;commit -->
<g id="edge8" class="edge">
<title>fix&#45;pr&#45;&gt;commit</title>
<path fill="none" stroke="#1e90ff" d="M352.57,-140.47C392.09,-130.52 469.11,-118.24 513.88,-157.83 542.25,-182.92 572.95,-430.22 585.15,-538.5"/>
<polygon fill="#1e90ff" stroke="#1e90ff" points="581.69,-538.98 586.28,-548.53 588.64,-538.2 581.69,-538.98"/>
</g>
<!-- fix&#45;pr&#45;&gt;create&#45;pr -->
<g id="edge9" class="edge">
<title>fix&#45;pr&#45;&gt;create&#45;pr</title>
<path fill="none" stroke="#228b22" d="M335.64,-122.43C347.07,-91.31 371.24,-39.98 412.06,-17.83 451.83,3.75 476.39,7.51 513.88,-17.83 559.71,-48.81 578.16,-112.16 585.59,-157.41"/>
<polygon fill="#228b22" stroke="#228b22" points="582.14,-157.98 587.1,-167.34 589.06,-156.93 582.14,-157.98"/>
</g>
<!-- review&#45;pr -->
<g id="node15" class="node">
<title>review&#45;pr</title>
<ellipse fill="white" stroke="black" cx="462.97" cy="-208.83" rx="42.35" ry="42.35"/>
<text text-anchor="middle" x="462.97" y="-212.63" font-family="Arial" font-size="14.00">review&#45;</text>
<text text-anchor="middle" x="462.97" y="-197.63" font-family="Arial" font-size="14.00">pr</text>
</g>
<!-- fix&#45;pr&#45;&gt;review&#45;pr -->
<g id="edge10" class="edge">
<title>fix&#45;pr&#45;&gt;review&#45;pr</title>
<path fill="none" stroke="#228b22" d="M352.84,-153.9C371.07,-160.81 396.16,-171.87 417.68,-182.35"/>
<polygon fill="#228b22" stroke="#228b22" points="416.14,-185.49 426.66,-186.78 419.24,-179.21 416.14,-185.49"/>
</g>
<!-- improve&#45;prompt -->
<g id="node10" class="node">
<title>improve&#45;prompt</title>
<ellipse fill="white" stroke="black" cx="326.56" cy="-713.83" rx="49.49" ry="49.49"/>
<text text-anchor="middle" x="326.56" y="-717.63" font-family="Arial" font-size="14.00">improve&#45;</text>
<text text-anchor="middle" x="326.56" y="-702.63" font-family="Arial" font-size="14.00">prompt</text>
</g>
<!-- improve&#45;prompt&#45;&gt;commit -->
<g id="edge11" class="edge">
<title>improve&#45;prompt&#45;&gt;commit</title>
<path fill="none" stroke="#1e90ff" d="M373.54,-697.15C420.14,-680.01 488.82,-654.02 513.88,-640.83 526.13,-634.38 538.82,-626.39 550.26,-618.63"/>
<polygon fill="#1e90ff" stroke="#1e90ff" points="552.51,-621.33 558.74,-612.76 548.52,-615.57 552.51,-621.33"/>
</g>
<!-- improve&#45;prompt&#45;&gt;debug -->
<g id="edge12" class="edge">
<title>improve&#45;prompt&#45;&gt;debug</title>
<path fill="none" stroke="#228b22" d="M376.08,-718.89C389.61,-720.3 404.24,-721.82 417.52,-723.2"/>
<polygon fill="#228b22" stroke="#228b22" points="417.52,-726.72 427.83,-724.28 418.25,-719.76 417.52,-726.72"/>
</g>
<!-- optimize&#45;prompt -->
<g id="node11" class="node">
<title>optimize&#45;prompt</title>
<ellipse fill="white" stroke="black" cx="190.15" cy="-720.83" rx="50.82" ry="50.82"/>
<text text-anchor="middle" x="190.15" y="-724.63" font-family="Arial" font-size="14.00">optimize&#45;</text>
<text text-anchor="middle" x="190.15" y="-709.63" font-family="Arial" font-size="14.00">prompt</text>
</g>
<!-- optimize&#45;prompt&#45;&gt;commit -->
<g id="edge13" class="edge">
<title>optimize&#45;prompt&#45;&gt;commit</title>
<path fill="none" stroke="#1e90ff" d="M231.49,-750.8C245.24,-759.32 261.17,-767.47 277.06,-771.83 378.56,-799.69 426.24,-830.12 513.88,-771.83 557.96,-742.51 576.77,-682.45 584.75,-639.12"/>
<polygon fill="#1e90ff" stroke="#1e90ff" points="588.24,-639.49 586.47,-629.04 581.34,-638.31 588.24,-639.49"/>
</g>
<!-- optimize&#45;prompt&#45;&gt;improve&#45;prompt -->
<g id="edge14" class="edge">
<title>optimize&#45;prompt&#45;&gt;improve&#45;prompt</title>
<path fill="none" stroke="#228b22" d="M241.2,-718.23C249.48,-717.8 258.13,-717.35 266.6,-716.9"/>
<polygon fill="#228b22" stroke="#228b22" points="267,-720.39 276.81,-716.37 266.64,-713.4 267,-720.39"/>
</g>
<!-- optimize&#45;prompt&#45;&gt;optimize&#45;prompt -->
<g id="edge15" class="edge">
<title>optimize&#45;prompt&#45;&gt;optimize&#45;prompt</title>
<path fill="none" stroke="#228b22" d="M164.66,-764.91C165.05,-778.79 173.55,-789.75 190.15,-789.75 202.47,-789.75 210.33,-783.71 213.72,-774.92"/>
<polygon fill="#228b22" stroke="#228b22" points="217.19,-775.39 215.64,-764.91 210.32,-774.07 217.19,-775.39"/>
</g>
<!-- plan&#45;shipping -->
<g id="node12" class="node">
<title>plan&#45;shipping</title>
<ellipse fill="white" stroke="black" cx="190.15" cy="-862.83" rx="47.25" ry="47.25"/>
<text text-anchor="middle" x="190.15" y="-866.63" font-family="Arial" font-size="14.00">plan&#45;</text>
<text text-anchor="middle" x="190.15" y="-851.63" font-family="Arial" font-size="14.00">shipping</text>
</g>
<!-- read&#45;source&#45;map -->
<g id="node13" class="node">
<title>read&#45;source&#45;map</title>
<ellipse fill="white" stroke="black" cx="326.56" cy="-862.83" rx="43.68" ry="43.68"/>
<text text-anchor="middle" x="326.56" y="-874.13" font-family="Arial" font-size="14.00">read&#45;</text>
<text text-anchor="middle" x="326.56" y="-859.13" font-family="Arial" font-size="14.00">source&#45;</text>
<text text-anchor="middle" x="326.56" y="-844.13" font-family="Arial" font-size="14.00">map</text>
</g>
<!-- plan&#45;shipping&#45;&gt;read&#45;source&#45;map -->
<g id="edge16" class="edge">
<title>plan&#45;shipping&#45;&gt;read&#45;source&#45;map</title>
<path fill="none" stroke="#228b22" d="M237.78,-862.83C248.93,-862.83 260.91,-862.83 272.33,-862.83"/>
<polygon fill="#228b22" stroke="#228b22" points="272.61,-866.33 282.61,-862.83 272.61,-859.33 272.61,-866.33"/>
</g>
<!-- read&#45;source&#45;map&#45;&gt;create&#45;source&#45;map -->
<g id="edge17" class="edge">
<title>read&#45;source&#45;map&#45;&gt;create&#45;source&#45;map</title>
<path fill="none" stroke="#228b22" d="M370.46,-862.83C382.7,-862.83 396.19,-862.83 408.96,-862.83"/>
<polygon fill="#228b22" stroke="#228b22" points="409.02,-866.33 419.02,-862.83 409.02,-859.33 409.02,-866.33"/>
</g>
<!-- review&#45;mr&#45;&gt;fix&#45;mr -->
<g id="edge18" class="edge">
<title>review&#45;mr&#45;&gt;fix&#45;mr</title>
<path fill="none" stroke="#228b22" d="M93.95,-141.57C112.98,-140.84 135.33,-140.93 153.59,-141.83"/>
<polygon fill="#228b22" stroke="#228b22" points="153.62,-145.33 163.82,-142.45 154.05,-138.35 153.62,-145.33"/>
</g>
<!-- review&#45;mr&#45;&gt;review&#45;pr -->
<g id="edge19" class="edge">
<title>review&#45;mr&#45;&gt;review&#45;pr</title>
<path fill="none" stroke="#228b22" d="M90.12,-166.47C105.05,-173.07 122.61,-179.84 139.24,-183.83 232.8,-206.29 345.57,-209.89 410.01,-209.81"/>
<polygon fill="#228b22" stroke="#228b22" points="410.32,-213.31 420.31,-209.77 410.29,-206.31 410.32,-213.31"/>
</g>
<!-- review&#45;pr&#45;&gt;commit -->
<g id="edge20" class="edge">
<title>review&#45;pr&#45;&gt;commit</title>
<path fill="none" stroke="#1e90ff" d="M486.51,-244.18C495.95,-260.11 506.44,-279.44 513.88,-297.83 546.97,-379.62 569.78,-480.12 581.48,-539.07"/>
<polygon fill="#1e90ff" stroke="#1e90ff" points="578.12,-540.08 583.47,-549.22 584.99,-538.73 578.12,-540.08"/>
</g>
<!-- review&#45;pr&#45;&gt;create&#45;pr -->
<g id="edge21" class="edge">
<title>review&#45;pr&#45;&gt;create&#45;pr</title>
<path fill="none" stroke="#228b22" d="M505.43,-208.83C516.26,-208.83 528.05,-208.83 539.32,-208.83"/>
<polygon fill="#228b22" stroke="#228b22" points="539.47,-212.33 549.47,-208.83 539.47,-205.33 539.47,-212.33"/>
</g>
<!-- review&#45;pr&#45;&gt;fix&#45;pr -->
<g id="edge22" class="edge">
<title>review&#45;pr&#45;&gt;fix&#45;pr</title>
<path fill="none" stroke="#228b22" d="M421.99,-196.92C401.58,-188.48 377.12,-177.23 358.22,-167.52"/>
<polygon fill="#228b22" stroke="#228b22" points="359.63,-164.31 349.15,-162.75 356.37,-170.5 359.63,-164.31"/>
</g>
<!-- ship -->
<g id="node16" class="node">
<title>ship</title>
<ellipse fill="white" stroke="black" cx="326.56" cy="-383.83" rx="26.8" ry="26.8"/>
<text text-anchor="middle" x="326.56" y="-380.13" font-family="Arial" font-size="14.00">ship</text>
</g>
<!-- ship&#45;&gt;commit -->
<g id="edge23" class="edge">
<title>ship&#45;&gt;commit</title>
<path fill="none" stroke="#1e90ff" d="M345.22,-403.14C355.15,-414.66 367.27,-429.91 376.06,-444.83 397.28,-480.9 381.26,-503.5 412.06,-531.83 413.32,-532.99 490.39,-557.36 542.85,-573.85"/>
<polygon fill="#1e90ff" stroke="#1e90ff" points="542.07,-577.28 552.66,-576.94 544.17,-570.6 542.07,-577.28"/>
</g>
<!-- switch&#45;branches -->
<g id="node20" class="node">
<title>switch&#45;branches</title>
<ellipse fill="white" stroke="black" cx="462.97" cy="-357.83" rx="50.82" ry="50.82"/>
<text text-anchor="middle" x="462.97" y="-361.63" font-family="Arial" font-size="14.00">switch&#45;</text>
<text text-anchor="middle" x="462.97" y="-346.63" font-family="Arial" font-size="14.00">branches</text>
</g>
<!-- ship&#45;&gt;switch&#45;branches -->
<g id="edge24" class="edge">
<title>ship&#45;&gt;switch&#45;branches</title>
<path fill="none" stroke="#228b22" d="M352.84,-378.94C366.95,-376.21 385.17,-372.69 402.67,-369.31"/>
<polygon fill="#228b22" stroke="#228b22" points="403.69,-372.67 412.85,-367.34 402.36,-365.8 403.69,-372.67"/>
</g>
<!-- ship&#45;gh&#45;issue -->
<g id="node17" class="node">
<title>ship&#45;gh&#45;issue</title>
<ellipse fill="white" stroke="black" cx="190.15" cy="-383.83" rx="37.45" ry="37.45"/>
<text text-anchor="middle" x="190.15" y="-395.13" font-family="Arial" font-size="14.00">ship&#45;</text>
<text text-anchor="middle" x="190.15" y="-380.13" font-family="Arial" font-size="14.00">gh&#45;</text>
<text text-anchor="middle" x="190.15" y="-365.13" font-family="Arial" font-size="14.00">issue</text>
</g>
<!-- ship&#45;gh&#45;issue&#45;&gt;bump&#45;semver&#45;version -->
<g id="edge25" class="edge">
<title>ship&#45;gh&#45;issue&#45;&gt;bump&#45;semver&#45;version</title>
<path fill="none" stroke="#228b22" d="M219,-408.08C237.41,-424.1 261.9,-445.42 282.76,-463.58"/>
<polygon fill="#228b22" stroke="#228b22" points="280.72,-466.44 290.56,-470.37 285.31,-461.16 280.72,-466.44"/>
</g>
<!-- ship&#45;gh&#45;issue&#45;&gt;commit -->
<g id="edge26" class="edge">
<title>ship&#45;gh&#45;issue&#45;&gt;commit</title>
<path fill="none" stroke="#1e90ff" d="M199.52,-420.41C210.52,-460.01 233.73,-522.16 277.06,-556.83 353.05,-617.64 474.81,-609.4 542.05,-598.7"/>
<polygon fill="#1e90ff" stroke="#1e90ff" points="542.67,-602.15 551.96,-597.04 541.52,-595.24 542.67,-602.15"/>
</g>
<!-- ship&#45;gh&#45;issue&#45;&gt;create&#45;pr -->
<g id="edge27" class="edge">
<title>ship&#45;gh&#45;issue&#45;&gt;create&#45;pr</title>
<path fill="none" stroke="#228b22" d="M224.89,-369.32C240.67,-362.63 259.76,-354.67 277.06,-347.83 280.32,-346.54 510.75,-261.43 513.88,-259.83 525.8,-253.76 538.13,-246.21 549.32,-238.79"/>
<polygon fill="#228b22" stroke="#228b22" points="551.3,-241.67 557.63,-233.18 547.38,-235.87 551.3,-241.67"/>
</g>
<!-- ship&#45;gh&#45;issue&#45;&gt;review&#45;pr -->
<g id="edge28" class="edge">
<title>ship&#45;gh&#45;issue&#45;&gt;review&#45;pr</title>
<path fill="none" stroke="#228b22" d="M207.43,-350.4C222.12,-323.58 246.16,-286.89 277.06,-264.83 316.87,-236.43 371.32,-222.21 410.81,-215.24"/>
<polygon fill="#228b22" stroke="#228b22" points="411.48,-218.68 420.77,-213.58 410.33,-211.77 411.48,-218.68"/>
</g>
<!-- ship&#45;gh&#45;issue&#45;&gt;ship -->
<g id="edge29" class="edge">
<title>ship&#45;gh&#45;issue&#45;&gt;ship</title>
<path fill="none" stroke="#228b22" d="M227.88,-383.83C247.03,-383.83 270.37,-383.83 289.43,-383.83"/>
<polygon fill="#228b22" stroke="#228b22" points="289.52,-387.33 299.52,-383.83 289.52,-380.33 289.52,-387.33"/>
</g>
<!-- suggest&#45;better&#45;function&#45;names -->
<g id="node19" class="node">
<title>suggest&#45;better&#45;function&#45;names</title>
<ellipse fill="white" stroke="black" cx="462.97" cy="-474.83" rx="48.17" ry="48.17"/>
<text text-anchor="middle" x="462.97" y="-493.63" font-family="Arial" font-size="14.00">suggest&#45;</text>
<text text-anchor="middle" x="462.97" y="-478.63" font-family="Arial" font-size="14.00">better&#45;</text>
<text text-anchor="middle" x="462.97" y="-463.63" font-family="Arial" font-size="14.00">function&#45;</text>
<text text-anchor="middle" x="462.97" y="-448.63" font-family="Arial" font-size="14.00">names</text>
</g>
<!-- suggest&#45;better&#45;function&#45;names&#45;&gt;commit -->
<g id="edge30" class="edge">
<title>suggest&#45;better&#45;function&#45;names&#45;&gt;commit</title>
<path fill="none" stroke="#1e90ff" d="M499.24,-506.59C516.12,-521.79 536.34,-539.98 553.45,-555.39"/>
<polygon fill="#1e90ff" stroke="#1e90ff" points="551.3,-558.17 561.08,-562.26 555.99,-552.96 551.3,-558.17"/>
</g>
<!-- switch&#45;branches&#45;&gt;commit -->
<g id="edge31" class="edge">
<title>switch&#45;branches&#45;&gt;commit</title>
<path fill="none" stroke="#1e90ff" d="M497.81,-395.39C503.54,-402.58 509.15,-410.25 513.88,-417.83 538.52,-457.32 559.58,-506.08 573.36,-541.41"/>
<polygon fill="#1e90ff" stroke="#1e90ff" points="570.2,-542.92 577.05,-551 576.73,-540.41 570.2,-542.92"/>
</g>
<!-- switch&#45;branches&#45;&gt;create&#45;pr -->
<g id="edge32" class="edge">
<title>switch&#45;branches&#45;&gt;create&#45;pr</title>
<path fill="none" stroke="#228b22" d="M496.58,-319.46C515.11,-297.65 538.28,-270.39 556.98,-248.39"/>
<polygon fill="#228b22" stroke="#228b22" points="559.84,-250.43 563.65,-240.54 554.51,-245.89 559.84,-250.43"/>
</g>
</g>
</svg>
