<?xml version="1.0" encoding="UTF-8" standalone="no"?>
<!DOCTYPE svg PUBLIC "-//W3C//DTD SVG 1.1//EN"
 "http://www.w3.org/Graphics/SVG/1.1/DTD/svg11.dtd">
<!-- Generated by graphviz version 2.43.0 (0)
 -->
<!-- Title: PromptReferences Pages: 1 -->
<svg width="731pt" height="916pt"
 viewBox="0.00 0.00 731.27 916.10" xmlns="http://www.w3.org/2000/svg" xmlns:xlink="http://www.w3.org/1999/xlink">
<g id="graph0" class="graph" transform="scale(1 1) rotate(0) translate(4 912.1)">
<title>PromptReferences</title>
<!-- bump&#45;semver&#45;version -->
<g id="node1" class="node">
<title>bump&#45;semver&#45;version</title>
<ellipse fill="white" stroke="black" cx="441.75" cy="-435.72" rx="46.84" ry="46.84"/>
<text text-anchor="middle" x="441.75" y="-447.02" font-family="Arial" font-size="14.00">bump&#45;</text>
<text text-anchor="middle" x="441.75" y="-432.02" font-family="Arial" font-size="14.00">semver&#45;</text>
<text text-anchor="middle" x="441.75" y="-417.02" font-family="Arial" font-size="14.00">version</text>
</g>
<!-- commit -->
<g id="node2" class="node">
<title>commit</title>
<ellipse fill="white" stroke="black" cx="567.56" cy="-529.72" rx="40.09" ry="40.09"/>
<text text-anchor="middle" x="567.56" y="-526.02" font-family="Arial" font-size="14.00">commit</text>
</g>
<!-- bump&#45;semver&#45;version&#45;&gt;commit -->
<g id="edge1" class="edge">
<title>bump&#45;semver&#45;version&#45;&gt;commit</title>
<path fill="none" stroke="#1e90ff" d="M479.56,-463.67C494.36,-474.9 511.45,-487.88 526.55,-499.35"/>
<polygon fill="#1e90ff" stroke="#1e90ff" points="524.63,-502.28 534.71,-505.54 528.86,-496.7 524.63,-502.28"/>
</g>
<!-- create&#45;mr -->
<g id="node3" class="node">
<title>create&#45;mr</title>
<ellipse fill="white" stroke="black" cx="441.75" cy="-41.72" rx="41.94" ry="41.94"/>
<text text-anchor="middle" x="441.75" y="-45.52" font-family="Arial" font-size="14.00">create&#45;</text>
<text text-anchor="middle" x="441.75" y="-30.52" font-family="Arial" font-size="14.00">mr</text>
</g>
<!-- create&#45;pr -->
<g id="node4" class="node">
<title>create&#45;pr</title>
<ellipse fill="white" stroke="black" cx="567.56" cy="-146.72" rx="41.94" ry="41.94"/>
<text text-anchor="middle" x="567.56" y="-150.52" font-family="Arial" font-size="14.00">create&#45;</text>
<text text-anchor="middle" x="567.56" y="-135.52" font-family="Arial" font-size="14.00">pr</text>
</g>
<!-- create&#45;mr&#45;&gt;create&#45;pr -->
<g id="edge2" class="edge">
<title>create&#45;mr&#45;&gt;create&#45;pr</title>
<path fill="none" stroke="#228b22" d="M474,-68.22C490.15,-81.91 510.02,-98.77 527.21,-113.35"/>
<polygon fill="#228b22" stroke="#228b22" points="525.01,-116.07 534.9,-119.87 529.53,-110.73 525.01,-116.07"/>
</g>
<!-- squash -->
<g id="node17" class="node">
<title>squash</title>
<ellipse fill="white" stroke="black" cx="684.27" cy="-146.72" rx="38.99" ry="38.99"/>
<text text-anchor="middle" x="684.27" y="-143.02" font-family="Arial" font-size="14.00">squash</text>
</g>
<!-- create&#45;pr&#45;&gt;squash -->
<g id="edge3" class="edge">
<title>create&#45;pr&#45;&gt;squash</title>
<path fill="none" stroke="#1e90ff" d="M609.32,-146.72C617.57,-146.72 626.31,-146.72 634.78,-146.72"/>
<polygon fill="#1e90ff" stroke="#1e90ff" points="634.94,-150.22 644.94,-146.72 634.94,-143.22 634.94,-150.22"/>
</g>
<!-- create&#45;source&#45;map -->
<g id="node5" class="node">
<title>create&#45;source&#45;map</title>
<ellipse fill="white" stroke="black" cx="441.75" cy="-860.72" rx="43.68" ry="43.68"/>
<text text-anchor="middle" x="441.75" y="-872.02" font-family="Arial" font-size="14.00">create&#45;</text>
<text text-anchor="middle" x="441.75" y="-857.02" font-family="Arial" font-size="14.00">source&#45;</text>
<text text-anchor="middle" x="441.75" y="-842.02" font-family="Arial" font-size="14.00">map</text>
</g>
<!-- create&#45;source&#45;map&#45;&gt;commit -->
<g id="edge4" class="edge">
<title>create&#45;source&#45;map&#45;&gt;commit</title>
<path fill="none" stroke="#1e90ff" d="M472.4,-828.93C478.84,-820.82 485.13,-811.82 489.84,-802.72 527.57,-729.88 548.68,-636.2 558.83,-579.67"/>
<polygon fill="#1e90ff" stroke="#1e90ff" points="562.32,-580.02 560.6,-569.56 555.43,-578.81 562.32,-580.02"/>
</g>
<!-- debug -->
<g id="node6" class="node">
<title>debug</title>
<ellipse fill="white" stroke="black" cx="441.75" cy="-611.72" rx="35.19" ry="35.19"/>
<text text-anchor="middle" x="441.75" y="-608.02" font-family="Arial" font-size="14.00">debug</text>
</g>
<!-- debug&#45;&gt;commit -->
<g id="edge5" class="edge">
<title>debug&#45;&gt;commit</title>
<path fill="none" stroke="#1e90ff" d="M471.47,-592.7C487.43,-582.13 507.57,-568.79 525.2,-557.11"/>
<polygon fill="#1e90ff" stroke="#1e90ff" points="527.22,-559.97 533.62,-551.53 523.35,-554.14 527.22,-559.97"/>
</g>
<!-- fix&#45;mr -->
<g id="node7" class="node">
<title>fix&#45;mr</title>
<ellipse fill="white" stroke="black" cx="171.76" cy="-181.72" rx="26.74" ry="26.74"/>
<text text-anchor="middle" x="171.76" y="-185.52" font-family="Arial" font-size="14.00">fix&#45;</text>
<text text-anchor="middle" x="171.76" y="-170.52" font-family="Arial" font-size="14.00">mr</text>
</g>
<!-- fix&#45;pr -->
<g id="node8" class="node">
<title>fix&#45;pr</title>
<ellipse fill="white" stroke="black" cx="308.17" cy="-181.72" rx="26.74" ry="26.74"/>
<text text-anchor="middle" x="308.17" y="-185.52" font-family="Arial" font-size="14.00">fix&#45;</text>
<text text-anchor="middle" x="308.17" y="-170.52" font-family="Arial" font-size="14.00">pr</text>
</g>
<!-- fix&#45;mr&#45;&gt;fix&#45;pr -->
<g id="edge6" class="edge">
<title>fix&#45;mr&#45;&gt;fix&#45;pr</title>
<path fill="none" stroke="#228b22" d="M198.68,-181.72C219.19,-181.72 248.07,-181.72 270.88,-181.72"/>
<polygon fill="#228b22" stroke="#228b22" points="270.88,-185.22 280.88,-181.72 270.88,-178.22 270.88,-185.22"/>
</g>
<!-- review&#45;mr -->
<g id="node13" class="node">
<title>review&#45;mr</title>
<ellipse fill="white" stroke="black" cx="42.43" cy="-181.72" rx="42.35" ry="42.35"/>
<text text-anchor="middle" x="42.43" y="-185.52" font-family="Arial" font-size="14.00">review&#45;</text>
<text text-anchor="middle" x="42.43" y="-170.52" font-family="Arial" font-size="14.00">mr</text>
</g>
<!-- fix&#45;mr&#45;&gt;review&#45;mr -->
<g id="edge7" class="edge">
<title>fix&#45;mr&#45;&gt;review&#45;mr</title>
<path fill="none" stroke="#228b22" d="M145.43,-187.24C130.87,-188.31 112.04,-188.68 94.53,-188.35"/>
<polygon fill="#228b22" stroke="#228b22" points="94.51,-184.85 84.42,-188.07 94.32,-191.85 94.51,-184.85"/>
</g>
<!-- fix&#45;pr&#45;&gt;commit -->
<g id="edge8" class="edge">
<title>fix&#45;pr&#45;&gt;commit</title>
<path fill="none" stroke="#1e90ff" d="M331.56,-195.03C374.76,-221.11 467.39,-278.95 489.84,-308.72 528.45,-359.93 548.62,-432.05 558.41,-479.8"/>
<polygon fill="#1e90ff" stroke="#1e90ff" points="555.03,-480.77 560.4,-489.9 561.9,-479.41 555.03,-480.77"/>
</g>
<!-- fix&#45;pr&#45;&gt;create&#45;pr -->
<g id="edge9" class="edge">
<title>fix&#45;pr&#45;&gt;create&#45;pr</title>
<path fill="none" stroke="#228b22" d="M329.56,-165.03C345.81,-152.86 369.74,-137.38 393.67,-130.72 434.37,-119.39 482.33,-125.26 517.4,-132.9"/>
<polygon fill="#228b22" stroke="#228b22" points="516.86,-136.36 527.39,-135.19 518.43,-129.54 516.86,-136.36"/>
</g>
<!-- review&#45;pr -->
<g id="node14" class="node">
<title>review&#45;pr</title>
<ellipse fill="white" stroke="black" cx="441.75" cy="-181.72" rx="42.35" ry="42.35"/>
<text text-anchor="middle" x="441.75" y="-185.52" font-family="Arial" font-size="14.00">review&#45;</text>
<text text-anchor="middle" x="441.75" y="-170.52" font-family="Arial" font-size="14.00">pr</text>
</g>
<!-- fix&#45;pr&#45;&gt;review&#45;pr -->
<g id="edge10" class="edge">
<title>fix&#45;pr&#45;&gt;review&#45;pr</title>
<path fill="none" stroke="#228b22" d="M334.54,-176.26C350.11,-175.11 370.6,-174.73 389.43,-175.12"/>
<polygon fill="#228b22" stroke="#228b22" points="389.58,-178.62 399.67,-175.41 389.78,-171.63 389.58,-178.62"/>
</g>
<!-- improve&#45;prompt -->
<g id="node9" class="node">
<title>improve&#45;prompt</title>
<ellipse fill="white" stroke="black" cx="308.17" cy="-611.72" rx="49.49" ry="49.49"/>
<text text-anchor="middle" x="308.17" y="-615.52" font-family="Arial" font-size="14.00">improve&#45;</text>
<text text-anchor="middle" x="308.17" y="-600.52" font-family="Arial" font-size="14.00">prompt</text>
</g>
<!-- improve&#45;prompt&#45;&gt;commit -->
<g id="edge11" class="edge">
<title>improve&#45;prompt&#45;&gt;commit</title>
<path fill="none" stroke="#1e90ff" d="M351.17,-587.08C364.43,-580.05 379.37,-572.91 393.67,-567.72 434.29,-552.97 482.45,-542.96 517.61,-536.93"/>
<polygon fill="#1e90ff" stroke="#1e90ff" points="518.33,-540.36 527.62,-535.26 517.18,-533.46 518.33,-540.36"/>
</g>
<!-- improve&#45;prompt&#45;&gt;debug -->
<g id="edge12" class="edge">
<title>improve&#45;prompt&#45;&gt;debug</title>
<path fill="none" stroke="#228b22" d="M357.8,-611.72C370.38,-611.72 383.86,-611.72 396.22,-611.72"/>
<polygon fill="#228b22" stroke="#228b22" points="396.3,-615.22 406.3,-611.72 396.3,-608.22 396.3,-615.22"/>
</g>
<!-- optimize&#45;prompt -->
<g id="node10" class="node">
<title>optimize&#45;prompt</title>
<ellipse fill="white" stroke="black" cx="171.76" cy="-668.72" rx="50.82" ry="50.82"/>
<text text-anchor="middle" x="171.76" y="-672.52" font-family="Arial" font-size="14.00">optimize&#45;</text>
<text text-anchor="middle" x="171.76" y="-657.52" font-family="Arial" font-size="14.00">prompt</text>
</g>
<!-- optimize&#45;prompt&#45;&gt;commit -->
<g id="edge13" class="edge">
<title>optimize&#45;prompt&#45;&gt;commit</title>
<path fill="none" stroke="#1e90ff" d="M211.2,-701.26C274.65,-750.84 402.94,-833.17 489.84,-769.72 549.04,-726.49 563.61,-637.02 566.61,-580.37"/>
<polygon fill="#1e90ff" stroke="#1e90ff" points="570.11,-580.34 567.04,-570.2 563.12,-580.04 570.11,-580.34"/>
</g>
<!-- optimize&#45;prompt&#45;&gt;improve&#45;prompt -->
<g id="edge14" class="edge">
<title>optimize&#45;prompt&#45;&gt;improve&#45;prompt</title>
<path fill="none" stroke="#228b22" d="M219.02,-649.1C229.94,-644.47 241.67,-639.5 252.91,-634.73"/>
<polygon fill="#228b22" stroke="#228b22" points="254.36,-637.92 262.2,-630.79 251.62,-631.48 254.36,-637.92"/>
</g>
<!-- optimize&#45;prompt&#45;&gt;optimize&#45;prompt -->
<g id="edge15" class="edge">
<title>optimize&#45;prompt&#45;&gt;optimize&#45;prompt</title>
<path fill="none" stroke="#228b22" d="M147.82,-713.79C148.53,-727.2 156.51,-737.63 171.76,-737.63 182.96,-737.63 190.24,-732 193.6,-723.7"/>
<polygon fill="#228b22" stroke="#228b22" points="197.06,-724.3 195.71,-713.79 190.21,-722.84 197.06,-724.3"/>
</g>
<!-- plan&#45;shipping -->
<g id="node11" class="node">
<title>plan&#45;shipping</title>
<ellipse fill="white" stroke="black" cx="171.76" cy="-860.72" rx="47.25" ry="47.25"/>
<text text-anchor="middle" x="171.76" y="-864.52" font-family="Arial" font-size="14.00">plan&#45;</text>
<text text-anchor="middle" x="171.76" y="-849.52" font-family="Arial" font-size="14.00">shipping</text>
</g>
<!-- read&#45;source&#45;map -->
<g id="node12" class="node">
<title>read&#45;source&#45;map</title>
<ellipse fill="white" stroke="black" cx="308.17" cy="-860.72" rx="43.68" ry="43.68"/>
<text text-anchor="middle" x="308.17" y="-872.02" font-family="Arial" font-size="14.00">read&#45;</text>
<text text-anchor="middle" x="308.17" y="-857.02" font-family="Arial" font-size="14.00">source&#45;</text>
<text text-anchor="middle" x="308.17" y="-842.02" font-family="Arial" font-size="14.00">map</text>
</g>
<!-- plan&#45;shipping&#45;&gt;read&#45;source&#45;map -->
<g id="edge16" class="edge">
<title>plan&#45;shipping&#45;&gt;read&#45;source&#45;map</title>
<path fill="none" stroke="#228b22" d="M219.4,-860.72C230.54,-860.72 242.52,-860.72 253.94,-860.72"/>
<polygon fill="#228b22" stroke="#228b22" points="254.23,-864.22 264.23,-860.72 254.23,-857.22 254.23,-864.22"/>
</g>
<!-- read&#45;source&#45;map&#45;&gt;create&#45;source&#45;map -->
<g id="edge17" class="edge">
<title>read&#45;source&#45;map&#45;&gt;create&#45;source&#45;map</title>
<path fill="none" stroke="#228b22" d="M352.26,-860.72C363.5,-860.72 375.76,-860.72 387.47,-860.72"/>
<polygon fill="#228b22" stroke="#228b22" points="387.57,-864.22 397.57,-860.72 387.57,-857.22 387.57,-864.22"/>
</g>
<!-- review&#45;mr&#45;&gt;fix&#45;mr -->
<g id="edge18" class="edge">
<title>review&#45;mr&#45;&gt;fix&#45;mr</title>
<path fill="none" stroke="#228b22" d="M84.42,-175.37C100.72,-174.77 119.31,-174.85 135.05,-175.58"/>
<polygon fill="#228b22" stroke="#228b22" points="135.24,-179.1 145.43,-176.2 135.66,-172.11 135.24,-179.1"/>
</g>
<!-- review&#45;mr&#45;&gt;review&#45;pr -->
<g id="edge19" class="edge">
<title>review&#45;mr&#45;&gt;review&#45;pr</title>
<path fill="none" stroke="#228b22" d="M79.68,-160.9C92.3,-154.74 106.81,-148.82 120.85,-145.72 223.62,-123 254.61,-124.35 357.67,-145.72 370.06,-148.29 382.87,-152.8 394.61,-157.78"/>
<polygon fill="#228b22" stroke="#228b22" points="393.21,-160.99 403.77,-161.84 396.05,-154.59 393.21,-160.99"/>
</g>
<!-- review&#45;pr&#45;&gt;commit -->
<g id="edge20" class="edge">
<title>review&#45;pr&#45;&gt;commit</title>
<path fill="none" stroke="#1e90ff" d="M472.04,-211.64C478.65,-219.62 485.1,-228.58 489.84,-237.72 530.75,-316.69 551.13,-419.26 560.23,-479.45"/>
<polygon fill="#1e90ff" stroke="#1e90ff" points="556.78,-480.07 561.69,-489.46 563.71,-479.06 556.78,-480.07"/>
</g>
<!-- review&#45;pr&#45;&gt;create&#45;pr -->
<g id="edge21" class="edge">
<title>review&#45;pr&#45;&gt;create&#45;pr</title>
<path fill="none" stroke="#228b22" d="M482.95,-170.36C493.87,-167.27 505.83,-163.89 517.19,-160.68"/>
<polygon fill="#228b22" stroke="#228b22" points="518.32,-163.99 526.99,-157.91 516.41,-157.26 518.32,-163.99"/>
</g>
<!-- review&#45;pr&#45;&gt;fix&#45;pr -->
<g id="edge22" class="edge">
<title>review&#45;pr&#45;&gt;fix&#45;pr</title>
<path fill="none" stroke="#228b22" d="M399.67,-188.03C382.02,-188.69 361.59,-188.61 344.61,-187.79"/>
<polygon fill="#228b22" stroke="#228b22" points="344.74,-184.29 334.54,-187.18 344.31,-191.27 344.74,-184.29"/>
</g>
<!-- ship -->
<g id="node15" class="node">
<title>ship</title>
<ellipse fill="white" stroke="black" cx="441.75" cy="-344.72" rx="26.8" ry="26.8"/>
<text text-anchor="middle" x="441.75" y="-341.02" font-family="Arial" font-size="14.00">ship</text>
</g>
<!-- ship&#45;&gt;commit -->
<g id="edge23" class="edge">
<title>ship&#45;&gt;commit</title>
<path fill="none" stroke="#1e90ff" d="M465.12,-358.2C473.59,-364.06 482.86,-371.48 489.84,-379.72 515.78,-410.38 535.96,-451.3 549.1,-482.65"/>
<polygon fill="#1e90ff" stroke="#1e90ff" points="545.92,-484.13 552.95,-492.05 552.4,-481.47 545.92,-484.13"/>
</g>
<!-- ship&#45;gh&#45;issue -->
<g id="node16" class="node">
<title>ship&#45;gh&#45;issue</title>
<ellipse fill="white" stroke="black" cx="308.17" cy="-344.72" rx="37.45" ry="37.45"/>
<text text-anchor="middle" x="308.17" y="-356.02" font-family="Arial" font-size="14.00">ship&#45;</text>
<text text-anchor="middle" x="308.17" y="-341.02" font-family="Arial" font-size="14.00">gh&#45;</text>
<text text-anchor="middle" x="308.17" y="-326.02" font-family="Arial" font-size="14.00">issue</text>
</g>
<!-- ship&#45;gh&#45;issue&#45;&gt;bump&#45;semver&#45;version -->
<g id="edge24" class="edge">
<title>ship&#45;gh&#45;issue&#45;&gt;bump&#45;semver&#45;version</title>
<path fill="none" stroke="#228b22" d="M339.36,-365.6C355.53,-376.78 375.81,-390.8 393.97,-403.36"/>
<polygon fill="#228b22" stroke="#228b22" points="392.47,-406.59 402.69,-409.39 396.46,-400.83 392.47,-406.59"/>
</g>
<!-- ship&#45;gh&#45;issue&#45;&gt;commit -->
<g id="edge25" class="edge">
<title>ship&#45;gh&#45;issue&#45;&gt;commit</title>
<path fill="none" stroke="#1e90ff" d="M320.23,-380.44C332.62,-414.35 356.05,-464.13 393.67,-491.72 429.46,-517.97 479.89,-526.69 517.06,-529.31"/>
<polygon fill="#1e90ff" stroke="#1e90ff" points="516.98,-532.81 527.16,-529.9 517.38,-525.83 516.98,-532.81"/>
</g>
<!-- ship&#45;gh&#45;issue&#45;&gt;create&#45;pr -->
<g id="edge26" class="edge">
<title>ship&#45;gh&#45;issue&#45;&gt;create&#45;pr</title>
<path fill="none" stroke="#228b22" d="M342.05,-328.07C379.77,-308.16 442.51,-272.48 489.84,-232.72 505.88,-219.24 521.64,-202.39 534.66,-187.19"/>
<polygon fill="#228b22" stroke="#228b22" points="537.44,-189.32 541.21,-179.42 532.09,-184.81 537.44,-189.32"/>
</g>
<!-- ship&#45;gh&#45;issue&#45;&gt;review&#45;pr -->
<g id="edge27" class="edge">
<title>ship&#45;gh&#45;issue&#45;&gt;review&#45;pr</title>
<path fill="none" stroke="#228b22" d="M332.39,-315.95C353.37,-289.97 384.46,-251.46 407.96,-222.34"/>
<polygon fill="#228b22" stroke="#228b22" points="410.82,-224.38 414.37,-214.4 405.37,-219.98 410.82,-224.38"/>
</g>
<!-- ship&#45;gh&#45;issue&#45;&gt;ship -->
<g id="edge28" class="edge">
<title>ship&#45;gh&#45;issue&#45;&gt;ship</title>
<path fill="none" stroke="#228b22" d="M345.83,-344.72C364.13,-344.72 386.21,-344.72 404.47,-344.72"/>
<polygon fill="#228b22" stroke="#228b22" points="404.72,-348.22 414.72,-344.72 404.72,-341.22 404.72,-348.22"/>
</g>
<!-- suggest&#45;better&#45;function&#45;names -->
<g id="node18" class="node">
<title>suggest&#45;better&#45;function&#45;names</title>
<ellipse fill="white" stroke="black" cx="441.75" cy="-712.72" rx="48.17" ry="48.17"/>
<text text-anchor="middle" x="441.75" y="-731.52" font-family="Arial" font-size="14.00">suggest&#45;</text>
<text text-anchor="middle" x="441.75" y="-716.52" font-family="Arial" font-size="14.00">better&#45;</text>
<text text-anchor="middle" x="441.75" y="-701.52" font-family="Arial" font-size="14.00">function&#45;</text>
<text text-anchor="middle" x="441.75" y="-686.52" font-family="Arial" font-size="14.00">names</text>
</g>
<!-- suggest&#45;better&#45;function&#45;names&#45;&gt;commit -->
<g id="edge29" class="edge">
<title>suggest&#45;better&#45;function&#45;names&#45;&gt;commit</title>
<path fill="none" stroke="#1e90ff" d="M473.94,-676.54C479.42,-669.75 484.92,-662.62 489.84,-655.72 508.69,-629.24 527.7,-598.05 542.09,-573.32"/>
<polygon fill="#1e90ff" stroke="#1e90ff" points="545.2,-574.94 547.17,-564.53 539.14,-571.44 545.2,-574.94"/>
</g>
</g>
</svg>
