<?xml version="1.0" encoding="UTF-8" standalone="no"?>
<!DOCTYPE svg PUBLIC "-//W3C//DTD SVG 1.1//EN"
 "http://www.w3.org/Graphics/SVG/1.1/DTD/svg11.dtd">
<!-- Generated by graphviz version 2.43.0 (0)
 -->
<!-- Title: PromptReferences Pages: 1 -->
<svg width="731pt" height="763pt"
 viewBox="0.00 0.00 731.27 763.39" xmlns="http://www.w3.org/2000/svg" xmlns:xlink="http://www.w3.org/1999/xlink">
<g id="graph0" class="graph" transform="scale(1 1) rotate(0) translate(4 759.39)">
<title>PromptReferences</title>
<!-- bump&#45;semver&#45;version -->
<g id="node1" class="node">
<title>bump&#45;semver&#45;version</title>
<ellipse fill="white" stroke="black" cx="171.76" cy="-708.72" rx="46.84" ry="46.84"/>
<text text-anchor="middle" x="171.76" y="-720.02" font-family="Arial" font-size="14.00">bump&#45;</text>
<text text-anchor="middle" x="171.76" y="-705.02" font-family="Arial" font-size="14.00">semver&#45;</text>
<text text-anchor="middle" x="171.76" y="-690.02" font-family="Arial" font-size="14.00">version</text>
</g>
<!-- commit -->
<g id="node2" class="node">
<title>commit</title>
<ellipse fill="white" stroke="black" cx="567.56" cy="-454.72" rx="40.09" ry="40.09"/>
<text text-anchor="middle" x="567.56" y="-451.02" font-family="Arial" font-size="14.00">commit</text>
</g>
<!-- bump&#45;semver&#45;version&#45;&gt;commit -->
<g id="edge1" class="edge">
<title>bump&#45;semver&#45;version&#45;&gt;commit</title>
<path fill="none" stroke="#1e90ff" d="M215.48,-725.57C281.51,-748.55 409.15,-780.36 489.84,-719.72 524.16,-693.92 548.04,-574.27 559.27,-504.89"/>
<polygon fill="#1e90ff" stroke="#1e90ff" points="562.79,-505.04 560.9,-494.62 555.87,-503.95 562.79,-505.04"/>
</g>
<!-- read&#45;source&#45;map -->
<g id="node11" class="node">
<title>read&#45;source&#45;map</title>
<ellipse fill="white" stroke="black" cx="308.17" cy="-662.72" rx="43.68" ry="43.68"/>
<text text-anchor="middle" x="308.17" y="-674.02" font-family="Arial" font-size="14.00">read&#45;</text>
<text text-anchor="middle" x="308.17" y="-659.02" font-family="Arial" font-size="14.00">source&#45;</text>
<text text-anchor="middle" x="308.17" y="-644.02" font-family="Arial" font-size="14.00">map</text>
</g>
<!-- bump&#45;semver&#45;version&#45;&gt;read&#45;source&#45;map -->
<g id="edge2" class="edge">
<title>bump&#45;semver&#45;version&#45;&gt;read&#45;source&#45;map</title>
<path fill="none" stroke="#228b22" d="M216.03,-693.91C229,-689.47 243.34,-684.57 256.73,-679.98"/>
<polygon fill="#228b22" stroke="#228b22" points="257.95,-683.27 266.27,-676.72 255.68,-676.64 257.95,-683.27"/>
</g>
<!-- create&#45;mr -->
<g id="node3" class="node">
<title>create&#45;mr</title>
<ellipse fill="white" stroke="black" cx="441.75" cy="-41.72" rx="41.94" ry="41.94"/>
<text text-anchor="middle" x="441.75" y="-45.52" font-family="Arial" font-size="14.00">create&#45;</text>
<text text-anchor="middle" x="441.75" y="-30.52" font-family="Arial" font-size="14.00">mr</text>
</g>
<!-- create&#45;pr -->
<g id="node4" class="node">
<title>create&#45;pr</title>
<ellipse fill="white" stroke="black" cx="567.56" cy="-143.72" rx="41.94" ry="41.94"/>
<text text-anchor="middle" x="567.56" y="-147.52" font-family="Arial" font-size="14.00">create&#45;</text>
<text text-anchor="middle" x="567.56" y="-132.52" font-family="Arial" font-size="14.00">pr</text>
</g>
<!-- create&#45;mr&#45;&gt;create&#45;pr -->
<g id="edge3" class="edge">
<title>create&#45;mr&#45;&gt;create&#45;pr</title>
<path fill="none" stroke="#228b22" d="M474.64,-67.99C490.52,-81.07 509.89,-97.03 526.74,-110.91"/>
<polygon fill="#228b22" stroke="#228b22" points="524.84,-113.88 534.78,-117.54 529.29,-108.48 524.84,-113.88"/>
</g>
<!-- squash -->
<g id="node15" class="node">
<title>squash</title>
<ellipse fill="white" stroke="black" cx="684.27" cy="-143.72" rx="38.99" ry="38.99"/>
<text text-anchor="middle" x="684.27" y="-140.02" font-family="Arial" font-size="14.00">squash</text>
</g>
<!-- create&#45;pr&#45;&gt;squash -->
<g id="edge4" class="edge">
<title>create&#45;pr&#45;&gt;squash</title>
<path fill="none" stroke="#1e90ff" d="M609.32,-143.72C617.57,-143.72 626.31,-143.72 634.78,-143.72"/>
<polygon fill="#1e90ff" stroke="#1e90ff" points="634.94,-147.22 644.94,-143.72 634.94,-140.22 634.94,-147.22"/>
</g>
<!-- create&#45;simple&#45;source&#45;map -->
<g id="node5" class="node">
<title>create&#45;simple&#45;source&#45;map</title>
<ellipse fill="white" stroke="black" cx="441.75" cy="-662.72" rx="48.17" ry="48.17"/>
<text text-anchor="middle" x="441.75" y="-681.52" font-family="Arial" font-size="14.00">create&#45;</text>
<text text-anchor="middle" x="441.75" y="-666.52" font-family="Arial" font-size="14.00">simple&#45;</text>
<text text-anchor="middle" x="441.75" y="-651.52" font-family="Arial" font-size="14.00">source&#45;</text>
<text text-anchor="middle" x="441.75" y="-636.52" font-family="Arial" font-size="14.00">map</text>
</g>
<!-- create&#45;simple&#45;source&#45;map&#45;&gt;commit -->
<g id="edge5" class="edge">
<title>create&#45;simple&#45;source&#45;map&#45;&gt;commit</title>
<path fill="none" stroke="#1e90ff" d="M472.66,-625.4C478.6,-617.43 484.61,-608.93 489.84,-600.72 510.5,-568.24 530.62,-529.6 545.07,-500.24"/>
<polygon fill="#1e90ff" stroke="#1e90ff" points="548.31,-501.57 549.56,-491.05 542.02,-498.5 548.31,-501.57"/>
</g>
<!-- debug -->
<g id="node6" class="node">
<title>debug</title>
<ellipse fill="white" stroke="black" cx="441.75" cy="-517.72" rx="35.19" ry="35.19"/>
<text text-anchor="middle" x="441.75" y="-514.02" font-family="Arial" font-size="14.00">debug</text>
</g>
<!-- debug&#45;&gt;commit -->
<g id="edge6" class="edge">
<title>debug&#45;&gt;commit</title>
<path fill="none" stroke="#1e90ff" d="M473.36,-502.15C487.96,-494.71 505.72,-485.68 521.8,-477.49"/>
<polygon fill="#1e90ff" stroke="#1e90ff" points="523.72,-480.45 531.04,-472.79 520.54,-474.21 523.72,-480.45"/>
</g>
<!-- fix&#45;mr -->
<g id="node7" class="node">
<title>fix&#45;mr</title>
<ellipse fill="white" stroke="black" cx="171.76" cy="-198.72" rx="26.74" ry="26.74"/>
<text text-anchor="middle" x="171.76" y="-202.52" font-family="Arial" font-size="14.00">fix&#45;</text>
<text text-anchor="middle" x="171.76" y="-187.52" font-family="Arial" font-size="14.00">mr</text>
</g>
<!-- fix&#45;pr -->
<g id="node8" class="node">
<title>fix&#45;pr</title>
<ellipse fill="white" stroke="black" cx="308.17" cy="-198.72" rx="26.74" ry="26.74"/>
<text text-anchor="middle" x="308.17" y="-202.52" font-family="Arial" font-size="14.00">fix&#45;</text>
<text text-anchor="middle" x="308.17" y="-187.52" font-family="Arial" font-size="14.00">pr</text>
</g>
<!-- fix&#45;mr&#45;&gt;fix&#45;pr -->
<g id="edge7" class="edge">
<title>fix&#45;mr&#45;&gt;fix&#45;pr</title>
<path fill="none" stroke="#228b22" d="M198.68,-198.72C219.19,-198.72 248.07,-198.72 270.88,-198.72"/>
<polygon fill="#228b22" stroke="#228b22" points="270.88,-202.22 280.88,-198.72 270.88,-195.22 270.88,-202.22"/>
</g>
<!-- review&#45;mr -->
<g id="node12" class="node">
<title>review&#45;mr</title>
<ellipse fill="white" stroke="black" cx="42.43" cy="-198.72" rx="42.35" ry="42.35"/>
<text text-anchor="middle" x="42.43" y="-202.52" font-family="Arial" font-size="14.00">review&#45;</text>
<text text-anchor="middle" x="42.43" y="-187.52" font-family="Arial" font-size="14.00">mr</text>
</g>
<!-- fix&#45;mr&#45;&gt;review&#45;mr -->
<g id="edge8" class="edge">
<title>fix&#45;mr&#45;&gt;review&#45;mr</title>
<path fill="none" stroke="#228b22" d="M145.43,-204.24C130.87,-205.31 112.04,-205.68 94.53,-205.35"/>
<polygon fill="#228b22" stroke="#228b22" points="94.51,-201.85 84.42,-205.07 94.32,-208.85 94.51,-201.85"/>
</g>
<!-- fix&#45;pr&#45;&gt;commit -->
<g id="edge9" class="edge">
<title>fix&#45;pr&#45;&gt;commit</title>
<path fill="none" stroke="#1e90ff" d="M335.07,-202.54C373.61,-209.51 446.16,-227.73 489.84,-270.72 526.98,-307.28 546.97,-364.49 557.14,-405.41"/>
<polygon fill="#1e90ff" stroke="#1e90ff" points="553.74,-406.26 559.46,-415.18 560.55,-404.64 553.74,-406.26"/>
</g>
<!-- fix&#45;pr&#45;&gt;create&#45;pr -->
<g id="edge10" class="edge">
<title>fix&#45;pr&#45;&gt;create&#45;pr</title>
<path fill="none" stroke="#228b22" d="M335.03,-202.57C370.78,-206.9 436.86,-211.36 489.84,-194.72 502.73,-190.67 515.46,-183.74 526.74,-176.27"/>
<polygon fill="#228b22" stroke="#228b22" points="528.85,-179.07 535.06,-170.5 524.85,-173.32 528.85,-179.07"/>
</g>
<!-- review&#45;pr -->
<g id="node13" class="node">
<title>review&#45;pr</title>
<ellipse fill="white" stroke="black" cx="441.75" cy="-143.72" rx="42.35" ry="42.35"/>
<text text-anchor="middle" x="441.75" y="-147.52" font-family="Arial" font-size="14.00">review&#45;</text>
<text text-anchor="middle" x="441.75" y="-132.52" font-family="Arial" font-size="14.00">pr</text>
</g>
<!-- fix&#45;pr&#45;&gt;review&#45;pr -->
<g id="edge11" class="edge">
<title>fix&#45;pr&#45;&gt;review&#45;pr</title>
<path fill="none" stroke="#228b22" d="M331.2,-184.32C347.49,-176.12 370.34,-166.11 390.96,-157.96"/>
<polygon fill="#228b22" stroke="#228b22" points="392.49,-161.12 400.55,-154.25 389.96,-154.6 392.49,-161.12"/>
</g>
<!-- improve&#45;prompt -->
<g id="node9" class="node">
<title>improve&#45;prompt</title>
<ellipse fill="white" stroke="black" cx="308.17" cy="-473.72" rx="49.49" ry="49.49"/>
<text text-anchor="middle" x="308.17" y="-477.52" font-family="Arial" font-size="14.00">improve&#45;</text>
<text text-anchor="middle" x="308.17" y="-462.52" font-family="Arial" font-size="14.00">prompt</text>
</g>
<!-- improve&#45;prompt&#45;&gt;commit -->
<g id="edge12" class="edge">
<title>improve&#45;prompt&#45;&gt;commit</title>
<path fill="none" stroke="#1e90ff" d="M357.59,-470.15C403.21,-466.78 471.25,-461.76 517.18,-458.36"/>
<polygon fill="#1e90ff" stroke="#1e90ff" points="517.49,-461.85 527.21,-457.62 516.97,-454.87 517.49,-461.85"/>
</g>
<!-- improve&#45;prompt&#45;&gt;debug -->
<g id="edge13" class="edge">
<title>improve&#45;prompt&#45;&gt;debug</title>
<path fill="none" stroke="#228b22" d="M355.56,-489.23C369.5,-493.89 384.7,-498.98 398.36,-503.54"/>
<polygon fill="#228b22" stroke="#228b22" points="397.4,-506.91 407.99,-506.76 399.62,-500.27 397.4,-506.91"/>
</g>
<!-- optimize&#45;prompt -->
<g id="node10" class="node">
<title>optimize&#45;prompt</title>
<ellipse fill="white" stroke="black" cx="171.76" cy="-435.72" rx="50.82" ry="50.82"/>
<text text-anchor="middle" x="171.76" y="-439.52" font-family="Arial" font-size="14.00">optimize&#45;</text>
<text text-anchor="middle" x="171.76" y="-424.52" font-family="Arial" font-size="14.00">prompt</text>
</g>
<!-- optimize&#45;prompt&#45;&gt;commit -->
<g id="edge14" class="edge">
<title>optimize&#45;prompt&#45;&gt;commit</title>
<path fill="none" stroke="#1e90ff" d="M221.04,-422.44C233.23,-419.66 246.35,-417.13 258.68,-415.72 350.77,-405.14 458.14,-426.4 518.65,-441.47"/>
<polygon fill="#1e90ff" stroke="#1e90ff" points="518.12,-444.95 528.67,-444.02 519.84,-438.17 518.12,-444.95"/>
</g>
<!-- optimize&#45;prompt&#45;&gt;improve&#45;prompt -->
<g id="edge15" class="edge">
<title>optimize&#45;prompt&#45;&gt;improve&#45;prompt</title>
<path fill="none" stroke="#228b22" d="M220.91,-449.33C230.51,-452.05 240.68,-454.92 250.54,-457.71"/>
<polygon fill="#228b22" stroke="#228b22" points="249.69,-461.1 260.27,-460.46 251.59,-454.37 249.69,-461.1"/>
</g>
<!-- optimize&#45;prompt&#45;&gt;optimize&#45;prompt -->
<g id="edge16" class="edge">
<title>optimize&#45;prompt&#45;&gt;optimize&#45;prompt</title>
<path fill="none" stroke="#228b22" d="M147.82,-480.79C148.53,-494.2 156.51,-504.63 171.76,-504.63 182.96,-504.63 190.24,-499 193.6,-490.7"/>
<polygon fill="#228b22" stroke="#228b22" points="197.06,-491.3 195.71,-480.79 190.21,-489.84 197.06,-491.3"/>
</g>
<!-- read&#45;source&#45;map&#45;&gt;create&#45;simple&#45;source&#45;map -->
<g id="edge17" class="edge">
<title>read&#45;source&#45;map&#45;&gt;create&#45;simple&#45;source&#45;map</title>
<path fill="none" stroke="#228b22" d="M352.26,-662.72C362.15,-662.72 372.83,-662.72 383.22,-662.72"/>
<polygon fill="#228b22" stroke="#228b22" points="383.48,-666.22 393.48,-662.72 383.48,-659.22 383.48,-666.22"/>
</g>
<!-- review&#45;mr&#45;&gt;fix&#45;mr -->
<g id="edge18" class="edge">
<title>review&#45;mr&#45;&gt;fix&#45;mr</title>
<path fill="none" stroke="#228b22" d="M84.42,-192.37C100.72,-191.77 119.31,-191.85 135.05,-192.58"/>
<polygon fill="#228b22" stroke="#228b22" points="135.24,-196.1 145.43,-193.2 135.66,-189.11 135.24,-196.1"/>
</g>
<!-- review&#45;mr&#45;&gt;review&#45;pr -->
<g id="edge19" class="edge">
<title>review&#45;mr&#45;&gt;review&#45;pr</title>
<path fill="none" stroke="#228b22" d="M79.79,-178.38C92.42,-172.26 106.91,-166.24 120.85,-162.72 213.21,-139.4 325.13,-138.78 389.13,-140.92"/>
<polygon fill="#228b22" stroke="#228b22" points="389.23,-144.43 399.36,-141.3 389.49,-137.43 389.23,-144.43"/>
</g>
<!-- review&#45;pr&#45;&gt;commit -->
<g id="edge20" class="edge">
<title>review&#45;pr&#45;&gt;commit</title>
<path fill="none" stroke="#1e90ff" d="M462.63,-180.73C471.47,-197.84 481.69,-218.57 489.84,-237.72 514.12,-294.81 537.16,-362.47 551.54,-406.88"/>
<polygon fill="#1e90ff" stroke="#1e90ff" points="548.26,-408.09 554.66,-416.54 554.92,-405.95 548.26,-408.09"/>
</g>
<!-- review&#45;pr&#45;&gt;create&#45;pr -->
<g id="edge21" class="edge">
<title>review&#45;pr&#45;&gt;create&#45;pr</title>
<path fill="none" stroke="#228b22" d="M484.32,-143.72C494.33,-143.72 505.14,-143.72 515.53,-143.72"/>
<polygon fill="#228b22" stroke="#228b22" points="515.73,-147.22 525.73,-143.72 515.73,-140.22 515.73,-147.22"/>
</g>
<!-- review&#45;pr&#45;&gt;fix&#45;pr -->
<g id="edge22" class="edge">
<title>review&#45;pr&#45;&gt;fix&#45;pr</title>
<path fill="none" stroke="#228b22" d="M404.68,-164.89C385.93,-173.62 363.09,-183.15 344.45,-190.03"/>
<polygon fill="#228b22" stroke="#228b22" points="343.09,-186.8 334.86,-193.47 345.45,-193.39 343.09,-186.8"/>
</g>
<!-- ship -->
<g id="node14" class="node">
<title>ship</title>
<ellipse fill="white" stroke="black" cx="171.76" cy="-588.72" rx="26.8" ry="26.8"/>
<text text-anchor="middle" x="171.76" y="-585.02" font-family="Arial" font-size="14.00">ship</text>
</g>
<!-- ship&#45;&gt;commit -->
<g id="edge23" class="edge">
<title>ship&#45;&gt;commit</title>
<path fill="none" stroke="#1e90ff" d="M198.28,-593.31C254.98,-602.16 394.02,-616.18 489.84,-561.72 514.12,-547.92 532.69,-522.92 545.48,-500.56"/>
<polygon fill="#1e90ff" stroke="#1e90ff" points="548.71,-501.95 550.44,-491.5 542.57,-498.59 548.71,-501.95"/>
</g>
<!-- ship&#45;&gt;debug -->
<g id="edge24" class="edge">
<title>ship&#45;&gt;debug</title>
<path fill="none" stroke="#228b22" d="M197.98,-582.04C243.82,-569.89 341.32,-544.06 397.82,-529.09"/>
<polygon fill="#228b22" stroke="#228b22" points="398.77,-532.46 407.54,-526.52 396.97,-525.7 398.77,-532.46"/>
</g>
<!-- ship&#45;&gt;read&#45;source&#45;map -->
<g id="edge25" class="edge">
<title>ship&#45;&gt;read&#45;source&#45;map</title>
<path fill="none" stroke="#228b22" d="M195.57,-601.27C213.34,-611.06 238.61,-624.97 260.62,-637.09"/>
<polygon fill="#228b22" stroke="#228b22" points="259.05,-640.22 269.5,-641.98 262.42,-634.09 259.05,-640.22"/>
</g>
<!-- suggest&#45;better&#45;function&#45;names -->
<g id="node16" class="node">
<title>suggest&#45;better&#45;function&#45;names</title>
<ellipse fill="white" stroke="black" cx="441.75" cy="-327.72" rx="48.17" ry="48.17"/>
<text text-anchor="middle" x="441.75" y="-346.52" font-family="Arial" font-size="14.00">suggest&#45;</text>
<text text-anchor="middle" x="441.75" y="-331.52" font-family="Arial" font-size="14.00">better&#45;</text>
<text text-anchor="middle" x="441.75" y="-316.52" font-family="Arial" font-size="14.00">function&#45;</text>
<text text-anchor="middle" x="441.75" y="-301.52" font-family="Arial" font-size="14.00">names</text>
</g>
<!-- suggest&#45;better&#45;function&#45;names&#45;&gt;commit -->
<g id="edge26" class="edge">
<title>suggest&#45;better&#45;function&#45;names&#45;&gt;commit</title>
<path fill="none" stroke="#1e90ff" d="M475.93,-361.75C493.1,-379.37 514.06,-400.87 531.5,-418.76"/>
<polygon fill="#1e90ff" stroke="#1e90ff" points="529.25,-421.46 538.74,-426.18 534.26,-416.58 529.25,-421.46"/>
</g>
</g>
</svg>
